NotoSerifTamilSlanted-SemiCondensedBold.ufo
<glyph name="exclam" format="2">
  <advance width="371.1666666666667"/>
  <unicode hex="0021"/>
  <outline>
    <contour>
      <point x="143.5" y="226.16666666666669" type="line"/>
      <point x="205.83333333333334" y="226.16666666666669" type="line"/>
      <point x="371.9" y="714.0" type="line"/>
      <point x="206.33333333333334" y="714.0" type="line"/>
    </contour>
    <contour>
      <point x="148.83333333333334" y="-8.0" type="curve" smooth="yes"/>
      <point x="189.0" y="-8.0"/>
      <point x="232.53333333333333" y="15.0"/>
      <point x="232.53333333333333" y="81.26666666666667" type="curve" smooth="yes"/>
      <point x="232.53333333333333" y="129.16666666666669"/>
      <point x="200.10000000000002" y="151.43333333333334"/>
      <point x="156.66666666666669" y="151.43333333333334" type="curve" smooth="yes"/>
      <point x="106.23333333333333" y="151.43333333333334"/>
      <point x="73.33333333333334" y="115.43333333333334"/>
      <point x="73.33333333333334" y="62.89999999999999" type="curve" smooth="yes"/>
      <point x="73.33333333333334" y="16.099999999999998"/>
      <point x="104.13333333333334" y="-8.0"/>
    </contour>
  </outline>
</glyph>
<glyph name="quotedbl" format="2">
  <advance width="470.96666666666664"/>
  <unicode hex="0022"/>
  <outline>
    <contour>
      <point x="141.36666666666667" y="443.0333333333333" type="line"/>
      <point x="204.06666666666666" y="443.0333333333333" type="line"/>
      <point x="315.8666666666667" y="714.0" type="line"/>
      <point x="167.56666666666666" y="714.0" type="line"/>
    </contour>
    <contour>
      <point x="346.1666666666667" y="443.0333333333333" type="line"/>
      <point x="408.5" y="443.0333333333333" type="line"/>
      <point x="520.3" y="714.0" type="line"/>
      <point x="372.3666666666667" y="714.0" type="line"/>
    </contour>
  </outline>
</glyph>
<glyph name="numbersign" format="2">
  <advance width="519.7666666666668"/>
  <unicode hex="0023"/>
  <outline>
    <contour>
      <point x="60.2" y="0.0" type="line"/>
      <point x="127.16666666666666" y="0.0" type="line"/>
      <point x="185.06666666666666" y="200.36666666666667" type="line"/>
      <point x="286.5" y="200.36666666666667" type="line"/>
      <point x="229.6" y="0.0" type="line"/>
      <point x="296.2" y="0.0" type="line"/>
      <point x="353.1" y="200.36666666666667" type="line"/>
      <point x="467.4666666666667" y="200.36666666666667" type="line"/>
      <point x="474.83333333333337" y="268.26666666666665" type="line"/>
      <point x="373.73333333333335" y="268.26666666666665" type="line"/>
      <point x="425.6333333333333" y="450.73333333333335" type="line"/>
      <point x="525.1" y="450.73333333333335" type="line"/>
      <point x="533.4666666666667" y="519.6333333333333" type="line"/>
      <point x="446.26666666666665" y="519.6333333333333" type="line"/>
      <point x="502.1666666666667" y="714.0" type="line"/>
      <point x="435.56666666666666" y="714.0" type="line"/>
      <point x="379.6666666666667" y="519.6333333333333" type="line"/>
      <point x="278.23333333333335" y="519.6333333333333" type="line"/>
      <point x="332.7666666666667" y="714.0" type="line"/>
      <point x="265.5333333333333" y="714.0" type="line"/>
      <point x="211.63333333333335" y="519.6333333333333" type="line"/>
      <point x="95.46666666666667" y="519.6333333333333" type="line"/>
      <point x="87.10000000000001" y="450.73333333333335" type="line"/>
      <point x="191.0" y="450.73333333333335" type="line"/>
      <point x="138.10000000000002" y="268.26666666666665" type="line"/>
      <point x="36.833333333333336" y="268.26666666666665" type="line"/>
      <point x="29.466666666666665" y="200.36666666666667" type="line"/>
      <point x="118.46666666666667" y="200.36666666666667" type="line"/>
    </contour>
    <contour>
      <point x="204.33333333333334" y="268.26666666666665" type="line"/>
      <point x="257.23333333333335" y="450.73333333333335" type="line"/>
      <point x="359.6666666666667" y="450.73333333333335" type="line"/>
      <point x="306.76666666666665" y="268.26666666666665" type="line"/>
    </contour>
  </outline>
</glyph>
<glyph name="percent" format="2">
  <advance width="842.1"/>
  <unicode hex="0025"/>
  <outline>
    <contour>
      <point x="171.66666666666666" y="0.0" type="line"/>
      <point x="244.53333333333333" y="0.0" type="line"/>
      <point x="713.3333333333333" y="714.0" type="line"/>
      <point x="643.4630000000001" y="714.0" type="line"/>
    </contour>
    <contour>
      <point x="203.1" y="280.0" type="curve" smooth="yes"/>
      <point x="357.3" y="280.0"/>
      <point x="426.83333333333337" y="463.6666666666667"/>
      <point x="426.83333333333337" y="577.9333333333333" type="curve" smooth="yes"/>
      <point x="426.83333333333337" y="661.8333333333334"/>
      <point x="386.1333333333333" y="724.0"/>
      <point x="293.20000000000005" y="724.0" type="curve" smooth="yes"/>
      <point x="141.26666666666665" y="724.0"/>
      <point x="73.46666666666667" y="546.6"/>
      <point x="73.46666666666667" y="423.43333333333334" type="curve"/>
      <point x="73.46666666666667" y="329.53333333333336"/>
      <point x="124.06666666666666" y="280.0"/>
    </contour>
    <contour>
      <point x="215.20000000000002" y="329.9" type="curve" smooth="yes"/>
      <point x="186.5" y="329.9"/>
      <point x="175.6" y="362.43333333333334"/>
      <point x="175.6" y="413.2333333333333" type="curve" smooth="yes"/>
      <point x="175.6" y="494.06666666666666"/>
      <point x="216.96666666666667" y="672.7333333333333"/>
      <point x="289.4666666666667" y="672.7333333333333" type="curve" smooth="yes"/>
      <point x="319.16666666666663" y="672.7333333333333"/>
      <point x="329.06666666666666" y="641.9333333333333"/>
      <point x="329.06666666666666" y="591.5" type="curve" smooth="yes"/>
      <point x="329.06666666666666" y="509.29999999999995"/>
      <point x="287.7" y="329.9"/>
    </contour>
    <contour>
      <point x="592.4333333333333" y="-9.633333333333333" type="curve" smooth="yes"/>
      <point x="746.6333333333334" y="-9.633333333333333"/>
      <point x="815.8000000000001" y="174.03333333333333"/>
      <point x="815.8000000000001" y="287.93333333333334" type="curve" smooth="yes"/>
      <point x="815.8000000000001" y="371.8333333333333"/>
      <point x="775.4666666666667" y="434.0"/>
      <point x="682.1666666666667" y="434.0" type="curve" smooth="yes"/>
      <point x="530.5999999999999" y="434.0"/>
      <point x="462.8" y="256.96666666666664"/>
      <point x="462.8" y="133.4333333333333" type="curve"/>
      <point x="462.8" y="39.9"/>
      <point x="513.0333333333333" y="-9.633333333333333"/>
    </contour>
    <contour>
      <point x="603.8000000000001" y="40.266666666666666" type="curve" smooth="yes"/>
      <point x="575.4666666666667" y="40.266666666666666"/>
      <point x="564.5666666666667" y="72.43333333333334"/>
      <point x="564.5666666666667" y="123.60000000000001" type="curve" smooth="yes"/>
      <point x="564.5666666666667" y="204.06666666666666"/>
      <point x="605.9333333333334" y="383.1"/>
      <point x="678.4333333333334" y="383.1" type="curve" smooth="yes"/>
      <point x="708.1333333333333" y="383.1"/>
      <point x="718.0333333333333" y="351.93333333333334"/>
      <point x="718.0333333333333" y="301.5" type="curve" smooth="yes"/>
      <point x="718.0333333333333" y="219.3"/>
      <point x="677.0333333333333" y="40.266666666666666"/>
    </contour>
  </outline>
</glyph>
<glyph name="quotesingle" format="2">
  <advance width="269.4666666666667"/>
  <unicode hex="0027"/>
  <outline>
    <contour>
      <point x="145.03333333333333" y="443.0333333333333" type="line"/>
      <point x="207.73333333333335" y="443.0333333333333" type="line"/>
      <point x="309.5333333333333" y="714.0" type="line"/>
      <point x="161.6" y="714.0" type="line"/>
    </contour>
  </outline>
</glyph>
<glyph name="parenleft" format="2">
  <advance width="375.43333333333334"/>
  <unicode hex="0028"/>
  <outline>
    <contour>
      <point x="252.03333333333333" y="-137.9" type="curve"/>
      <point x="265.4" y="-75.73333333333332" type="line"/>
      <point x="207.36666666666665" y="-30.2"/>
      <point x="187.56666666666666" y="55.16666666666667"/>
      <point x="187.56666666666666" y="134.96666666666667" type="curve" smooth="yes"/>
      <point x="187.56666666666666" y="268.3"/>
      <point x="236.56666666666666" y="593.8"/>
      <point x="433.0333333333333" y="709.7333333333333" type="curve"/>
      <point x="443.4" y="770.5333333333333" type="line"/>
      <point x="173.23333333333335" y="702.3333333333334"/>
      <point x="41.63333333333333" y="425.2"/>
      <point x="41.63333333333333" y="179.03333333333333" type="curve" smooth="yes"/>
      <point x="41.63333333333333" y="38.7"/>
      <point x="103.5" y="-83.36666666666666"/>
    </contour>
  </outline>
</glyph>
<glyph name="parenright" format="2">
  <advance width="375.43333333333334"/>
  <unicode hex="0029"/>
  <outline>
    <contour>
      <point x="-42.9" y="-137.63333333333333" type="line"/>
      <point x="227.63333333333333" y="-69.43333333333332"/>
      <point x="358.8666666666666" y="208.06666666666666"/>
      <point x="358.8666666666666" y="453.8666666666667" type="curve" smooth="yes"/>
      <point x="358.8666666666666" y="594.1999999999999"/>
      <point x="297.0" y="715.9"/>
      <point x="148.46666666666667" y="770.8" type="curve"/>
      <point x="135.46666666666667" y="708.6333333333333" type="line"/>
      <point x="193.13333333333333" y="663.1"/>
      <point x="212.56666666666666" y="578.0999999999999"/>
      <point x="212.56666666666666" y="497.93333333333334" type="curve" smooth="yes"/>
      <point x="212.56666666666666" y="364.9666666666667"/>
      <point x="164.29999999999998" y="39.1"/>
      <point x="-32.53333333333333" y="-76.46666666666667" type="curve"/>
    </contour>
  </outline>
</glyph>
<glyph name="asterisk" format="2">
  <advance width="565.5666666666667"/>
  <unicode hex="002A"/>
  <outline>
    <contour>
      <point x="357.5333333333333" y="359.83333333333337" type="line"/>
      <point x="358.73333333333335" y="525.1" type="line"/>
      <point x="472.7333333333333" y="392.83333333333337" type="line"/>
      <point x="535.1666666666667" y="478.0" type="line"/>
      <point x="402.90000000000003" y="551.1" type="line"/>
      <point x="551.1666666666667" y="557.8333333333334" type="line"/>
      <point x="530.7333333333333" y="662.6333333333333" type="line"/>
      <point x="373.73333333333335" y="592.7333333333333" type="line"/>
      <point x="440.5333333333333" y="742.3666666666667" type="line"/>
      <point x="337.1333333333333" y="765.0" type="line"/>
      <point x="333.3" y="599.3666666666667" type="line"/>
      <point x="221.3" y="735.6333333333333" type="line"/>
      <point x="158.86666666666667" y="647.8333333333334" type="line"/>
      <point x="291.1333333333333" y="575.3666666666667" type="line"/>
      <point x="141.86666666666665" y="566.2666666666667" type="line"/>
      <point x="163.3" y="462.83333333333337" type="line"/>
      <point x="319.3" y="534.7333333333333" type="line"/>
      <point x="255.13333333333335" y="382.1" type="line"/>
    </contour>
  </outline>
</glyph>
<glyph name="plus" format="2">
  <advance width="509.8666666666667"/>
  <unicode hex="002B"/>
  <outline>
    <contour>
      <point x="229.0666666666667" y="143.0" type="line"/>
      <point x="299.96666666666664" y="143.0" type="line"/>
      <point x="299.96666666666664" y="322.73333333333335" type="line"/>
      <point x="464.6666666666667" y="322.73333333333335" type="line"/>
      <point x="464.6666666666667" y="392.26666666666665" type="line"/>
      <point x="299.96666666666664" y="392.26666666666665" type="line"/>
      <point x="299.96666666666664" y="572.0" type="line"/>
      <point x="229.0666666666667" y="572.0" type="line"/>
      <point x="229.0666666666667" y="392.26666666666665" type="line"/>
      <point x="65.0" y="392.26666666666665" type="line"/>
      <point x="65.0" y="322.73333333333335" type="line"/>
      <point x="229.0666666666667" y="322.73333333333335" type="line"/>
    </contour>
  </outline>
</glyph>
<glyph name="comma" format="2">
  <advance width="286.0333333333333"/>
  <unicode hex="002C"/>
  <outline>
    <contour>
      <point x="-16.366666666666667" y="-150.63333333333333" type="line"/>
      <point x="122.3" y="-122.63333333333334"/>
      <point x="193.73333333333335" y="-39.63333333333333"/>
      <point x="193.73333333333335" y="61.266666666666666" type="curve" smooth="yes"/>
      <point x="193.73333333333335" y="118.16666666666667"/>
      <point x="157.66666666666669" y="150.43333333333334"/>
      <point x="113.33333333333334" y="150.43333333333334" type="curve" smooth="yes"/>
      <point x="75.53333333333333" y="150.43333333333334"/>
      <point x="42.0" y="124.43333333333334"/>
      <point x="42.0" y="81.06666666666666" type="curve" smooth="yes"/>
      <point x="42.0" y="25.266666666666666"/>
      <point x="92.13333333333334" y="25.53333333333333"/>
      <point x="92.13333333333334" y="-14.633333333333333" type="curve" smooth="yes"/>
      <point x="92.13333333333334" y="-54.36666666666667"/>
      <point x="59.33333333333333" y="-82.36666666666666"/>
      <point x="-5.0" y="-98.73333333333332" type="curve"/>
    </contour>
  </outline>
</glyph>
<glyph name="hyphen" format="2">
  <advance width="288.3666666666667"/>
  <unicode hex="002D"/>
  <outline>
    <contour>
      <point x="12.566666666666666" y="221.83333333333331" type="line"/>
      <point x="254.23333333333332" y="221.83333333333331" type="line"/>
      <point x="277.6" y="323.16666666666663" type="line"/>
      <point x="35.56666666666666" y="323.16666666666663" type="line"/>
    </contour>
  </outline>
</glyph>
<glyph name="period" format="2">
  <advance width="286.0333333333333"/>
  <unicode hex="002E"/>
  <outline>
    <contour>
      <point x="108.39999999999999" y="-8.0" type="curve" smooth="yes"/>
      <point x="148.56666666666666" y="-8.0"/>
      <point x="192.10000000000002" y="15.0"/>
      <point x="192.10000000000002" y="81.26666666666667" type="curve" smooth="yes"/>
      <point x="192.10000000000002" y="129.16666666666669"/>
      <point x="159.66666666666666" y="151.43333333333334"/>
      <point x="116.23333333333333" y="151.43333333333334" type="curve" smooth="yes"/>
      <point x="65.8" y="151.43333333333334"/>
      <point x="32.9" y="115.43333333333334"/>
      <point x="32.9" y="62.9" type="curve" smooth="yes"/>
      <point x="32.9" y="16.099999999999998"/>
      <point x="63.699999999999996" y="-8.0"/>
    </contour>
  </outline>
</glyph>
<glyph name="slash" format="2">
  <advance width="267.83333333333337"/>
  <unicode hex="002F"/>
  <outline>
    <contour>
      <point x="-98.23333333333333" y="-121.0" type="line"/>
      <point x="-25.0" y="-121.0" type="line"/>
      <point x="385.23333333333335" y="760.0" type="line"/>
      <point x="311.6333333333333" y="760.0" type="line"/>
    </contour>
  </outline>
</glyph>
<glyph name="zero" format="2">
  <advance width="532.2333333333333"/>
  <unicode hex="0030"/>
  <outline>
    <contour>
      <point x="233.26666666666668" y="-11.0" type="curve" smooth="yes"/>
      <point x="445.0" y="-11.0"/>
      <point x="539.0666666666667" y="303.53333333333336"/>
      <point x="539.0666666666667" y="502.2333333333333" type="curve" smooth="yes"/>
      <point x="539.0666666666667" y="656.4666666666667"/>
      <point x="457.1333333333333" y="725.0"/>
      <point x="351.93333333333334" y="725.0" type="curve" smooth="yes"/>
      <point x="140.20000000000002" y="725.0"/>
      <point x="42.5" y="429.2"/>
      <point x="42.5" y="224.03333333333333" type="curve" smooth="yes"/>
      <point x="42.5" y="70.8"/>
      <point x="119.16666666666667" y="-11.0"/>
    </contour>
    <contour>
      <point x="239.63333333333335" y="55.9" type="curve" smooth="yes"/>
      <point x="198.13333333333333" y="55.9"/>
      <point x="171.79999999999998" y="97.16666666666667"/>
      <point x="171.79999999999998" y="182.86666666666665" type="curve" smooth="yes"/>
      <point x="171.79999999999998" y="351.0333333333333"/>
      <point x="241.26666666666668" y="659.1"/>
      <point x="346.56666666666666" y="659.1" type="curve" smooth="yes"/>
      <point x="390.06666666666666" y="659.1"/>
      <point x="414.76666666666665" y="617.8333333333334"/>
      <point x="414.76666666666665" y="534.1333333333333" type="curve" smooth="yes"/>
      <point x="414.76666666666665" y="368.3333333333333"/>
      <point x="349.3" y="55.9"/>
    </contour>
  </outline>
</glyph>
<glyph name="one" format="2">
  <advance width="532.2333333333333"/>
  <unicode hex="0031"/>
  <outline>
    <contour>
      <point x="41.1" y="0.0" type="line"/>
      <point x="427.3333333333333" y="0.0" type="line"/>
      <point x="438.3333333333333" y="51.9" type="line"/>
      <point x="393.0" y="51.9" type="line" smooth="yes"/>
      <point x="353.66666666666663" y="51.9"/>
      <point x="323.8666666666667" y="55.9"/>
      <point x="323.8666666666667" y="84.9" type="curve" smooth="yes"/>
      <point x="323.8666666666667" y="92.9"/>
      <point x="327.5" y="111.16666666666667"/>
      <point x="330.23333333333335" y="123.56666666666668" type="curve" smooth="yes"/>
      <point x="456.8666666666667" y="718.0" type="line"/>
      <point x="350.0" y="718.0" type="line"/>
      <point x="274.1333333333333" y="666.0" type="line" smooth="yes"/>
      <point x="202.53333333333333" y="617.0"/>
      <point x="157.46666666666667" y="601.0"/>
      <point x="114.39999999999999" y="589.0" type="curve"/>
      <point x="113.66666666666667" y="543.4666666666667"/>
      <point x="132.56666666666666" y="517.2"/>
      <point x="158.73333333333335" y="517.2" type="curve" smooth="yes"/>
      <point x="198.43333333333334" y="517.2"/>
      <point x="236.33333333333334" y="555.4666666666667"/>
      <point x="296.03333333333336" y="621.2" type="curve"/>
      <point x="299.6666666666667" y="621.2" type="line"/>
      <point x="286.56666666666666" y="577.4"/>
      <point x="276.29999999999995" y="532.4"/>
      <point x="265.93333333333334" y="483.09999999999997" type="curve" smooth="yes"/>
      <point x="188.93333333333334" y="117.26666666666668" type="line" smooth="yes"/>
      <point x="178.56666666666666" y="68.16666666666667"/>
      <point x="151.13333333333333" y="51.9"/>
      <point x="107.43333333333334" y="51.9" type="curve" smooth="yes"/>
      <point x="52.1" y="51.9" type="line"/>
    </contour>
  </outline>
</glyph>
<glyph name="two" format="2">
  <advance width="532.2333333333333"/>
  <unicode hex="0032"/>
  <outline>
    <contour>
      <point x="-11.8" y="0.0" type="line"/>
      <point x="430.4" y="0.0" type="line"/>
      <point x="479.76666666666665" y="205.96666666666667" type="line"/>
      <point x="423.7" y="205.96666666666667" type="line"/>
      <point x="416.7" y="188.33333333333334" type="line" smooth="yes"/>
      <point x="401.06666666666666" y="147.33333333333334"/>
      <point x="378.53333333333336" y="107.06666666666666"/>
      <point x="318.56666666666666" y="107.06666666666666" type="curve" smooth="yes"/>
      <point x="102.06666666666666" y="107.06666666666666" type="line"/>
      <point x="310.53333333333336" y="285.03333333333336" type="line" smooth="yes"/>
      <point x="468.93333333333334" y="415.43333333333334"/>
      <point x="534.9666666666667" y="491.9666666666667"/>
      <point x="534.9666666666667" y="586.4666666666667" type="curve" smooth="yes"/>
      <point x="534.9666666666667" y="671.3666666666667"/>
      <point x="465.09999999999997" y="724.0"/>
      <point x="338.3666666666667" y="724.0" type="curve" smooth="yes"/>
      <point x="195.79999999999998" y="724.0"/>
      <point x="117.56666666666666" y="656.9"/>
      <point x="117.56666666666666" y="578.6333333333333" type="curve" smooth="yes"/>
      <point x="117.56666666666666" y="522.2"/>
      <point x="163.63333333333333" y="495.9333333333333"/>
      <point x="226.33333333333331" y="495.9333333333333" type="curve"/>
      <point x="232.70000000000002" y="589.8333333333334"/>
      <point x="267.8666666666667" y="663.4666666666667"/>
      <point x="327.6333333333333" y="663.4666666666667" type="curve" smooth="yes"/>
      <point x="367.8666666666667" y="663.4666666666667"/>
      <point x="390.3" y="625.5666666666667"/>
      <point x="390.3" y="572.4" type="curve" smooth="yes"/>
      <point x="390.3" y="487.6666666666667"/>
      <point x="360.2333333333333" y="418.3"/>
      <point x="228.63333333333333" y="299.2666666666667" type="curve" smooth="yes"/>
      <point x="8.833333333333334" y="100.80000000000001" type="line"/>
    </contour>
  </outline>
</glyph>
<glyph name="three" format="2">
  <advance width="532.2333333333333"/>
  <unicode hex="0033"/>
  <outline>
    <contour>
      <point x="198.63333333333335" y="-10.0" type="curve" smooth="yes"/>
      <point x="325.93333333333334" y="-10.0"/>
      <point x="481.8666666666667" y="48.733333333333334"/>
      <point x="481.8666666666667" y="227.93333333333334" type="curve" smooth="yes"/>
      <point x="481.8666666666667" y="311.73333333333335"/>
      <point x="428.6333333333334" y="362.3666666666667"/>
      <point x="344.33333333333337" y="372.0" type="curve"/>
      <point x="470.6333333333334" y="396.3666666666667"/>
      <point x="534.6999999999999" y="489.8333333333333"/>
      <point x="534.6999999999999" y="583.2" type="curve" smooth="yes"/>
      <point x="534.6999999999999" y="672.7333333333333"/>
      <point x="458.2" y="724.0"/>
      <point x="344.0" y="724.0" type="curve" smooth="yes"/>
      <point x="215.7" y="724.0"/>
      <point x="112.93333333333332" y="658.9000000000001"/>
      <point x="112.93333333333332" y="576.9000000000001" type="curve" smooth="yes"/>
      <point x="112.93333333333332" y="529.7333333333333"/>
      <point x="159.36666666666667" y="515.1"/>
      <point x="219.7" y="515.1" type="curve"/>
      <point x="233.7" y="594.1"/>
      <point x="259.6" y="664.1"/>
      <point x="326.3666666666667" y="664.1" type="curve" smooth="yes"/>
      <point x="370.7" y="664.1"/>
      <point x="389.5" y="629.2"/>
      <point x="389.5" y="580.3000000000001" type="curve" smooth="yes"/>
      <point x="389.5" y="471.73333333333335"/>
      <point x="310.53333333333336" y="399.6333333333333"/>
      <point x="204.03333333333333" y="399.6333333333333" type="curve" smooth="yes"/>
      <point x="174.23333333333332" y="399.6333333333333" type="line"/>
      <point x="164.23333333333332" y="338.73333333333335" type="line"/>
      <point x="204.3" y="338.73333333333335" type="line" smooth="yes"/>
      <point x="287.43333333333334" y="338.73333333333335"/>
      <point x="334.6666666666667" y="295.83333333333337"/>
      <point x="334.6666666666667" y="221.3" type="curve" smooth="yes"/>
      <point x="334.6666666666667" y="114.0"/>
      <point x="273.8666666666667" y="59.53333333333333"/>
      <point x="212.0" y="59.53333333333333" type="curve" smooth="yes"/>
      <point x="139.86666666666667" y="59.53333333333333"/>
      <point x="107.53333333333333" y="116.9"/>
      <point x="108.63333333333333" y="193.43333333333334" type="curve"/>
      <point x="42.2" y="193.43333333333334"/>
      <point x="3.033333333333333" y="161.16666666666666"/>
      <point x="3.033333333333333" y="108.8" type="curve" smooth="yes"/>
      <point x="3.033333333333333" y="53.16666666666667"/>
      <point x="54.0" y="-10.0"/>
    </contour>
  </outline>
</glyph>
<glyph name="four" format="2">
  <advance width="532.2333333333333"/>
  <unicode hex="0034"/>
  <outline>
    <contour>
      <point x="124.23333333333333" y="0.0" type="line"/>
      <point x="452.1333333333333" y="0.0" type="line"/>
      <point x="463.5" y="51.9" type="line"/>
      <point x="446.96666666666664" y="51.9" type="line" smooth="yes"/>
      <point x="410.2666666666667" y="51.9"/>
      <point x="386.83333333333337" y="57.53333333333333"/>
      <point x="386.83333333333337" y="90.43333333333334" type="curve" smooth="yes"/>
      <point x="386.83333333333337" y="97.16666666666667"/>
      <point x="388.83333333333337" y="114.16666666666667"/>
      <point x="390.83333333333337" y="122.53333333333333" type="curve" smooth="yes"/>
      <point x="516.4666666666667" y="714.0" type="line"/>
      <point x="381.9666666666667" y="714.0" type="line"/>
      <point x="22.8" y="246.9" type="line"/>
      <point x="8.8" y="187.46666666666667" type="line"/>
      <point x="499.03333333333336" y="187.46666666666667" type="line"/>
      <point x="513.0333333333334" y="251.63333333333335" type="line"/>
      <point x="60.6" y="251.63333333333335" type="line"/>
      <point x="75.13333333333334" y="226.46666666666667" type="line"/>
      <point x="261.6666666666667" y="468.6333333333333" type="line" smooth="yes"/>
      <point x="289.56666666666666" y="504.73333333333335"/>
      <point x="336.26666666666665" y="573.2666666666667"/>
      <point x="363.06666666666666" y="620.4666666666667" type="curve"/>
      <point x="344.43333333333334" y="558.4666666666667"/>
      <point x="326.79999999999995" y="481.83333333333337"/>
      <point x="315.79999999999995" y="428.4666666666667" type="curve" smooth="yes"/>
      <point x="251.8" y="123.9" type="line" smooth="yes"/>
      <point x="237.8" y="56.266666666666666"/>
      <point x="196.36666666666667" y="51.9"/>
      <point x="160.3" y="51.9" type="curve" smooth="yes"/>
      <point x="134.6" y="51.9" type="line"/>
    </contour>
  </outline>
</glyph>
<glyph name="five" format="2">
  <advance width="532.2333333333333"/>
  <unicode hex="0035"/>
  <outline>
    <contour>
      <point x="192.03333333333333" y="-10.0" type="curve" smooth="yes"/>
      <point x="372.0333333333333" y="-10.0"/>
      <point x="480.06666666666666" y="102.83333333333333"/>
      <point x="480.06666666666666" y="250.29999999999998" type="curve" smooth="yes"/>
      <point x="480.06666666666666" y="368.73333333333335"/>
      <point x="398.03333333333336" y="433.26666666666665"/>
      <point x="270.3" y="433.26666666666665" type="curve" smooth="yes"/>
      <point x="224.96666666666667" y="433.26666666666665"/>
      <point x="195.8" y="424.26666666666665"/>
      <point x="173.26666666666665" y="417.26666666666665" type="curve"/>
      <point x="228.06666666666666" y="607.9333333333334" type="line"/>
      <point x="417.8666666666667" y="607.9333333333334" type="line" smooth="yes"/>
      <point x="452.93333333333334" y="607.9333333333334"/>
      <point x="463.2" y="598.3000000000001"/>
      <point x="463.2" y="583.6666666666667" type="curve" smooth="yes"/>
      <point x="463.2" y="576.0333333333334"/>
      <point x="460.8333333333333" y="552.6666666666667"/>
      <point x="459.46666666666664" y="535.3000000000001" type="curve"/>
      <point x="517.5333333333333" y="535.3000000000001" type="line"/>
      <point x="547.2666666666667" y="714.0" type="line"/>
      <point x="193.10000000000002" y="714.0" type="line"/>
      <point x="93.66666666666666" y="367.0" type="line"/>
      <point x="132.73333333333332" y="346.73333333333335" type="line"/>
      <point x="156.53333333333333" y="357.73333333333335"/>
      <point x="184.06666666666666" y="368.73333333333335"/>
      <point x="228.4" y="368.73333333333335" type="curve" smooth="yes"/>
      <point x="291.53333333333336" y="368.73333333333335"/>
      <point x="338.40000000000003" y="327.1"/>
      <point x="338.40000000000003" y="242.93333333333334" type="curve" smooth="yes"/>
      <point x="338.40000000000003" y="121.10000000000001"/>
      <point x="285.06666666666666" y="58.166666666666664"/>
      <point x="203.9333333333333" y="58.166666666666664" type="curve" smooth="yes"/>
      <point x="121.43333333333332" y="58.166666666666664"/>
      <point x="104.0" y="129.26666666666668"/>
      <point x="103.73333333333333" y="185.9" type="curve"/>
      <point x="43.03333333333334" y="185.9"/>
      <point x="15.133333333333333" y="150.26666666666668"/>
      <point x="15.133333333333333" y="105.53333333333333" type="curve" smooth="yes"/>
      <point x="15.133333333333333" y="43.0"/>
      <point x="63.3" y="-10.0"/>
    </contour>
  </outline>
</glyph>
<glyph name="six" format="2">
  <advance width="532.2333333333333"/>
  <unicode hex="0036"/>
  <outline>
    <contour>
      <point x="246.9" y="-10.0" type="curve" smooth="yes"/>
      <point x="419.3666666666667" y="-10.0"/>
      <point x="502.7" y="123.93333333333334"/>
      <point x="502.7" y="264.6666666666667" type="curve" smooth="yes"/>
      <point x="502.7" y="358.46666666666664"/>
      <point x="454.1" y="437.26666666666665"/>
      <point x="348.3666666666667" y="437.26666666666665" type="curve" smooth="yes"/>
      <point x="284.40000000000003" y="437.26666666666665"/>
      <point x="239.70000000000002" y="410.26666666666665"/>
      <point x="211.53333333333333" y="387.26666666666665" type="curve"/>
      <point x="251.79999999999998" y="574.0"/>
      <point x="313.1333333333333" y="666.1"/>
      <point x="392.1666666666667" y="666.1" type="curve" smooth="yes"/>
      <point x="441.1333333333333" y="666.1"/>
      <point x="445.6666666666667" y="602.8333333333334"/>
      <point x="444.5666666666667" y="538.5666666666667" type="curve"/>
      <point x="520.2666666666668" y="538.5666666666667"/>
      <point x="564.8000000000001" y="570.5666666666667"/>
      <point x="564.8000000000001" y="622.8333333333334" type="curve" smooth="yes"/>
      <point x="564.8000000000001" y="677.4666666666667"/>
      <point x="512.2" y="724.0"/>
      <point x="411.2666666666667" y="724.0" type="curve" smooth="yes"/>
      <point x="192.0" y="724.0"/>
      <point x="55.03333333333333" y="474.0333333333333"/>
      <point x="55.03333333333333" y="225.03333333333333" type="curve" smooth="yes"/>
      <point x="55.03333333333333" y="65.96666666666667"/>
      <point x="140.7" y="-10.0"/>
    </contour>
    <contour>
      <point x="261.26666666666665" y="53.53333333333333" type="curve" smooth="yes"/>
      <point x="214.76666666666665" y="53.53333333333333"/>
      <point x="185.43333333333334" y="97.16666666666666"/>
      <point x="185.43333333333334" y="193.76666666666668" type="curve" smooth="yes"/>
      <point x="185.43333333333334" y="234.9"/>
      <point x="189.8" y="274.53333333333336"/>
      <point x="198.53333333333333" y="325.0" type="curve"/>
      <point x="223.33333333333331" y="350.3666666666667"/>
      <point x="263.0333333333333" y="377.73333333333335"/>
      <point x="302.73333333333335" y="377.73333333333335" type="curve" smooth="yes"/>
      <point x="346.23333333333335" y="377.73333333333335"/>
      <point x="369.0333333333333" y="335.56666666666666"/>
      <point x="369.0333333333333" y="259.6" type="curve" smooth="yes"/>
      <point x="369.0333333333333" y="143.93333333333334"/>
      <point x="324.8666666666667" y="53.53333333333333"/>
    </contour>
  </outline>
</glyph>
<glyph name="seven" format="2">
  <advance width="532.2333333333333"/>
  <unicode hex="0037"/>
  <outline>
    <contour>
      <point x="102.9" y="0.0" type="line"/>
      <point x="183.13333333333333" y="0.0" type="line"/>
      <point x="578.6" y="657.9333333333334" type="line"/>
      <point x="589.2333333333333" y="714.0" type="line"/>
      <point x="145.96666666666667" y="714.0" type="line"/>
      <point x="102.76666666666667" y="506.93333333333334" type="line"/>
      <point x="160.83333333333334" y="506.93333333333334" type="line"/>
      <point x="174.46666666666667" y="556.9333333333334" type="line" smooth="yes"/>
      <point x="183.46666666666667" y="589.9333333333334"/>
      <point x="206.0" y="608.3000000000001"/>
      <point x="239.43333333333334" y="608.3000000000001" type="curve" smooth="yes"/>
      <point x="478.4666666666667" y="608.3000000000001" type="line"/>
    </contour>
  </outline>
</glyph>
<glyph name="eight" format="2">
  <advance width="532.2333333333333"/>
  <unicode hex="0038"/>
  <outline>
    <contour>
      <point x="239.66666666666666" y="-10.0" type="curve" smooth="yes"/>
      <point x="387.2" y="-10.0"/>
      <point x="493.59999999999997" y="57.46666666666667"/>
      <point x="493.59999999999997" y="204.93333333333334" type="curve" smooth="yes"/>
      <point x="493.59999999999997" y="284.4666666666667"/>
      <point x="446.7333333333333" y="339.3666666666667"/>
      <point x="383.23333333333335" y="381.9" type="curve"/>
      <point x="477.8333333333333" y="427.3666666666667"/>
      <point x="543.1666666666667" y="478.1"/>
      <point x="543.1666666666667" y="580.2" type="curve" smooth="yes"/>
      <point x="543.1666666666667" y="662.7333333333333"/>
      <point x="474.6666666666667" y="724.0"/>
      <point x="357.8333333333333" y="724.0" type="curve" smooth="yes"/>
      <point x="186.10000000000002" y="724.0"/>
      <point x="119.13333333333334" y="636.0666666666666"/>
      <point x="119.13333333333334" y="534.6" type="curve" smooth="yes"/>
      <point x="119.13333333333334" y="465.8"/>
      <point x="154.46666666666667" y="404.6333333333333"/>
      <point x="205.96666666666667" y="362.3666666666667" type="curve"/>
      <point x="100.2" y="319.0"/>
      <point x="19.599999999999998" y="272.53333333333336"/>
      <point x="19.599999999999998" y="159.06666666666666" type="curve" smooth="yes"/>
      <point x="19.599999999999998" y="60.9"/>
      <point x="106.63333333333333" y="-10.0"/>
    </contour>
    <contour>
      <point x="244.0" y="46.9" type="curve" smooth="yes"/>
      <point x="183.23333333333332" y="46.9"/>
      <point x="147.26666666666665" y="88.53333333333333"/>
      <point x="147.26666666666665" y="155.06666666666666" type="curve" smooth="yes"/>
      <point x="147.26666666666665" y="239.26666666666668"/>
      <point x="190.7" y="293.73333333333335"/>
      <point x="261.93333333333334" y="325.83333333333337" type="curve"/>
      <point x="329.23333333333335" y="283.8333333333333"/>
      <point x="364.56666666666666" y="241.56666666666666"/>
      <point x="364.56666666666666" y="177.3" type="curve" smooth="yes"/>
      <point x="364.56666666666666" y="90.73333333333333"/>
      <point x="309.23333333333335" y="46.9"/>
    </contour>
    <contour>
      <point x="326.3666666666667" y="412.9" type="curve"/>
      <point x="276.23333333333335" y="446.9"/>
      <point x="250.53333333333333" y="489.8"/>
      <point x="250.53333333333333" y="541.0666666666666" type="curve" smooth="yes"/>
      <point x="250.53333333333333" y="617.9"/>
      <point x="294.5" y="666.7333333333333"/>
      <point x="352.1" y="666.7333333333333" type="curve" smooth="yes"/>
      <point x="400.6" y="666.7333333333333"/>
      <point x="423.40000000000003" y="626.8333333333334"/>
      <point x="423.40000000000003" y="573.9333333333334" type="curve" smooth="yes"/>
      <point x="423.40000000000003" y="508.8333333333333"/>
      <point x="398.23333333333335" y="454.3666666666667"/>
    </contour>
  </outline>
</glyph>
<glyph name="nine" format="2">
  <advance width="532.2333333333333"/>
  <unicode hex="0039"/>
  <outline>
    <contour>
      <point x="171.5666666666667" y="-10.0" type="curve" smooth="yes"/>
      <point x="430.90366666666665" y="-10.0"/>
      <point x="531.0666666666667" y="343.6333333333333"/>
      <point x="531.0666666666667" y="532.8666666666667" type="curve" smooth="yes"/>
      <point x="531.0666666666667" y="655.1999999999999"/>
      <point x="461.3" y="724.0"/>
      <point x="350.4666666666667" y="724.0" type="curve" smooth="yes"/>
      <point x="206.89633333333336" y="724.0"/>
      <point x="83.13333333333334" y="605.8"/>
      <point x="83.13333333333334" y="437.3333333333333" type="curve" smooth="yes"/>
      <point x="83.13333333333334" y="342.53333333333336"/>
      <point x="137.63333333333333" y="275.0"/>
      <point x="235.83333333333331" y="275.0" type="curve" smooth="yes"/>
      <point x="300.06666666666666" y="275.0"/>
      <point x="345.1333333333333" y="308.0"/>
      <point x="377.3" y="343.0" type="curve"/>
      <point x="327.76666666666665" y="157.83333333333334"/>
      <point x="273.96666666666664" y="51.53333333333333"/>
      <point x="182.93333333333334" y="51.53333333333333" type="curve" smooth="yes"/>
      <point x="127.69999999999999" y="51.53333333333333"/>
      <point x="106.63333333333334" y="109.9"/>
      <point x="106.36666666666667" y="160.9" type="curve"/>
      <point x="59.2" y="160.9"/>
      <point x="30.566666666666666" y="134.06666666666666"/>
      <point x="30.566666666666666" y="90.43333333333334" type="curve" smooth="yes"/>
      <point x="30.566666666666666" y="36.266666666666666"/>
      <point x="73.0" y="-10.0"/>
    </contour>
    <contour>
      <point x="285.73333333333335" y="345.16666666666663" type="curve" smooth="yes"/>
      <point x="245.13333333333333" y="345.16666666666663"/>
      <point x="219.43333333333334" y="378.06666666666666"/>
      <point x="219.43333333333334" y="441.2333333333333" type="curve" smooth="yes"/>
      <point x="219.43333333333334" y="545.3333333333334"/>
      <point x="270.5" y="658.8333333333334"/>
      <point x="340.3666666666667" y="658.8333333333334" type="curve" smooth="yes"/>
      <point x="378.96666666666664" y="658.8333333333334"/>
      <point x="406.6666666666667" y="623.9333333333334"/>
      <point x="406.6666666666667" y="539.2333333333333" type="curve" smooth="yes"/>
      <point x="406.6666666666667" y="508.2"/>
      <point x="399.6666666666667" y="457.3666666666667"/>
      <point x="390.93333333333334" y="423.9" type="curve"/>
      <point x="368.76666666666665" y="385.5333333333333"/>
      <point x="333.3333333333333" y="345.5333333333333"/>
    </contour>
  </outline>
</glyph>
<glyph name="colon" format="2">
  <advance width="337.83333333333337"/>
  <unicode hex="003A"/>
  <outline>
    <contour>
      <point x="205.3" y="381.56666666666666" type="curve" smooth="yes"/>
      <point x="245.46666666666667" y="381.56666666666666"/>
      <point x="289.0" y="404.56666666666666"/>
      <point x="289.0" y="470.8333333333333" type="curve" smooth="yes"/>
      <point x="289.0" y="518.7333333333333"/>
      <point x="256.56666666666666" y="541.0"/>
      <point x="213.13333333333335" y="541.0" type="curve" smooth="yes"/>
      <point x="162.70000000000002" y="541.0"/>
      <point x="129.8" y="505.0"/>
      <point x="129.8" y="452.4666666666667" type="curve" smooth="yes"/>
      <point x="129.8" y="405.6666666666667"/>
      <point x="160.6" y="381.56666666666666"/>
    </contour>
    <contour>
      <point x="117.66666666666667" y="-8.0" type="curve" smooth="yes"/>
      <point x="157.83333333333334" y="-8.0"/>
      <point x="201.36666666666667" y="15.0"/>
      <point x="201.36666666666667" y="81.26666666666667" type="curve" smooth="yes"/>
      <point x="201.36666666666667" y="129.16666666666669"/>
      <point x="168.93333333333334" y="151.43333333333334"/>
      <point x="125.5" y="151.43333333333334" type="curve" smooth="yes"/>
      <point x="75.06666666666666" y="151.43333333333334"/>
      <point x="42.166666666666664" y="115.43333333333334"/>
      <point x="42.166666666666664" y="62.89999999999999" type="curve" smooth="yes"/>
      <point x="42.166666666666664" y="16.099999999999998"/>
      <point x="72.96666666666667" y="-8.0"/>
    </contour>
  </outline>
</glyph>
<glyph name="semicolon" format="2">
  <advance width="337.4666666666667"/>
  <unicode hex="003B"/>
  <outline>
    <contour>
      <point x="-12.466666666666667" y="-150.63333333333333" type="line"/>
      <point x="126.2" y="-122.63333333333334"/>
      <point x="197.26666666666668" y="-39.63333333333333"/>
      <point x="197.26666666666668" y="61.266666666666666" type="curve" smooth="yes"/>
      <point x="197.26666666666668" y="118.16666666666667"/>
      <point x="161.5666666666667" y="150.43333333333334"/>
      <point x="117.23333333333333" y="150.43333333333334" type="curve" smooth="yes"/>
      <point x="79.06666666666668" y="150.43333333333334"/>
      <point x="45.53333333333333" y="124.80000000000001"/>
      <point x="45.53333333333333" y="81.06666666666666" type="curve" smooth="yes"/>
      <point x="45.53333333333333" y="25.266666666666666"/>
      <point x="95.66666666666667" y="25.53333333333333"/>
      <point x="95.66666666666667" y="-14.633333333333333" type="curve" smooth="yes"/>
      <point x="95.66666666666667" y="-54.36666666666667"/>
      <point x="62.86666666666667" y="-82.36666666666666"/>
      <point x="-1.4666666666666666" y="-98.73333333333332" type="curve"/>
    </contour>
    <contour>
      <point x="205.3" y="381.56666666666666" type="curve" smooth="yes"/>
      <point x="245.46666666666667" y="381.56666666666666"/>
      <point x="289.0" y="404.56666666666666"/>
      <point x="289.0" y="470.8333333333333" type="curve" smooth="yes"/>
      <point x="289.0" y="518.7333333333333"/>
      <point x="256.56666666666666" y="541.0"/>
      <point x="213.13333333333335" y="541.0" type="curve" smooth="yes"/>
      <point x="162.70000000000002" y="541.0"/>
      <point x="129.8" y="505.0"/>
      <point x="129.8" y="452.4666666666667" type="curve" smooth="yes"/>
      <point x="129.8" y="405.6666666666667"/>
      <point x="160.6" y="381.56666666666666"/>
    </contour>
  </outline>
</glyph>
<glyph name="equal" format="2">
  <advance width="509.8666666666667"/>
  <unicode hex="003D"/>
  <outline>
    <contour>
      <point x="63.0" y="417.16666666666663" type="line"/>
      <point x="466.6666666666667" y="417.16666666666663" type="line"/>
      <point x="466.6666666666667" y="486.0666666666667" type="line"/>
      <point x="63.0" y="486.0666666666667" type="line"/>
    </contour>
    <contour>
      <point x="63.0" y="227.93333333333334" type="line"/>
      <point x="466.6666666666667" y="227.93333333333334" type="line"/>
      <point x="466.6666666666667" y="296.83333333333337" type="line"/>
      <point x="63.0" y="296.83333333333337" type="line"/>
    </contour>
  </outline>
</glyph>
<glyph name="greater" format="2">
  <advance width="509.8666666666667"/>
  <unicode hex="003E"/>
  <outline>
    <contour>
      <point x="65.0" y="104.73333333333332" type="line"/>
      <point x="464.6666666666667" y="337.3666666666667" type="line"/>
      <point x="464.6666666666667" y="377.6333333333333" type="line"/>
      <point x="65.0" y="611.2666666666667" type="line"/>
      <point x="65.0" y="533.3666666666667" type="line"/>
      <point x="364.6333333333333" y="357.0" type="line"/>
      <point x="65.0" y="182.63333333333333" type="line"/>
    </contour>
  </outline>
</glyph>
<glyph name="question" format="2">
  <advance width="499.43333333333334"/>
  <unicode hex="003F"/>
  <outline>
    <contour>
      <point x="188.0" y="226.53333333333333" type="line"/>
      <point x="250.33333333333334" y="226.53333333333333" type="line"/>
      <point x="283.96666666666664" y="317.0" type="line"/>
      <point x="417.9" y="369.09999999999997"/>
      <point x="519.0333333333333" y="443.8333333333333"/>
      <point x="519.0333333333333" y="563.1333333333333" type="curve" smooth="yes"/>
      <point x="519.0333333333333" y="673.3666666666667"/>
      <point x="442.62966666666665" y="724.0"/>
      <point x="318.8" y="724.0" type="curve" smooth="yes"/>
      <point x="185.23333333333332" y="724.0"/>
      <point x="100.26666666666667" y="664.9"/>
      <point x="100.26666666666667" y="592.9" type="curve" smooth="yes"/>
      <point x="100.26666666666667" y="543.7333333333333"/>
      <point x="139.06666666666666" y="518.8333333333334"/>
      <point x="217.03333333333336" y="518.8333333333334" type="curve"/>
      <point x="226.4" y="594.8333333333334"/>
      <point x="249.29999999999998" y="664.1"/>
      <point x="306.8" y="664.1" type="curve" smooth="yes"/>
      <point x="343.40000000000003" y="664.1"/>
      <point x="370.73333333333335" y="628.2"/>
      <point x="370.73333333333335" y="564.7666666666667" type="curve" smooth="yes"/>
      <point x="370.73333333333335" y="453.2"/>
      <point x="297.40000000000003" y="395.3666666666667"/>
      <point x="185.63333333333333" y="351.6333333333333" type="curve"/>
    </contour>
    <contour>
      <point x="192.33333333333334" y="-8.0" type="curve" smooth="yes"/>
      <point x="232.50000000000003" y="-8.0"/>
      <point x="276.0333333333333" y="15.0"/>
      <point x="276.0333333333333" y="81.26666666666667" type="curve" smooth="yes"/>
      <point x="276.0333333333333" y="129.16666666666669"/>
      <point x="243.6" y="151.43333333333334"/>
      <point x="200.16666666666666" y="151.43333333333334" type="curve" smooth="yes"/>
      <point x="149.73333333333332" y="151.43333333333334"/>
      <point x="116.83333333333333" y="115.43333333333334"/>
      <point x="116.83333333333333" y="62.89999999999999" type="curve" smooth="yes"/>
      <point x="116.83333333333333" y="16.099999999999998"/>
      <point x="147.63333333333333" y="-8.0"/>
    </contour>
  </outline>
</glyph>
<glyph name="bracketleft" format="2">
  <advance width="388.3333333333333"/>
  <unicode hex="005B"/>
  <outline>
    <contour>
      <point x="18.433333333333334" y="-128.0" type="line"/>
      <point x="279.6666666666667" y="-128.0" type="line"/>
      <point x="290.6666666666667" y="-76.1" type="line"/>
      <point x="250.60000000000002" y="-76.1" type="line" smooth="yes"/>
      <point x="215.9" y="-76.1"/>
      <point x="187.46666666666667" y="-70.1"/>
      <point x="187.46666666666667" y="-30.93333333333333" type="curve" smooth="yes"/>
      <point x="187.46666666666667" y="-23.2"/>
      <point x="188.46666666666667" y="-14.466666666666665"/>
      <point x="190.46666666666667" y="-4.833333333333333" type="curve"/>
      <point x="325.4666666666667" y="636.1" type="line"/>
      <point x="338.4666666666667" y="699.1"/>
      <point x="376.53333333333336" y="708.1"/>
      <point x="417.23333333333335" y="708.1" type="curve" smooth="yes"/>
      <point x="457.3" y="708.1" type="line"/>
      <point x="468.6666666666667" y="760.0" type="line"/>
      <point x="207.43333333333334" y="760.0" type="line"/>
    </contour>
  </outline>
</glyph>
<glyph name="backslash" format="2">
  <advance width="267.83333333333337"/>
  <unicode hex="005C"/>
  <outline>
    <contour>
      <point x="152.83333333333331" y="-121.0" type="line"/>
      <point x="218.43333333333334" y="-121.0" type="line"/>
      <point x="175.06666666666666" y="760.0" type="line"/>
      <point x="109.1" y="760.0" type="line"/>
    </contour>
  </outline>
</glyph>
<glyph name="bracketright" format="2">
  <advance width="388.3333333333333"/>
  <unicode hex="005D"/>
  <outline>
    <contour>
      <point x="-51.9" y="-128.0" type="line"/>
      <point x="208.33333333333334" y="-128.0" type="line"/>
      <point x="396.96666666666664" y="760.0" type="line"/>
      <point x="136.1" y="760.0" type="line"/>
      <point x="125.1" y="708.1" type="line"/>
      <point x="165.16666666666669" y="708.1" type="line" smooth="yes"/>
      <point x="199.86666666666667" y="708.1"/>
      <point x="228.66666666666666" y="702.1"/>
      <point x="228.66666666666666" y="662.9333333333334" type="curve" smooth="yes"/>
      <point x="228.66666666666666" y="655.2"/>
      <point x="227.29999999999998" y="646.4666666666667"/>
      <point x="225.29999999999998" y="636.8333333333334" type="curve" smooth="yes"/>
      <point x="90.66666666666667" y="-4.1" type="line"/>
      <point x="77.66666666666667" y="-67.1"/>
      <point x="40.233333333333334" y="-76.1"/>
      <point x="-0.46666666666666645" y="-76.1" type="curve" smooth="yes"/>
      <point x="-40.53333333333333" y="-76.1" type="line"/>
    </contour>
  </outline>
</glyph>
<glyph name="asciicircum" format="2">
  <advance width="509.8666666666667"/>
  <unicode hex="005E"/>
  <outline>
    <contour>
      <point x="47.099999999999994" y="262.73333333333335" type="line"/>
      <point x="119.96666666666667" y="262.73333333333335" type="line"/>
      <point x="263.33333333333337" y="606.8333333333334" type="line"/>
      <point x="408.70000000000005" y="262.73333333333335" type="line"/>
      <point x="481.56666666666666" y="262.73333333333335" type="line"/>
      <point x="284.23333333333335" y="714.0" type="line"/>
      <point x="243.8" y="714.0" type="line"/>
    </contour>
  </outline>
</glyph>
<glyph name="underscore" format="2">
  <advance width="426.7333333333333"/>
  <unicode hex="005F"/>
  <outline>
    <contour>
      <point x="-86.96666666666665" y="-142.0" type="line"/>
      <point x="348.4" y="-142.0" type="line"/>
      <point x="361.4" y="-83.0" type="line"/>
      <point x="-73.96666666666665" y="-83.0" type="line"/>
    </contour>
  </outline>
</glyph>
<glyph name="braceleft" format="2">
  <advance width="411.93333333333334"/>
  <unicode hex="007B"/>
  <outline>
    <contour>
      <point x="220.76666666666668" y="-125.36666666666666" type="curve" smooth="yes"/>
      <point x="309.90000000000003" y="-125.36666666666666" type="line"/>
      <point x="321.90000000000003" y="-73.1" type="line"/>
      <point x="285.46666666666664" y="-73.1" type="line" smooth="yes"/>
      <point x="248.13333333333333" y="-73.1"/>
      <point x="234.23333333333335" y="-54.46666666666667"/>
      <point x="234.23333333333335" y="-21.2" type="curve" smooth="yes"/>
      <point x="234.23333333333335" y="-7.1"/>
      <point x="235.60000000000002" y="8.266666666666667"/>
      <point x="239.6" y="25.266666666666666" type="curve" smooth="yes"/>
      <point x="274.76666666666665" y="187.46666666666667" type="line" smooth="yes"/>
      <point x="277.5" y="199.66666666666666"/>
      <point x="280.33333333333337" y="214.16666666666666"/>
      <point x="280.33333333333337" y="226.46666666666667" type="curve" smooth="yes"/>
      <point x="280.33333333333337" y="270.1"/>
      <point x="254.53333333333336" y="299.73333333333335"/>
      <point x="199.66666666666666" y="315.0" type="curve"/>
      <point x="201.29999999999998" y="321.9" type="line"/>
      <point x="277.1666666666667" y="339.16666666666663"/>
      <point x="314.23333333333335" y="378.9"/>
      <point x="327.6" y="440.0" type="curve" smooth="yes"/>
      <point x="363.1333333333333" y="603.7666666666667" type="line" smooth="yes"/>
      <point x="378.6" y="674.8333333333334"/>
      <point x="397.5" y="708.1"/>
      <point x="450.09999999999997" y="708.1" type="curve" smooth="yes"/>
      <point x="486.90000000000003" y="708.1" type="line"/>
      <point x="498.2666666666667" y="760.0" type="line"/>
      <point x="414.2666666666667" y="760.0" type="line" smooth="yes"/>
      <point x="293.23333333333335" y="760.0"/>
      <point x="238.03333333333333" y="716.5666666666666"/>
      <point x="216.3" y="614.3666666666667" type="curve" smooth="yes"/>
      <point x="179.93333333333334" y="442.0" type="line" smooth="yes"/>
      <point x="163.93333333333334" y="366.26666666666665"/>
      <point x="113.96666666666667" y="349.9"/>
      <point x="52.733333333333334" y="347.9" type="curve"/>
      <point x="39.36666666666667" y="288.73333333333335" type="line"/>
      <point x="90.96666666666667" y="286.73333333333335"/>
      <point x="130.29999999999998" y="274.3666666666667"/>
      <point x="130.29999999999998" y="222.46666666666667" type="curve" smooth="yes"/>
      <point x="130.29999999999998" y="214.1"/>
      <point x="129.66666666666666" y="204.0"/>
      <point x="127.3" y="193.26666666666665" type="curve" smooth="yes"/>
      <point x="98.03333333333333" y="55.833333333333336" type="line" smooth="yes"/>
      <point x="89.03333333333333" y="12.2"/>
      <point x="87.3" y="-3.6333333333333333"/>
      <point x="87.3" y="-18.566666666666666" type="curve" smooth="yes"/>
      <point x="87.3" y="-85.46666666666665"/>
      <point x="132.73333333333335" y="-125.36666666666666"/>
    </contour>
  </outline>
</glyph>
<glyph name="bar" format="2">
  <advance width="521.2333333333333"/>
  <unicode hex="007C"/>
  <outline>
    <contour>
      <point x="233.83333333333331" y="-240.0" type="line"/>
      <point x="301.43333333333334" y="-240.0" type="line"/>
      <point x="301.43333333333334" y="760.0" type="line"/>
      <point x="233.83333333333331" y="760.0" type="line"/>
    </contour>
  </outline>
</glyph>
<glyph name="braceright" format="2">
  <advance width="411.93333333333334"/>
  <unicode hex="007D"/>
  <outline>
    <contour>
      <point x="-52.53333333333333" y="-124.73333333333332" type="line"/>
      <point x="31.1" y="-124.73333333333332" type="line" smooth="yes"/>
      <point x="153.6" y="-124.73333333333332"/>
      <point x="208.0666666666667" y="-80.56666666666668"/>
      <point x="229.43333333333334" y="21.266666666666666" type="curve" smooth="yes"/>
      <point x="265.43333333333334" y="193.26666666666665" type="line" smooth="yes"/>
      <point x="281.4333333333333" y="269.3666666666667"/>
      <point x="331.76666666666665" y="285.73333333333335"/>
      <point x="393.0" y="288.1" type="curve"/>
      <point x="406.3666666666667" y="346.9" type="line"/>
      <point x="354.76666666666665" y="348.9"/>
      <point x="315.06666666666666" y="360.9"/>
      <point x="315.06666666666666" y="413.1666666666667" type="curve" smooth="yes"/>
      <point x="315.06666666666666" y="422.26666666666665"/>
      <point x="316.43333333333334" y="432.0"/>
      <point x="318.43333333333334" y="442.3666666666667" type="curve" smooth="yes"/>
      <point x="350.2666666666667" y="593.0" type="line" smooth="yes"/>
      <point x="357.8" y="628.9333333333334"/>
      <point x="358.43333333333334" y="642.2"/>
      <point x="358.43333333333334" y="654.5666666666667" type="curve" smooth="yes"/>
      <point x="358.43333333333334" y="719.2666666666667"/>
      <point x="314.46666666666664" y="761.0"/>
      <point x="225.7" y="761.0" type="curve" smooth="yes"/>
      <point x="135.46666666666667" y="761.0" type="line"/>
      <point x="123.46666666666665" y="709.1" type="line"/>
      <point x="160.26666666666665" y="709.1" type="line" smooth="yes"/>
      <point x="197.6" y="709.1"/>
      <point x="211.13333333333333" y="690.8333333333334"/>
      <point x="211.13333333333333" y="658.3" type="curve" smooth="yes"/>
      <point x="211.13333333333333" y="642.3666666666667"/>
      <point x="209.76666666666668" y="627.3666666666667"/>
      <point x="205.76666666666665" y="610.3666666666667" type="curve" smooth="yes"/>
      <point x="170.6" y="445.96666666666664" type="line" smooth="yes"/>
      <point x="167.86666666666667" y="433.4"/>
      <point x="165.39999999999998" y="419.6333333333333"/>
      <point x="165.39999999999998" y="409.1666666666667" type="curve" smooth="yes"/>
      <point x="165.39999999999998" y="365.9"/>
      <point x="190.83333333333334" y="336.26666666666665"/>
      <point x="246.06666666666666" y="321.0" type="curve"/>
      <point x="244.06666666666666" y="313.3666666666667" type="line"/>
      <point x="168.2" y="295.73333333333335"/>
      <point x="130.76666666666665" y="256.3666666666667"/>
      <point x="117.76666666666667" y="195.63333333333333" type="curve" smooth="yes"/>
      <point x="80.76666666666667" y="25.266666666666666" type="line" smooth="yes"/>
      <point x="66.4" y="-39.56666666666666"/>
      <point x="48.6" y="-72.46666666666667"/>
      <point x="-4.366666666666666" y="-72.46666666666667" type="curve" smooth="yes"/>
      <point x="-41.166666666666664" y="-72.46666666666667" type="line"/>
    </contour>
  </outline>
</glyph>
<glyph name="asciitilde" format="2">
  <advance width="509.8666666666667"/>
  <unicode hex="007E"/>
  <outline>
    <contour>
      <point x="46.0" y="262.73333333333335" type="curve"/>
      <point x="115.7" y="262.73333333333335" type="line"/>
      <point x="117.43333333333334" y="344.46666666666664"/>
      <point x="135.6" y="379.46666666666664"/>
      <point x="171.93333333333334" y="379.46666666666664" type="curve" smooth="yes"/>
      <point x="191.93333333333334" y="379.46666666666664"/>
      <point x="202.66666666666666" y="368.26666666666665"/>
      <point x="243.9" y="327.73333333333335" type="curve" smooth="yes"/>
      <point x="294.43333333333334" y="276.79999999999995"/>
      <point x="323.8666666666667" y="262.73333333333335"/>
      <point x="362.1" y="262.73333333333335" type="curve" smooth="yes"/>
      <point x="451.7" y="262.73333333333335"/>
      <point x="480.5" y="347.93333333333334"/>
      <point x="483.76666666666665" y="450.26666666666665" type="curve"/>
      <point x="413.06666666666666" y="450.26666666666665" type="line"/>
      <point x="410.43333333333334" y="370.06666666666666"/>
      <point x="393.26666666666665" y="333.9"/>
      <point x="360.1" y="333.9" type="curve" smooth="yes"/>
      <point x="340.1" y="333.9"/>
      <point x="326.8333333333333" y="349.0"/>
      <point x="289.8666666666667" y="383.26666666666665" type="curve" smooth="yes"/>
      <point x="238.9" y="430.26666666666665"/>
      <point x="213.53333333333333" y="450.26666666666665"/>
      <point x="169.56666666666666" y="450.26666666666665" type="curve" smooth="yes"/>
      <point x="74.9" y="450.26666666666665"/>
      <point x="46.733333333333334" y="359.73333333333335"/>
    </contour>
  </outline>
</glyph>
<glyph name="twosuperior" format="2">
  <advance width="371.7666666666667"/>
  <unicode hex="00B2"/>
  <outline>
    <contour>
      <point x="60.1" y="386.0" type="line"/>
      <point x="359.8333333333333" y="386.0" type="line"/>
      <point x="387.46666666666664" y="523.8" type="line"/>
      <point x="351.03333333333336" y="523.8" type="line"/>
      <point x="343.4" y="502.79999999999995" type="line" smooth="yes"/>
      <point x="335.76666666666665" y="480.79999999999995"/>
      <point x="322.5" y="461.79999999999995"/>
      <point x="293.7" y="461.79999999999995" type="curve" smooth="yes"/>
      <point x="155.86666666666665" y="461.79999999999995" type="line"/>
      <point x="272.8" y="551.4333333333333" type="line" smooth="yes"/>
      <point x="381.03333333333336" y="634.2666666666667"/>
      <point x="414.93333333333334" y="678.3666666666667"/>
      <point x="414.93333333333334" y="734.7333333333333" type="curve" smooth="yes"/>
      <point x="414.93333333333334" y="788.3666666666667"/>
      <point x="366.7" y="824.0"/>
      <point x="289.56666666666666" y="824.0" type="curve" smooth="yes"/>
      <point x="199.16666666666669" y="824.0"/>
      <point x="143.46666666666667" y="782.8"/>
      <point x="143.46666666666667" y="729.9000000000001" type="curve" smooth="yes"/>
      <point x="143.46666666666667" y="700.2666666666668"/>
      <point x="170.26666666666665" y="680.0"/>
      <point x="213.6" y="680.0" type="curve"/>
      <point x="219.6" y="732.3666666666667"/>
      <point x="242.5" y="779.3666666666667"/>
      <point x="276.56666666666666" y="779.3666666666667" type="curve" smooth="yes"/>
      <point x="305.0" y="779.3666666666667"/>
      <point x="315.26666666666665" y="755.1"/>
      <point x="315.26666666666665" y="728.7333333333333" type="curve" smooth="yes"/>
      <point x="315.26666666666665" y="673.4666666666666"/>
      <point x="290.6333333333333" y="626.0999999999999"/>
      <point x="212.5666666666667" y="563.8" type="curve" smooth="yes"/>
      <point x="75.2" y="455.06666666666666" type="line"/>
    </contour>
  </outline>
</glyph>
<glyph name="threesuperior" format="2">
  <advance width="371.7666666666667"/>
  <unicode hex="00B3"/>
  <outline>
    <contour>
      <point x="205.93333333333334" y="380.0" type="curve" smooth="yes"/>
      <point x="312.8666666666667" y="380.0"/>
      <point x="393.46299999999997" y="428.73333333333335"/>
      <point x="393.46666666666664" y="518.7333333333333" type="curve" smooth="yes"/>
      <point x="393.46666666666664" y="572.2666666666667"/>
      <point x="357.1333333333333" y="603.0"/>
      <point x="300.9" y="610.0" type="curve"/>
      <point x="301.9" y="614.6333333333333" type="line"/>
      <point x="370.8666666666667" y="630.3666666666667"/>
      <point x="420.93333333333334" y="663.7333333333333"/>
      <point x="420.93333333333334" y="734.4666666666667" type="curve" smooth="yes"/>
      <point x="420.93333333333334" y="783.7333333333333"/>
      <point x="380.6" y="824.0"/>
      <point x="292.56666666666666" y="824.0" type="curve" smooth="yes"/>
      <point x="200.79999999999998" y="824.0"/>
      <point x="145.1" y="784.6333333333333"/>
      <point x="145.1" y="737.2666666666667" type="curve" smooth="yes"/>
      <point x="145.1" y="706.0"/>
      <point x="174.53333333333333" y="692.3666666666667"/>
      <point x="220.23333333333332" y="692.3666666666667" type="curve"/>
      <point x="226.86666666666667" y="738.0"/>
      <point x="244.3" y="778.6333333333333"/>
      <point x="285.4666666666667" y="778.6333333333333" type="curve" smooth="yes"/>
      <point x="309.2666666666667" y="778.6333333333333"/>
      <point x="321.26666666666665" y="760.0"/>
      <point x="321.26666666666665" y="734.0" type="curve" smooth="yes"/>
      <point x="321.26666666666665" y="668.7333333333333"/>
      <point x="274.46666666666664" y="630.0"/>
      <point x="221.4" y="630.0" type="curve" smooth="yes"/>
      <point x="189.96666666666667" y="630.0" type="line"/>
      <point x="181.6" y="583.7333333333333" type="line"/>
      <point x="212.4" y="583.7333333333333" type="line" smooth="yes"/>
      <point x="271.0" y="583.7333333333333"/>
      <point x="296.8" y="552.8333333333334"/>
      <point x="296.8" y="514.7333333333333" type="curve" smooth="yes"/>
      <point x="296.8" y="455.0"/>
      <point x="259.6333333333333" y="431.26666666666665"/>
      <point x="214.56666666666666" y="431.26666666666665" type="curve" smooth="yes"/>
      <point x="158.6" y="431.26666666666665"/>
      <point x="138.4333333333333" y="479.26666666666665"/>
      <point x="139.16666666666666" y="517.2666666666667" type="curve"/>
      <point x="99.0" y="517.2666666666667"/>
      <point x="68.46666666666667" y="496.26666666666665"/>
      <point x="68.46666666666667" y="459.9" type="curve" smooth="yes"/>
      <point x="68.46666666666667" y="411.0"/>
      <point x="114.8" y="380.0"/>
    </contour>
  </outline>
</glyph>
<glyph name="multiply" format="2">
  <advance width="509.8666666666667"/>
  <unicode hex="00D7"/>
  <outline>
    <contour>
      <point x="126.50000000000001" y="159.26666666666668" type="line"/>
      <point x="264.7" y="308.0" type="line"/>
      <point x="403.1666666666667" y="160.0" type="line"/>
      <point x="452.8" y="206.70000000000002" type="line"/>
      <point x="311.76666666666665" y="358.3666666666667" type="line"/>
      <point x="452.8" y="509.66666666666663" type="line"/>
      <point x="402.1666666666667" y="557.0" type="line"/>
      <point x="264.7" y="409.3666666666667" type="line"/>
      <point x="126.50000000000001" y="557.1" type="line"/>
      <point x="75.86666666666667" y="510.4" type="line"/>
      <point x="217.0" y="359.0" type="line"/>
      <point x="75.86666666666667" y="206.6" type="line"/>
    </contour>
  </outline>
</glyph>
<glyph name="divide" format="2">
  <advance width="509.8666666666667"/>
  <unicode hex="00F7"/>
  <outline>
    <contour>
      <point x="65.0" y="322.73333333333335" type="line"/>
      <point x="464.6666666666667" y="322.73333333333335" type="line"/>
      <point x="464.6666666666667" y="392.26666666666665" type="line"/>
      <point x="65.0" y="392.26666666666665" type="line"/>
    </contour>
    <contour>
      <point x="265.33333333333337" y="107.73333333333332" type="curve" smooth="yes"/>
      <point x="294.50000000000006" y="107.73333333333332"/>
      <point x="318.40000000000003" y="123.73333333333332"/>
      <point x="318.40000000000003" y="168.0" type="curve" smooth="yes"/>
      <point x="318.40000000000003" y="213.26666666666665"/>
      <point x="294.50000000000006" y="228.26666666666665"/>
      <point x="265.33333333333337" y="228.26666666666665" type="curve" smooth="yes"/>
      <point x="234.8" y="228.26666666666665"/>
      <point x="212.26666666666668" y="213.26666666666665"/>
      <point x="212.26666666666668" y="168.0" type="curve" smooth="yes"/>
      <point x="212.26666666666668" y="123.73333333333332"/>
      <point x="234.8" y="107.73333333333332"/>
    </contour>
    <contour>
      <point x="265.33333333333337" y="486.73333333333335" type="curve" smooth="yes"/>
      <point x="294.50000000000006" y="486.73333333333335"/>
      <point x="318.40000000000003" y="502.73333333333335"/>
      <point x="318.40000000000003" y="547.0" type="curve" smooth="yes"/>
      <point x="318.40000000000003" y="592.2666666666667"/>
      <point x="294.50000000000006" y="607.2666666666667"/>
      <point x="265.33333333333337" y="607.2666666666667" type="curve" smooth="yes"/>
      <point x="234.8" y="607.2666666666667"/>
      <point x="212.26666666666668" y="592.2666666666667"/>
      <point x="212.26666666666668" y="547.0" type="curve" smooth="yes"/>
      <point x="212.26666666666668" y="502.73333333333335"/>
      <point x="234.8" y="486.73333333333335"/>
    </contour>
  </outline>
</glyph>
<glyph name="udatta-deva" format="2">
  <unicode hex="0951"/>
  <anchor x="61.0" y="563.7333333333333" name="_vedic"/>
  <outline>
    <contour>
      <point x="104.03333333333333" y="932.5666666666667" type="line"/>
      <point x="175.06666666666666" y="932.5666666666667" type="line"/>
      <point x="218.33333333333331" y="1136.1" type="line"/>
      <point x="147.03333333333333" y="1136.1" type="line"/>
    </contour>
  </outline>
</glyph>
<glyph name="anudatta-deva" format="2">
  <unicode hex="0952"/>
  <anchor x="-59.0" y="0.0" name="_bottom"/>
  <outline>
    <contour>
      <point x="-370.7333333333333" y="-577.2" type="line"/>
      <point x="8.166666666666666" y="-577.2" type="line"/>
      <point x="26.433333333333334" y="-489.1333333333333" type="line"/>
      <point x="-352.46666666666664" y="-489.1333333333333" type="line"/>
    </contour>
  </outline>
</glyph>
<glyph name="danda-deva" format="2">
  <advance width="316.8666666666667"/>
  <unicode hex="0964"/>
  <outline>
    <contour>
      <point x="21.46666666666667" y="0.0" type="line"/>
      <point x="175.4" y="0.0" type="line"/>
      <point x="295.4" y="563.7333333333333" type="line"/>
      <point x="141.46666666666667" y="563.7333333333333" type="line"/>
    </contour>
  </outline>
</glyph>
<glyph name="dbldanda-deva" format="2">
  <advance width="581.2333333333333"/>
  <unicode hex="0965"/>
  <outline>
    <contour>
      <point x="286.46666666666664" y="0.0" type="line"/>
      <point x="439.7666666666667" y="0.0" type="line"/>
      <point x="559.7666666666667" y="563.7333333333333" type="line"/>
      <point x="405.8333333333333" y="563.7333333333333" type="line"/>
    </contour>
    <contour>
      <point x="21.46666666666667" y="0.0" type="line"/>
      <point x="175.4" y="0.0" type="line"/>
      <point x="295.4" y="563.7333333333333" type="line"/>
      <point x="141.46666666666667" y="563.7333333333333" type="line"/>
    </contour>
  </outline>
</glyph>
<glyph name="anusvara-tamil" format="2">
  <unicode hex="0B82"/>
  <note>
uni0B82
</note>
  <anchor x="61.0" y="563.7333333333333" name="_top"/>
  <outline>
    <contour>
      <point x="101.89999999999999" y="622.9333333333333" type="curve" smooth="yes"/>
      <point x="177.96666666666667" y="622.9333333333333"/>
      <point x="239.03333333333333" y="680.6333333333334"/>
      <point x="239.03333333333333" y="758.6" type="curve" smooth="yes"/>
      <point x="239.03333333333333" y="836.5666666666667"/>
      <point x="177.96666666666667" y="893.9"/>
      <point x="101.89999999999999" y="893.9" type="curve" smooth="yes"/>
      <point x="25.833333333333332" y="893.9"/>
      <point x="-35.233333333333334" y="836.5666666666667"/>
      <point x="-35.233333333333334" y="758.6" type="curve" smooth="yes"/>
      <point x="-35.233333333333334" y="680.6333333333334"/>
      <point x="25.833333333333332" y="622.9333333333333"/>
    </contour>
    <contour>
      <point x="101.89999999999999" y="697.3666666666667" type="curve" smooth="yes"/>
      <point x="69.73333333333333" y="697.3666666666667"/>
      <point x="42.56666666666666" y="724.1666666666666"/>
      <point x="42.56666666666666" y="758.6" type="curve" smooth="yes"/>
      <point x="42.56666666666666" y="792.4"/>
      <point x="69.73333333333333" y="819.1999999999999"/>
      <point x="101.89999999999999" y="819.1999999999999" type="curve" smooth="yes"/>
      <point x="134.06666666666666" y="819.1999999999999"/>
      <point x="161.23333333333335" y="792.4"/>
      <point x="161.23333333333335" y="758.6" type="curve" smooth="yes"/>
      <point x="161.23333333333335" y="724.1666666666666"/>
      <point x="134.06666666666666" y="697.3666666666667"/>
    </contour>
  </outline>
</glyph>
<glyph name="visarga-tamil" format="2">
  <advance width="841.3333333333334"/>
  <unicode hex="0B83"/>
  <note>
uni0B83
</note>
  <outline>
    <contour>
      <point x="159.36666666666667" y="-5.0" type="curve" smooth="yes"/>
      <point x="278.0333333333333" y="-5.0"/>
      <point x="361.53333333333336" y="91.89999999999999"/>
      <point x="361.53333333333336" y="220.16666666666666" type="curve" smooth="yes"/>
      <point x="361.53333333333336" y="318.93333333333334"/>
      <point x="304.6" y="373.0"/>
      <point x="212.33333333333334" y="373.0" type="curve" smooth="yes"/>
      <point x="98.53333333333333" y="373.0"/>
      <point x="21.6" y="266.5"/>
      <point x="21.6" y="145.83333333333334" type="curve" smooth="yes"/>
      <point x="21.6" y="62.4"/>
      <point x="67.03333333333333" y="-5.0"/>
    </contour>
    <contour>
      <point x="148.3" y="56.03333333333334" type="curve" smooth="yes"/>
      <point x="103.73333333333333" y="56.03333333333334"/>
      <point x="84.66666666666667" y="96.89999999999999"/>
      <point x="84.66666666666667" y="150.76666666666668" type="curve" smooth="yes"/>
      <point x="84.66666666666667" y="233.0"/>
      <point x="128.0" y="313.06666666666666"/>
      <point x="190.86666666666667" y="313.06666666666666" type="curve" smooth="yes"/>
      <point x="233.9" y="313.06666666666666"/>
      <point x="254.4" y="284.1666666666667"/>
      <point x="254.4" y="226.23333333333335" type="curve" smooth="yes"/>
      <point x="254.4" y="130.53333333333333"/>
      <point x="212.5" y="56.03333333333334"/>
    </contour>
    <contour>
      <point x="578.6333333333333" y="-5.0" type="curve" smooth="yes"/>
      <point x="697.3000000000001" y="-5.0"/>
      <point x="780.8000000000001" y="91.89999999999999"/>
      <point x="780.8000000000001" y="220.16666666666666" type="curve" smooth="yes"/>
      <point x="780.8000000000001" y="318.93333333333334"/>
      <point x="723.8666666666667" y="373.0"/>
      <point x="631.6" y="373.0" type="curve" smooth="yes"/>
      <point x="517.8" y="373.0"/>
      <point x="440.8666666666666" y="266.5"/>
      <point x="440.8666666666666" y="145.83333333333334" type="curve" smooth="yes"/>
      <point x="440.8666666666666" y="62.4"/>
      <point x="486.3" y="-5.0"/>
    </contour>
    <contour>
      <point x="567.5666666666667" y="56.03333333333334" type="curve" smooth="yes"/>
      <point x="523.0000000000001" y="56.03333333333334"/>
      <point x="503.93333333333334" y="96.89999999999999"/>
      <point x="503.93333333333334" y="150.76666666666668" type="curve" smooth="yes"/>
      <point x="503.93333333333334" y="233.0"/>
      <point x="547.2666666666667" y="313.06666666666666"/>
      <point x="610.1333333333334" y="313.06666666666666" type="curve" smooth="yes"/>
      <point x="653.1666666666667" y="313.06666666666666"/>
      <point x="673.6666666666666" y="284.1666666666667"/>
      <point x="673.6666666666666" y="226.23333333333335" type="curve" smooth="yes"/>
      <point x="673.6666666666666" y="130.53333333333333"/>
      <point x="631.7666666666667" y="56.03333333333334"/>
    </contour>
    <contour>
      <point x="457.6666666666667" y="432.5" type="curve" smooth="yes"/>
      <point x="576.3333333333334" y="432.5"/>
      <point x="659.8333333333334" y="529.4"/>
      <point x="659.8333333333334" y="657.6666666666667" type="curve" smooth="yes"/>
      <point x="659.8333333333334" y="756.4333333333333"/>
      <point x="602.9000000000001" y="810.5"/>
      <point x="510.6333333333333" y="810.5" type="curve" smooth="yes"/>
      <point x="396.83333333333337" y="810.5"/>
      <point x="319.9" y="704.0"/>
      <point x="319.9" y="583.3333333333334" type="curve" smooth="yes"/>
      <point x="319.9" y="499.90000000000003"/>
      <point x="365.3333333333333" y="432.5"/>
    </contour>
    <contour>
      <point x="446.6" y="493.5333333333333" type="curve" smooth="yes"/>
      <point x="402.03333333333336" y="493.5333333333333"/>
      <point x="382.9666666666667" y="534.4000000000001"/>
      <point x="382.9666666666667" y="588.2666666666667" type="curve" smooth="yes"/>
      <point x="382.9666666666667" y="670.5"/>
      <point x="426.3" y="750.5666666666666"/>
      <point x="489.1666666666667" y="750.5666666666666" type="curve" smooth="yes"/>
      <point x="532.2" y="750.5666666666666"/>
      <point x="552.7" y="721.6666666666666"/>
      <point x="552.7" y="663.7333333333333" type="curve" smooth="yes"/>
      <point x="552.7" y="568.0333333333333"/>
      <point x="510.8" y="493.5333333333333"/>
    </contour>
  </outline>
</glyph>
<glyph name="a-tamil" format="2">
  <advance width="1246.0666666666668"/>
  <unicode hex="0B85"/>
  <note>
uni0B85
</note>
  <anchor x="536.9333333333333" y="0.0" name="bottom"/>
  <anchor x="335.6333333333333" y="-146.96666666666667" name="nukta"/>
  <anchor x="651.0" y="563.7333333333333" name="top"/>
  <anchor x="651.7333333333333" y="563.7333333333333" name="vedic"/>
  <outline>
    <contour>
      <point x="910.3" y="-218.83333333333334" type="line"/>
      <point x="1061.4333333333332" y="-218.83333333333334" type="line"/>
      <point x="1227.6" y="563.7333333333333" type="line"/>
      <point x="1076.8333333333333" y="563.7333333333333" type="line"/>
      <point x="992.1" y="164.63333333333333" type="line"/>
      <point x="85.93333333333332" y="164.63333333333333" type="line" smooth="yes"/>
      <point x="20.633333333333333" y="164.63333333333333"/>
      <point x="-17.0" y="120.46666666666667"/>
      <point x="-17.0" y="61.66666666666667" type="curve" smooth="yes"/>
      <point x="-17.0" y="-41.43333333333333"/>
      <point x="112.73333333333333" y="-146.96666666666667"/>
      <point x="343.8666666666667" y="-146.96666666666667" type="curve" smooth="yes"/>
      <point x="652.4333333333333" y="-146.96666666666667"/>
      <point x="898.4000000000001" y="2.966666666666666"/>
      <point x="898.4000000000001" y="285.83333333333337" type="curve" smooth="yes"/>
      <point x="898.4000000000001" y="472.3"/>
      <point x="762.3333333333334" y="568.7333333333333"/>
      <point x="597.8" y="568.7333333333333" type="curve" smooth="yes"/>
      <point x="450.8" y="568.7333333333333"/>
      <point x="338.2" y="483.4666666666667"/>
      <point x="338.2" y="357.6333333333333" type="curve" smooth="yes"/>
      <point x="338.2" y="284.46666666666664"/>
      <point x="391.26666666666665" y="222.66666666666666"/>
      <point x="481.6333333333333" y="222.66666666666666" type="curve" smooth="yes"/>
      <point x="582.4" y="222.66666666666666"/>
      <point x="651.4666666666667" y="282.5666666666667"/>
      <point x="651.4666666666667" y="376.1333333333333" type="curve" smooth="yes"/>
      <point x="651.4666666666667" y="446.8333333333333"/>
      <point x="609.3333333333334" y="500.7666666666667"/>
      <point x="544.2666666666667" y="521.0333333333333" type="curve"/>
      <point x="485.3666666666667" y="516.0333333333333" type="line"/>
      <point x="521.4333333333334" y="496.93333333333334"/>
      <point x="551.4666666666667" y="452.09999999999997"/>
      <point x="551.4666666666667" y="401.5" type="curve" smooth="yes"/>
      <point x="551.4666666666667" y="344.3"/>
      <point x="521.5666666666667" y="302.43333333333334"/>
      <point x="467.6666666666667" y="302.43333333333334" type="curve" smooth="yes"/>
      <point x="437.8666666666667" y="302.43333333333334"/>
      <point x="408.8" y="325.2"/>
      <point x="408.8" y="365.7333333333333" type="curve" smooth="yes"/>
      <point x="408.8" y="448.0"/>
      <point x="481.1333333333333" y="506.73333333333335"/>
      <point x="579.5999999999999" y="506.73333333333335" type="curve" smooth="yes"/>
      <point x="678.9333333333334" y="506.73333333333335"/>
      <point x="754.7333333333333" y="438.93333333333334"/>
      <point x="754.7333333333333" y="314.53333333333336" type="curve" smooth="yes"/>
      <point x="754.7333333333333" y="69.60000000000001"/>
      <point x="582.7666666666667" y="-84.96666666666667"/>
      <point x="337.8666666666667" y="-84.96666666666667" type="curve" smooth="yes"/>
      <point x="157.6" y="-84.96666666666667"/>
      <point x="50.63333333333333" y="-6.766666666666667"/>
      <point x="50.63333333333333" y="63.56666666666667" type="curve" smooth="yes"/>
      <point x="50.63333333333333" y="89.2"/>
      <point x="60.36666666666667" y="103.63333333333334"/>
      <point x="89.6" y="103.63333333333334" type="curve" smooth="yes"/>
      <point x="979.1" y="103.63333333333334" type="line"/>
    </contour>
  </outline>
</glyph>
<glyph name="aa-tamil" format="2">
  <advance width="1455.2333333333333"/>
  <unicode hex="0B86"/>
  <note>
uni0B86
</note>
  <anchor x="663.0666666666667" y="0.0" name="bottom"/>
  <anchor x="330.1333333333333" y="-146.96666666666667" name="nukta"/>
  <anchor x="781.6333333333333" y="563.7333333333333" name="top"/>
  <anchor x="782.6333333333333" y="563.7333333333333" name="vedic"/>
  <outline>
    <contour>
      <point x="841.9333333333333" y="-440.93333333333334" type="curve" smooth="yes"/>
      <point x="1114.8666666666668" y="-440.93333333333334"/>
      <point x="1361.4666666666667" y="-289.1333333333334"/>
      <point x="1361.4666666666667" y="-54.56666666666666" type="curve" smooth="yes"/>
      <point x="1361.4666666666667" y="36.733333333333334"/>
      <point x="1310.2333333333333" y="83.63333333333334"/>
      <point x="1239.0" y="83.63333333333334" type="curve" smooth="yes"/>
      <point x="1160.4" y="83.63333333333334"/>
      <point x="1095.0666666666666" y="26.73333333333333"/>
      <point x="1058.2666666666667" y="-94.03333333333335" type="curve"/>
      <point x="1084.0666666666666" y="-101.4" type="line"/>
      <point x="1096.3333333333333" y="-42.96666666666666"/>
      <point x="1129.6333333333334" y="-22.8"/>
      <point x="1161.2666666666667" y="-22.8" type="curve" smooth="yes"/>
      <point x="1194.2333333333333" y="-22.8"/>
      <point x="1215.6666666666667" y="-44.333333333333336"/>
      <point x="1215.6666666666667" y="-84.56666666666666" type="curve" smooth="yes"/>
      <point x="1215.6666666666667" y="-244.36666666666667"/>
      <point x="1041.7333333333333" y="-380.3"/>
      <point x="844.5" y="-380.3" type="curve" smooth="yes"/>
      <point x="750.7666666666667" y="-380.3"/>
      <point x="684.6333333333333" y="-350.7"/>
      <point x="684.6333333333333" y="-284.93333333333334" type="curve" smooth="yes"/>
      <point x="684.6333333333333" y="-230.6"/>
      <point x="734.0333333333334" y="-201.63333333333333"/>
      <point x="803.5333333333334" y="-187.53333333333333" type="curve"/>
      <point x="793.3333333333334" y="-129.73333333333335" type="line"/>
      <point x="691.6666666666667" y="-151.56666666666666"/>
      <point x="621.2666666666667" y="-202.13333333333333"/>
      <point x="621.2666666666667" y="-293.56666666666666" type="curve" smooth="yes"/>
      <point x="621.2666666666667" y="-384.8666666666666"/>
      <point x="710.4" y="-440.93333333333334"/>
    </contour>
    <component base="a-tamil"/>
  </outline>
</glyph>
<glyph name="i-tamil" format="2">
  <advance width="971.5"/>
  <unicode hex="0B87"/>
  <note>
uni0B87
</note>
  <anchor x="408.1" y="0.0" name="bottom"/>
  <anchor x="346.46666666666664" y="-278.9" name="nukta"/>
  <anchor x="551.4" y="851.2666666666667" name="top"/>
  <anchor x="523.5666666666667" y="563.7333333333333" name="vedic"/>
  <outline>
    <contour>
      <point x="106.03333333333333" y="-320.96666666666664" type="curve" smooth="yes"/>
      <point x="433.5" y="-320.96666666666664"/>
      <point x="757.6666666666666" y="-8.566666666666668"/>
      <point x="757.6666666666666" y="316.90000000000003" type="curve" smooth="yes"/>
      <point x="757.6666666666666" y="484.76666666666665"/>
      <point x="647.8000000000001" y="568.7333333333333"/>
      <point x="496.3333333333333" y="568.7333333333333" type="curve" smooth="yes"/>
      <point x="360.1333333333333" y="568.7333333333333"/>
      <point x="246.1" y="486.2333333333333"/>
      <point x="246.1" y="359.06666666666666" type="curve" smooth="yes"/>
      <point x="246.1" y="287.96666666666664"/>
      <point x="298.0" y="229.0"/>
      <point x="379.93333333333334" y="229.0" type="curve" smooth="yes"/>
      <point x="475.7" y="229.0"/>
      <point x="548.0333333333333" y="286.2"/>
      <point x="548.0333333333333" y="381.4666666666667" type="curve" smooth="yes"/>
      <point x="548.0333333333333" y="450.0"/>
      <point x="500.90000000000003" y="510.1666666666667"/>
      <point x="428.53333333333336" y="527.7333333333333" type="curve"/>
      <point x="383.1333333333333" y="520.6333333333333" type="line"/>
      <point x="418.53333333333336" y="498.2"/>
      <point x="447.0333333333333" y="453.43333333333334"/>
      <point x="447.0333333333333" y="404.09999999999997" type="curve" smooth="yes"/>
      <point x="447.0333333333333" y="350.26666666666665"/>
      <point x="420.1333333333333" y="307.5"/>
      <point x="366.8666666666667" y="307.5" type="curve" smooth="yes"/>
      <point x="332.8" y="307.5"/>
      <point x="311.3666666666667" y="333.33333333333337"/>
      <point x="311.3666666666667" y="369.59999999999997" type="curve" smooth="yes"/>
      <point x="311.3666666666667" y="450.96666666666664"/>
      <point x="384.3" y="507.3666666666667"/>
      <point x="476.8666666666667" y="507.3666666666667" type="curve" smooth="yes"/>
      <point x="569.7" y="507.3666666666667"/>
      <point x="613.1333333333333" y="438.59999999999997"/>
      <point x="613.1333333333333" y="331.6" type="curve" smooth="yes"/>
      <point x="613.1333333333333" y="41.53333333333333"/>
      <point x="385.2666666666667" y="-258.6"/>
      <point x="117.56666666666666" y="-258.6" type="curve" smooth="yes"/>
      <point x="53.9" y="-258.6"/>
      <point x="11.233333333333334" y="-231.33333333333334"/>
      <point x="11.233333333333334" y="-170.46666666666667" type="curve" smooth="yes"/>
      <point x="11.233333333333334" y="-32.63333333333333"/>
      <point x="208.83333333333334" y="47.1"/>
      <point x="397.8333333333333" y="47.1" type="curve" smooth="yes"/>
      <point x="567.8333333333334" y="47.1"/>
      <point x="741.5666666666666" y="-24.333333333333332"/>
      <point x="741.5666666666666" y="-145.0" type="curve" smooth="yes"/>
      <point x="741.5666666666666" y="-226.5"/>
      <point x="683.6333333333333" y="-258.6"/>
      <point x="596.8" y="-258.6" type="curve" smooth="yes"/>
      <point x="364.3666666666667" y="-258.6"/>
      <point x="131.03333333333333" y="12.933333333333334"/>
      <point x="131.03333333333333" y="293.06666666666666" type="curve" smooth="yes"/>
      <point x="131.03333333333333" y="545.0333333333333"/>
      <point x="277.4" y="731.4666666666667"/>
      <point x="538.2333333333333" y="731.4666666666667" type="curve" smooth="yes"/>
      <point x="781.0" y="731.4666666666667"/>
      <point x="917.1999999999999" y="572.4666666666666"/>
      <point x="860.8000000000001" y="312.06666666666666" type="curve" smooth="yes"/>
      <point x="815.2" y="100.7" type="line"/>
      <point x="882.0" y="100.7" type="line"/>
      <point x="929.6" y="319.8666666666667" type="line" smooth="yes"/>
      <point x="999.7333333333333" y="640.8333333333334"/>
      <point x="847.3" y="851.2666666666667"/>
      <point x="551.4" y="851.2666666666667" type="curve" smooth="yes"/>
      <point x="239.03333333333333" y="851.2666666666667"/>
      <point x="67.93333333333334" y="613.9"/>
      <point x="67.93333333333334" y="309.1333333333333" type="curve" smooth="yes"/>
      <point x="67.93333333333334" y="-25.433333333333334"/>
      <point x="322.1666666666667" y="-320.3333333333333"/>
      <point x="607.7666666666667" y="-320.3333333333333" type="curve" smooth="yes"/>
      <point x="724.3666666666667" y="-320.3333333333333"/>
      <point x="811.0333333333334" y="-262.96666666666664"/>
      <point x="811.0333333333334" y="-143.9333333333333" type="curve" smooth="yes"/>
      <point x="811.0333333333334" y="18.3"/>
      <point x="616.7333333333333" y="107.0"/>
      <point x="405.6333333333333" y="107.0" type="curve" smooth="yes"/>
      <point x="171.7" y="107.0"/>
      <point x="-59.766666666666666" y="5.800000000000001"/>
      <point x="-59.766666666666666" y="-181.8" type="curve" smooth="yes"/>
      <point x="-59.766666666666666" y="-269.23333333333335"/>
      <point x="6.0" y="-320.96666666666664"/>
    </contour>
  </outline>
</glyph>
<glyph name="ii-tamil" format="2">
  <advance width="809.1333333333333"/>
  <unicode hex="0B88"/>
  <note>
uni0B88
</note>
  <anchor x="352.8" y="0.0" name="bottom"/>
  <anchor x="352.79999999999995" y="0.0" name="nukta"/>
  <anchor x="474.53333333333336" y="563.7333333333333" name="top"/>
  <anchor x="475.1666666666667" y="563.7333333333333" name="vedic"/>
  <outline>
    <contour>
      <point x="19.1" y="0.0" type="line"/>
      <point x="86.26666666666668" y="0.0" type="line"/>
      <point x="193.26666666666668" y="503.1" type="line"/>
      <point x="450.5" y="503.1" type="line"/>
      <point x="343.5" y="0.0" type="line"/>
      <point x="495.6333333333333" y="0.0" type="line"/>
      <point x="602.6333333333333" y="503.1" type="line"/>
      <point x="810.6999999999999" y="503.1" type="line"/>
      <point x="823.0666666666666" y="563.7333333333333" type="line"/>
      <point x="139.1" y="563.7333333333333" type="line"/>
    </contour>
    <contour>
      <point x="270.5666666666667" y="193.79999999999998" type="curve" smooth="yes"/>
      <point x="312.1666666666667" y="193.79999999999998"/>
      <point x="346.6" y="227.5"/>
      <point x="346.6" y="267.46666666666664" type="curve" smooth="yes"/>
      <point x="346.6" y="306.43333333333334"/>
      <point x="312.1666666666667" y="339.76666666666665"/>
      <point x="270.5666666666667" y="339.76666666666665" type="curve" smooth="yes"/>
      <point x="228.96666666666667" y="339.76666666666665"/>
      <point x="194.9" y="306.43333333333334"/>
      <point x="194.9" y="267.46666666666664" type="curve" smooth="yes"/>
      <point x="194.9" y="227.5"/>
      <point x="228.96666666666667" y="193.79999999999998"/>
    </contour>
    <contour>
      <point x="679.3" y="193.79999999999998" type="curve" smooth="yes"/>
      <point x="720.9" y="193.79999999999998"/>
      <point x="755.3333333333333" y="227.5"/>
      <point x="755.3333333333333" y="267.46666666666664" type="curve" smooth="yes"/>
      <point x="755.3333333333333" y="306.43333333333334"/>
      <point x="720.9" y="339.76666666666665"/>
      <point x="679.3" y="339.76666666666665" type="curve" smooth="yes"/>
      <point x="637.6999999999999" y="339.76666666666665"/>
      <point x="603.6333333333333" y="306.43333333333334"/>
      <point x="603.6333333333333" y="267.46666666666664" type="curve" smooth="yes"/>
      <point x="603.6333333333333" y="227.5"/>
      <point x="637.6999999999999" y="193.79999999999998"/>
    </contour>
  </outline>
</glyph>
<glyph name="u-tamil" format="2">
  <advance width="904.5"/>
  <unicode hex="0B89"/>
  <note>
uni0B89
</note>
  <anchor x="400.06666666666666" y="0.0" name="bottom"/>
  <anchor x="400.06666666666666" y="0.0" name="nukta"/>
  <anchor x="523.4333333333333" y="563.7333333333333" name="top"/>
  <anchor x="522.4333333333334" y="563.7333333333333" name="vedic"/>
  <outline>
    <contour>
      <point x="81.96666666666667" y="0.0" type="curve" smooth="yes"/>
      <point x="833.9333333333333" y="0.0" type="line"/>
      <point x="846.9333333333333" y="61.0" type="line"/>
      <point x="91.5" y="61.0" type="line" smooth="yes"/>
      <point x="74.5" y="61.0"/>
      <point x="56.86666666666667" y="71.36666666666667"/>
      <point x="56.86666666666667" y="93.1" type="curve" smooth="yes"/>
      <point x="56.86666666666667" y="116.3"/>
      <point x="74.23333333333333" y="130.46666666666667"/>
      <point x="97.4" y="130.46666666666667" type="curve" smooth="yes"/>
      <point x="338.96666666666664" y="130.46666666666667" type="line" smooth="yes"/>
      <point x="521.6333333333333" y="130.46666666666667"/>
      <point x="662.0" y="207.0666666666667"/>
      <point x="662.0" y="370.03333333333336" type="curve" smooth="yes"/>
      <point x="662.0" y="502.3"/>
      <point x="544.7" y="568.7333333333333"/>
      <point x="396.83333333333337" y="568.7333333333333" type="curve" smooth="yes"/>
      <point x="239.79999999999998" y="568.7333333333333"/>
      <point x="128.0" y="477.90000000000003"/>
      <point x="128.0" y="364.79999999999995" type="curve" smooth="yes"/>
      <point x="128.0" y="296.1666666666667"/>
      <point x="175.33333333333334" y="238.93333333333334"/>
      <point x="258.96666666666664" y="238.93333333333334" type="curve" smooth="yes"/>
      <point x="367.5" y="238.93333333333334"/>
      <point x="427.8" y="306.73333333333335"/>
      <point x="427.8" y="387.9666666666667" type="curve" smooth="yes"/>
      <point x="427.8" y="448.8666666666667"/>
      <point x="386.0333333333333" y="507.29999999999995"/>
      <point x="322.7666666666667" y="521.0333333333333" type="curve"/>
      <point x="268.8333333333333" y="516.4" type="line"/>
      <point x="308.26666666666665" y="494.1333333333333"/>
      <point x="331.8666666666667" y="452.56666666666666"/>
      <point x="331.8666666666667" y="406.76666666666665" type="curve" smooth="yes"/>
      <point x="331.8666666666667" y="349.29999999999995"/>
      <point x="299.53333333333336" y="310.9"/>
      <point x="253.26666666666668" y="310.9" type="curve" smooth="yes"/>
      <point x="218.93333333333334" y="310.9"/>
      <point x="198.60000000000002" y="340.59999999999997"/>
      <point x="198.60000000000002" y="374.76666666666665" type="curve" smooth="yes"/>
      <point x="198.60000000000002" y="434.56666666666666"/>
      <point x="247.56666666666666" y="507.46666666666664"/>
      <point x="377.73333333333335" y="507.46666666666664" type="curve" smooth="yes"/>
      <point x="458.6666666666667" y="507.46666666666664"/>
      <point x="515.9" y="467.1333333333333"/>
      <point x="515.9" y="378.40000000000003" type="curve" smooth="yes"/>
      <point x="515.9" y="263.7666666666667"/>
      <point x="442.93333333333334" y="189.1"/>
      <point x="326.9" y="189.1" type="curve" smooth="yes"/>
      <point x="109.2" y="189.1" type="line" smooth="yes"/>
      <point x="38.599999999999994" y="189.1"/>
      <point x="-6.3" y="149.83333333333331"/>
      <point x="-6.3" y="88.46666666666667" type="curve" smooth="yes"/>
      <point x="-6.3" y="39.099999999999994"/>
      <point x="25.6" y="0.0"/>
    </contour>
  </outline>
</glyph>
<glyph name="uu-tamil" format="2">
  <advance width="1635.7333333333333"/>
  <unicode hex="0B8A"/>
  <note>
uni0B8A
</note>
  <anchor x="777.1333333333334" y="0.0" name="bottom"/>
  <anchor x="777.1333333333334" y="0.0" name="nukta"/>
  <anchor x="898.4000000000001" y="563.7333333333333" name="top"/>
  <anchor x="899.5000000000001" y="563.7333333333333" name="vedic"/>
  <outline>
    <contour>
      <point x="81.96666666666667" y="0.0" type="curve" smooth="yes"/>
      <point x="1524.6" y="0.0" type="line"/>
      <point x="1537.6000000000001" y="61.0" type="line"/>
      <point x="91.5" y="61.0" type="line" smooth="yes"/>
      <point x="74.5" y="61.0"/>
      <point x="56.86666666666667" y="71.36666666666667"/>
      <point x="56.86666666666667" y="93.1" type="curve" smooth="yes"/>
      <point x="56.86666666666667" y="116.3"/>
      <point x="74.23333333333333" y="130.46666666666667"/>
      <point x="97.4" y="130.46666666666667" type="curve" smooth="yes"/>
      <point x="338.96666666666664" y="130.46666666666667" type="line" smooth="yes"/>
      <point x="521.6333333333333" y="130.46666666666667"/>
      <point x="662.0" y="207.0666666666667"/>
      <point x="662.0" y="370.03333333333336" type="curve" smooth="yes"/>
      <point x="662.0" y="502.3"/>
      <point x="544.7" y="568.7333333333333"/>
      <point x="396.83333333333337" y="568.7333333333333" type="curve" smooth="yes"/>
      <point x="239.79999999999998" y="568.7333333333333"/>
      <point x="128.0" y="477.90000000000003"/>
      <point x="128.0" y="364.79999999999995" type="curve" smooth="yes"/>
      <point x="128.0" y="296.1666666666667"/>
      <point x="175.33333333333334" y="238.93333333333334"/>
      <point x="258.96666666666664" y="238.93333333333334" type="curve" smooth="yes"/>
      <point x="367.5" y="238.93333333333334"/>
      <point x="427.8" y="306.73333333333335"/>
      <point x="427.8" y="387.9666666666667" type="curve" smooth="yes"/>
      <point x="427.8" y="448.8666666666667"/>
      <point x="386.0333333333333" y="507.29999999999995"/>
      <point x="322.7666666666667" y="521.0333333333333" type="curve"/>
      <point x="268.8333333333333" y="516.4" type="line"/>
      <point x="308.26666666666665" y="494.1333333333333"/>
      <point x="331.8666666666667" y="452.56666666666666"/>
      <point x="331.8666666666667" y="406.76666666666665" type="curve" smooth="yes"/>
      <point x="331.8666666666667" y="349.29999999999995"/>
      <point x="299.53333333333336" y="310.9"/>
      <point x="253.26666666666668" y="310.9" type="curve" smooth="yes"/>
      <point x="218.93333333333334" y="310.9"/>
      <point x="198.60000000000002" y="340.59999999999997"/>
      <point x="198.60000000000002" y="374.76666666666665" type="curve" smooth="yes"/>
      <point x="198.60000000000002" y="434.56666666666666"/>
      <point x="247.56666666666666" y="507.46666666666664"/>
      <point x="377.73333333333335" y="507.46666666666664" type="curve" smooth="yes"/>
      <point x="458.6666666666667" y="507.46666666666664"/>
      <point x="515.9" y="467.1333333333333"/>
      <point x="515.9" y="378.40000000000003" type="curve" smooth="yes"/>
      <point x="515.9" y="263.7666666666667"/>
      <point x="442.93333333333334" y="189.1"/>
      <point x="326.9" y="189.1" type="curve" smooth="yes"/>
      <point x="109.2" y="189.1" type="line" smooth="yes"/>
      <point x="38.599999999999994" y="189.1"/>
      <point x="-6.3" y="149.83333333333331"/>
      <point x="-6.3" y="88.46666666666667" type="curve" smooth="yes"/>
      <point x="-6.3" y="39.099999999999994"/>
      <point x="25.6" y="0.0"/>
    </contour>
    <contour>
      <point x="886.0" y="119.96666666666667" type="curve" smooth="yes"/>
      <point x="989.0666666666666" y="119.96666666666667"/>
      <point x="1057.9666666666667" y="182.29999999999998"/>
      <point x="1057.9666666666667" y="275.4" type="curve" smooth="yes"/>
      <point x="1057.9666666666667" y="351.6666666666667"/>
      <point x="1004.0" y="393.56666666666666"/>
      <point x="935.1333333333333" y="393.56666666666666" type="curve" smooth="yes"/>
      <point x="842.5666666666667" y="393.56666666666666"/>
      <point x="786.8666666666667" y="325.56666666666666"/>
      <point x="758.7" y="233.73333333333335" type="curve"/>
      <point x="786.9333333333334" y="210.86666666666667" type="line"/>
      <point x="808.3666666666667" y="276.9666666666667"/>
      <point x="842.6666666666666" y="330.3666666666667"/>
      <point x="895.6" y="330.3666666666667" type="curve" smooth="yes"/>
      <point x="932.6" y="330.3666666666667"/>
      <point x="953.4666666666667" y="303.70000000000005"/>
      <point x="953.4666666666667" y="265.73333333333335" type="curve" smooth="yes"/>
      <point x="953.4666666666667" y="216.73333333333332"/>
      <point x="921.1333333333333" y="182.6"/>
      <point x="869.2333333333333" y="182.6" type="curve" smooth="yes"/>
      <point x="817.8333333333333" y="182.6"/>
      <point x="779.4333333333334" y="226.76666666666668"/>
      <point x="779.4333333333334" y="296.56666666666666" type="curve" smooth="yes"/>
      <point x="779.4333333333334" y="421.4"/>
      <point x="854.7666666666667" y="508.1"/>
      <point x="975.4666666666666" y="508.1" type="curve" smooth="yes"/>
      <point x="1080.1666666666667" y="508.1"/>
      <point x="1149.8000000000002" y="440.90000000000003"/>
      <point x="1127.8" y="324.56666666666666" type="curve"/>
      <point x="1190.3999999999999" y="324.56666666666666" type="line"/>
      <point x="1216.1333333333334" y="473.59999999999997"/>
      <point x="1126.6" y="568.7333333333333"/>
      <point x="982.7333333333333" y="568.7333333333333" type="curve" smooth="yes"/>
      <point x="829.2333333333333" y="568.7333333333333"/>
      <point x="715.0" y="455.6666666666667"/>
      <point x="715.0" y="295.7333333333333" type="curve" smooth="yes"/>
      <point x="715.0" y="196.5"/>
      <point x="783.1" y="119.96666666666667"/>
    </contour>
    <contour>
      <point x="1084.3333333333333" y="121.7" type="line"/>
      <point x="1211.6666666666667" y="121.7" type="line"/>
      <point x="1293.3999999999999" y="504.56666666666666" type="line"/>
      <point x="1421.5666666666668" y="504.56666666666666" type="line"/>
      <point x="1340.4666666666667" y="121.7" type="line"/>
      <point x="1467.7" y="121.7" type="line"/>
      <point x="1549.1666666666667" y="504.56666666666666" type="line"/>
      <point x="1631.2333333333333" y="504.56666666666666" type="line"/>
      <point x="1643.8666666666668" y="563.7333333333333" type="line"/>
      <point x="1208.1333333333332" y="563.7333333333333" type="line"/>
      <point x="1169.0666666666666" y="375.1666666666667" type="line"/>
      <point x="1137.9" y="374.06666666666666" type="line"/>
    </contour>
  </outline>
</glyph>
<glyph name="e-tamil" format="2">
  <advance width="891.5333333333333"/>
  <unicode hex="0B8E"/>
  <note>
uni0B8E
</note>
  <anchor x="416.43333333333334" y="0.0" name="bottom"/>
  <anchor x="417.06666666666666" y="0.0" name="nukta"/>
  <anchor x="538.1666666666667" y="563.7333333333333" name="top"/>
  <anchor x="538.8000000000001" y="563.7333333333333" name="vedic"/>
  <outline>
    <contour>
      <point x="239.63333333333333" y="-5.0" type="curve" smooth="yes"/>
      <point x="348.8" y="-5.0"/>
      <point x="437.93333333333334" y="64.76666666666667"/>
      <point x="437.93333333333334" y="183.83333333333334" type="curve" smooth="yes"/>
      <point x="437.93333333333334" y="270.6333333333334"/>
      <point x="376.43333333333334" y="323.0"/>
      <point x="297.93333333333334" y="323.0" type="curve" smooth="yes"/>
      <point x="199.8" y="323.0"/>
      <point x="130.76666666666668" y="250.8"/>
      <point x="89.23333333333333" y="121.76666666666667" type="curve"/>
      <point x="123.93333333333334" y="99.46666666666667" type="line"/>
      <point x="150.29999999999998" y="192.9"/>
      <point x="194.4" y="240.7"/>
      <point x="243.73333333333335" y="240.7" type="curve" smooth="yes"/>
      <point x="290.03333333333336" y="240.7"/>
      <point x="307.93333333333334" y="203.73333333333332"/>
      <point x="307.93333333333334" y="164.9" type="curve" smooth="yes"/>
      <point x="307.93333333333334" y="112.16666666666667"/>
      <point x="280.3" y="61.733333333333334"/>
      <point x="216.20000000000002" y="61.733333333333334" type="curve" smooth="yes"/>
      <point x="148.56666666666666" y="61.733333333333334"/>
      <point x="107.10000000000001" y="136.13333333333333"/>
      <point x="107.10000000000001" y="215.26666666666665" type="curve" smooth="yes"/>
      <point x="107.10000000000001" y="383.6666666666667"/>
      <point x="213.9" y="503.1"/>
      <point x="415.1333333333333" y="503.1" type="curve" smooth="yes"/>
      <point x="639.2666666666667" y="503.1" type="line"/>
      <point x="532.2666666666667" y="0.0" type="line"/>
      <point x="684.0333333333333" y="0.0" type="line"/>
      <point x="790.4" y="503.1" type="line"/>
      <point x="922.1666666666666" y="503.1" type="line"/>
      <point x="935.1666666666666" y="563.7333333333333" type="line"/>
      <point x="418.40000000000003" y="563.7333333333333" type="line" smooth="yes"/>
      <point x="184.0" y="563.7333333333333"/>
      <point x="44.733333333333334" y="414.4"/>
      <point x="44.733333333333334" y="210.53333333333333" type="curve" smooth="yes"/>
      <point x="44.733333333333334" y="95.66666666666667"/>
      <point x="115.13333333333333" y="-5.0"/>
    </contour>
  </outline>
</glyph>
<glyph name="ee-tamil" format="2">
  <advance width="891.9"/>
  <unicode hex="0B8F"/>
  <note>
uni0B8F
</note>
  <anchor x="417.90000000000003" y="0.0" name="bottom"/>
  <anchor x="376.3" y="-198.36666666666665" name="nukta"/>
  <anchor x="540.2666666666667" y="563.7333333333333" name="top"/>
  <anchor x="540.2666666666667" y="563.7333333333333" name="vedic"/>
  <outline>
    <contour>
      <point x="324.0" y="-258.0" type="line"/>
      <point x="692.1333333333333" y="35.03333333333333" type="line"/>
      <point x="791.4" y="503.1" type="line"/>
      <point x="922.5333333333333" y="503.1" type="line"/>
      <point x="935.5333333333333" y="563.7333333333333" type="line"/>
      <point x="418.40000000000003" y="563.7333333333333" type="line" smooth="yes"/>
      <point x="184.0" y="563.7333333333333"/>
      <point x="44.733333333333334" y="414.4"/>
      <point x="44.733333333333334" y="210.53333333333333" type="curve" smooth="yes"/>
      <point x="44.733333333333334" y="95.66666666666667"/>
      <point x="115.13333333333333" y="-5.0"/>
      <point x="239.63333333333333" y="-5.0" type="curve" smooth="yes"/>
      <point x="348.8" y="-5.0"/>
      <point x="437.93333333333334" y="64.76666666666667"/>
      <point x="437.93333333333334" y="183.83333333333334" type="curve" smooth="yes"/>
      <point x="437.93333333333334" y="270.6333333333334"/>
      <point x="376.43333333333334" y="323.0"/>
      <point x="297.93333333333334" y="323.0" type="curve" smooth="yes"/>
      <point x="199.8" y="323.0"/>
      <point x="130.76666666666668" y="250.8"/>
      <point x="89.23333333333333" y="121.76666666666667" type="curve"/>
      <point x="123.93333333333334" y="99.46666666666667" type="line"/>
      <point x="150.29999999999998" y="192.9"/>
      <point x="194.4" y="240.7"/>
      <point x="243.73333333333335" y="240.7" type="curve" smooth="yes"/>
      <point x="290.03333333333336" y="240.7"/>
      <point x="307.93333333333334" y="203.73333333333332"/>
      <point x="307.93333333333334" y="164.9" type="curve" smooth="yes"/>
      <point x="307.93333333333334" y="112.16666666666667"/>
      <point x="280.3" y="61.733333333333334"/>
      <point x="216.20000000000002" y="61.733333333333334" type="curve" smooth="yes"/>
      <point x="148.56666666666666" y="61.733333333333334"/>
      <point x="107.10000000000001" y="136.13333333333333"/>
      <point x="107.10000000000001" y="215.26666666666665" type="curve" smooth="yes"/>
      <point x="107.10000000000001" y="383.6666666666667"/>
      <point x="213.9" y="503.1"/>
      <point x="415.1333333333333" y="503.1" type="curve" smooth="yes"/>
      <point x="639.6333333333333" y="503.1" type="line"/>
      <point x="530.9" y="-12.466666666666667" type="line"/>
      <point x="284.8" y="-207.56666666666666" type="line"/>
    </contour>
  </outline>
</glyph>
<glyph name="ai-tamil" format="2">
  <advance width="978.1333333333333"/>
  <unicode hex="0B90"/>
  <note>
uni0B90
</note>
  <anchor x="429.73333333333335" y="0.0" name="bottom"/>
  <anchor x="360.7333333333333" y="-320.3333333333333" name="nukta"/>
  <anchor x="565.8333333333334" y="563.7333333333333" name="top"/>
  <anchor x="565.7333333333333" y="563.7333333333333" name="vedic"/>
  <outline>
    <contour>
      <point x="176.43333333333334" y="-320.3333333333333" type="curve" smooth="yes"/>
      <point x="282.4666666666667" y="-320.3333333333333"/>
      <point x="374.70000000000005" y="-276.76666666666665"/>
      <point x="413.59999999999997" y="-170.1" type="curve"/>
      <point x="411.53333333333336" y="-239.2"/>
      <point x="463.5333333333333" y="-320.3333333333333"/>
      <point x="603.1" y="-320.3333333333333" type="curve" smooth="yes"/>
      <point x="748.4" y="-320.3333333333333"/>
      <point x="851.0666666666667" y="-223.66666666666669"/>
      <point x="851.0666666666667" y="-76.76666666666667" type="curve" smooth="yes"/>
      <point x="851.0666666666667" y="-23.6"/>
      <point x="840.8" y="17.5"/>
      <point x="822.7333333333332" y="62.2" type="curve"/>
      <point x="764.1666666666667" y="36.666666666666664" type="line"/>
      <point x="778.3333333333333" y="-0.8666666666666667"/>
      <point x="787.6999999999999" y="-35.06666666666667"/>
      <point x="787.6999999999999" y="-72.5" type="curve" smooth="yes"/>
      <point x="787.6999999999999" y="-187.3"/>
      <point x="708.9666666666666" y="-257.1333333333333"/>
      <point x="602.5666666666666" y="-257.1333333333333" type="curve" smooth="yes"/>
      <point x="513.2" y="-257.1333333333333"/>
      <point x="483.96666666666664" y="-184.76666666666665"/>
      <point x="504.2333333333334" y="-84.1" type="curve" smooth="yes"/>
      <point x="515.1666666666666" y="-30.733333333333334" type="line"/>
      <point x="372.1333333333333" y="-30.733333333333334" type="line"/>
      <point x="358.1333333333333" y="-97.36666666666666" type="line" smooth="yes"/>
      <point x="334.7" y="-209.9"/>
      <point x="278.43333333333334" y="-257.8666666666667"/>
      <point x="206.26666666666665" y="-257.8666666666667" type="curve" smooth="yes"/>
      <point x="145.13333333333333" y="-257.8666666666667"/>
      <point x="113.56666666666668" y="-216.23333333333332"/>
      <point x="113.56666666666668" y="-148.1" type="curve" smooth="yes"/>
      <point x="113.56666666666668" y="30.433333333333334"/>
      <point x="267.5" y="56.46666666666667"/>
      <point x="487.3666666666667" y="79.36666666666667" type="curve" smooth="yes"/>
      <point x="756.9333333333333" y="107.26666666666667"/>
      <point x="949.4333333333333" y="172.6"/>
      <point x="949.4333333333333" y="393.2" type="curve" smooth="yes"/>
      <point x="949.4333333333333" y="507.1666666666667"/>
      <point x="868.5" y="569.3666666666667"/>
      <point x="751.8666666666667" y="569.3666666666667" type="curve" smooth="yes"/>
      <point x="653.9" y="569.3666666666667"/>
      <point x="583.9666666666667" y="526.2333333333333"/>
      <point x="541.4333333333333" y="439.0" type="curve"/>
      <point x="521.8333333333334" y="521.8333333333334"/>
      <point x="445.20000000000005" y="569.3666666666667"/>
      <point x="334.06666666666666" y="569.3666666666667" type="curve" smooth="yes"/>
      <point x="187.93333333333334" y="569.3666666666667"/>
      <point x="66.66666666666666" y="467.79999999999995"/>
      <point x="66.66666666666666" y="316.73333333333335" type="curve" smooth="yes"/>
      <point x="66.66666666666666" y="225.7"/>
      <point x="122.3" y="157.16666666666666"/>
      <point x="214.03333333333333" y="157.16666666666666" type="curve" smooth="yes"/>
      <point x="301.56666666666666" y="157.16666666666666"/>
      <point x="378.93333333333334" y="209.96666666666667"/>
      <point x="378.93333333333334" y="302.7666666666667" type="curve" smooth="yes"/>
      <point x="378.93333333333334" y="369.3666666666667"/>
      <point x="334.16666666666663" y="410.3666666666667"/>
      <point x="267.5" y="410.3666666666667" type="curve" smooth="yes"/>
      <point x="197.93333333333334" y="410.3666666666667"/>
      <point x="137.3" y="370.73333333333335"/>
      <point x="99.66666666666667" y="251.36666666666667" type="curve"/>
      <point x="127.96666666666668" y="230.33333333333334" type="line"/>
      <point x="152.06666666666666" y="313.93333333333334"/>
      <point x="191.10000000000002" y="347.70000000000005"/>
      <point x="228.5" y="347.70000000000005" type="curve" smooth="yes"/>
      <point x="261.16666666666663" y="347.70000000000005"/>
      <point x="278.9666666666667" y="327.0"/>
      <point x="278.9666666666667" y="294.83333333333337" type="curve" smooth="yes"/>
      <point x="278.9666666666667" y="247.93333333333334"/>
      <point x="247.46666666666667" y="219.9"/>
      <point x="204.86666666666667" y="219.9" type="curve" smooth="yes"/>
      <point x="160.2" y="219.9"/>
      <point x="128.93333333333334" y="257.8666666666667"/>
      <point x="128.93333333333334" y="320.1666666666667" type="curve" smooth="yes"/>
      <point x="128.93333333333334" y="430.23333333333335"/>
      <point x="209.63333333333333" y="507.0"/>
      <point x="322.9666666666667" y="507.0" type="curve" smooth="yes"/>
      <point x="424.06666666666666" y="507.0"/>
      <point x="472.59999999999997" y="450.56666666666666"/>
      <point x="452.7" y="357.8666666666667" type="curve" smooth="yes"/>
      <point x="422.23333333333335" y="214.8" type="line"/>
      <point x="565.2666666666667" y="214.8" type="line"/>
      <point x="602.3666666666667" y="388.0333333333333" type="line" smooth="yes"/>
      <point x="618.9" y="466.1666666666667"/>
      <point x="658.0333333333334" y="506.6333333333333"/>
      <point x="716.2666666666667" y="506.6333333333333" type="curve" smooth="yes"/>
      <point x="769.0333333333333" y="506.6333333333333"/>
      <point x="801.8000000000001" y="473.3666666666666"/>
      <point x="801.8000000000001" y="407.6666666666667" type="curve" smooth="yes"/>
      <point x="801.8000000000001" y="198.76666666666668"/>
      <point x="673.8333333333333" y="152.6"/>
      <point x="399.16666666666663" y="122.89999999999999" type="curve" smooth="yes"/>
      <point x="169.7" y="98.1"/>
      <point x="-34.06666666666667" y="53.7"/>
      <point x="-34.06666666666667" y="-138.93333333333334" type="curve" smooth="yes"/>
      <point x="-34.06666666666667" y="-246.16666666666669"/>
      <point x="52.46666666666667" y="-320.3333333333333"/>
    </contour>
  </outline>
</glyph>
<glyph name="o-tamil" format="2">
  <advance width="985.0333333333333"/>
  <unicode hex="0B92"/>
  <note>
uni0B92
</note>
  <anchor x="438.90000000000003" y="0.0" name="bottom"/>
  <anchor x="365.53333333333336" y="-335.0" name="nukta"/>
  <anchor x="532.9000000000001" y="563.7333333333333" name="top"/>
  <anchor x="532.9" y="563.7333333333333" name="vedic"/>
  <outline>
    <contour>
      <point x="235.23333333333332" y="-354.3333333333333" type="curve" smooth="yes"/>
      <point x="460.9666666666667" y="-354.3333333333333"/>
      <point x="522.1333333333333" y="-151.0"/>
      <point x="683.9666666666667" y="-151.0" type="curve" smooth="yes"/>
      <point x="737.0666666666667" y="-151.0" type="line"/>
      <point x="750.7" y="-87.19999999999999" type="line"/>
      <point x="671.9" y="-87.19999999999999" type="line" smooth="yes"/>
      <point x="496.46666666666664" y="-87.19999999999999"/>
      <point x="455.1333333333334" y="86.5"/>
      <point x="579.6333333333333" y="219.83333333333334" type="curve"/>
      <point x="585.0" y="216.83333333333331" type="line"/>
      <point x="522.1666666666667" y="95.93333333333334"/>
      <point x="558.3" y="-4.633333333333334"/>
      <point x="690.7333333333333" y="-4.633333333333334" type="curve" smooth="yes"/>
      <point x="829.0333333333334" y="-4.633333333333334"/>
      <point x="927.3333333333334" y="99.86666666666667"/>
      <point x="927.3333333333334" y="250.13333333333333" type="curve" smooth="yes"/>
      <point x="927.3333333333334" y="453.2"/>
      <point x="740.1333333333333" y="568.7333333333333"/>
      <point x="504.6666666666667" y="568.7333333333333" type="curve" smooth="yes"/>
      <point x="247.70000000000002" y="568.7333333333333"/>
      <point x="40.46666666666667" y="414.53333333333336"/>
      <point x="40.46666666666667" y="204.20000000000002" type="curve" smooth="yes"/>
      <point x="40.46666666666667" y="89.33333333333334"/>
      <point x="103.8" y="-5.0"/>
      <point x="228.29999999999998" y="-5.0" type="curve" smooth="yes"/>
      <point x="337.46666666666664" y="-5.0"/>
      <point x="427.8666666666667" y="64.76666666666667"/>
      <point x="427.8666666666667" y="183.83333333333334" type="curve" smooth="yes"/>
      <point x="427.8666666666667" y="270.6333333333334"/>
      <point x="366.90000000000003" y="323.0"/>
      <point x="288.40000000000003" y="323.0" type="curve" smooth="yes"/>
      <point x="190.26666666666668" y="323.0"/>
      <point x="120.8" y="250.8"/>
      <point x="79.26666666666667" y="121.76666666666667" type="curve"/>
      <point x="113.96666666666667" y="99.46666666666667" type="line"/>
      <point x="140.33333333333334" y="192.9"/>
      <point x="185.6" y="240.7"/>
      <point x="234.93333333333334" y="240.7" type="curve" smooth="yes"/>
      <point x="281.23333333333335" y="240.7"/>
      <point x="297.8666666666666" y="203.73333333333332"/>
      <point x="297.8666666666666" y="164.9" type="curve" smooth="yes"/>
      <point x="297.8666666666666" y="112.16666666666667"/>
      <point x="268.96666666666664" y="61.733333333333334"/>
      <point x="204.86666666666667" y="61.733333333333334" type="curve" smooth="yes"/>
      <point x="137.23333333333335" y="61.733333333333334"/>
      <point x="102.83333333333334" y="129.8"/>
      <point x="102.83333333333334" y="208.93333333333334" type="curve" smooth="yes"/>
      <point x="102.83333333333334" y="383.33333333333337"/>
      <point x="286.7666666666667" y="507.3666666666667"/>
      <point x="490.56666666666666" y="507.3666666666667" type="curve" smooth="yes"/>
      <point x="669.0333333333333" y="507.3666666666667"/>
      <point x="788.5666666666666" y="411.5"/>
      <point x="788.5666666666666" y="262.93333333333334" type="curve" smooth="yes"/>
      <point x="788.5666666666666" y="154.96666666666667"/>
      <point x="745.6999999999999" y="63.56666666666666"/>
      <point x="663.9333333333333" y="63.56666666666666" type="curve" smooth="yes"/>
      <point x="584.8333333333333" y="63.56666666666666"/>
      <point x="603.4" y="184.86666666666667"/>
      <point x="665.5" y="270.8666666666666" type="curve"/>
      <point x="608.2666666666667" y="311.7333333333333" type="line"/>
      <point x="454.6" y="190.66666666666666"/>
      <point x="391.3333333333333" y="-17.43333333333333"/>
      <point x="541.1999999999999" y="-108.03333333333333" type="curve"/>
      <point x="540.1999999999999" y="-113.03333333333333" type="line"/>
      <point x="406.90000000000003" y="-132.96666666666667"/>
      <point x="336.8" y="-285.23333333333335"/>
      <point x="210.66666666666669" y="-285.23333333333335" type="curve" smooth="yes"/>
      <point x="157.89999999999998" y="-285.23333333333335"/>
      <point x="131.26666666666665" y="-251.53333333333333"/>
      <point x="131.26666666666665" y="-213.46666666666667" type="curve" smooth="yes"/>
      <point x="131.26666666666665" y="-168.86666666666667"/>
      <point x="156.33333333333331" y="-142.96666666666667"/>
      <point x="204.0" y="-111.06666666666666" type="curve"/>
      <point x="175.8" y="-68.89999999999999" type="line"/>
      <point x="113.76666666666667" y="-110.53333333333335"/>
      <point x="74.06666666666668" y="-153.06666666666666"/>
      <point x="74.06666666666668" y="-222.4" type="curve" smooth="yes"/>
      <point x="74.06666666666668" y="-293.20000000000005"/>
      <point x="133.23333333333332" y="-354.3333333333333"/>
    </contour>
  </outline>
</glyph>
<glyph name="ja-tamil" format="2">
  <advance width="983.5666666666666"/>
  <unicode hex="0B9C"/>
  <note>
uni0B9C
</note>
  <anchor x="430.3666666666667" y="0.0" name="bottom"/>
  <anchor x="361.3666666666667" y="-320.3333333333333" name="nukta"/>
  <anchor x="550.1333333333334" y="563.7333333333333" name="top"/>
  <anchor x="544.7666666666667" y="563.7333333333333" name="vedic"/>
  <outline>
    <contour>
      <point x="158.10000000000002" y="-320.3333333333333" type="curve" smooth="yes"/>
      <point x="385.5" y="-320.3333333333333"/>
      <point x="442.7333333333333" y="-22.466666666666665"/>
      <point x="613.6999999999999" y="-22.466666666666665" type="curve" smooth="yes"/>
      <point x="670.5333333333334" y="-22.466666666666665"/>
      <point x="702.8666666666667" y="-61.63333333333333"/>
      <point x="702.8666666666667" y="-117.5" type="curve" smooth="yes"/>
      <point x="702.8666666666667" y="-193.66666666666666"/>
      <point x="656.4666666666667" y="-253.9666666666667"/>
      <point x="576.7666666666668" y="-253.9666666666667" type="curve" smooth="yes"/>
      <point x="546.6" y="-253.9666666666667"/>
      <point x="514.3666666666667" y="-243.96666666666667"/>
      <point x="482.23333333333335" y="-221.36666666666667" type="curve"/>
      <point x="450.7666666666667" y="-265.0333333333333" type="line"/>
      <point x="500.23333333333335" y="-304.96666666666664"/>
      <point x="552.5666666666667" y="-320.3333333333333"/>
      <point x="616.3333333333334" y="-320.3333333333333" type="curve" smooth="yes"/>
      <point x="739.8333333333334" y="-320.3333333333333"/>
      <point x="849.8666666666667" y="-249.23333333333332"/>
      <point x="849.8666666666667" y="-117.5" type="curve" smooth="yes"/>
      <point x="849.8666666666667" y="-15.099999999999998"/>
      <point x="773.7666666666667" y="43.36666666666667"/>
      <point x="657.7666666666667" y="43.36666666666667" type="curve" smooth="yes"/>
      <point x="409.3" y="43.36666666666667"/>
      <point x="350.1666666666667" y="-255.66666666666669"/>
      <point x="196.53333333333333" y="-255.66666666666669" type="curve" smooth="yes"/>
      <point x="143.96666666666667" y="-255.66666666666669"/>
      <point x="116.36666666666667" y="-213.76666666666665"/>
      <point x="116.36666666666667" y="-145.76666666666668" type="curve" smooth="yes"/>
      <point x="116.36666666666667" y="29.099999999999998"/>
      <point x="251.4" y="58.46666666666667"/>
      <point x="487.09999999999997" y="83.9" type="curve" smooth="yes"/>
      <point x="756.6666666666667" y="113.06666666666666"/>
      <point x="949.1666666666666" y="172.6"/>
      <point x="949.1666666666666" y="393.2" type="curve" smooth="yes"/>
      <point x="949.1666666666666" y="507.1666666666667"/>
      <point x="868.2333333333333" y="569.3666666666667"/>
      <point x="751.5999999999999" y="569.3666666666667" type="curve" smooth="yes"/>
      <point x="653.6333333333333" y="569.3666666666667"/>
      <point x="583.7" y="526.2333333333333"/>
      <point x="541.1666666666666" y="439.0" type="curve"/>
      <point x="521.5666666666667" y="521.8333333333334"/>
      <point x="444.93333333333334" y="569.3666666666667"/>
      <point x="333.8" y="569.3666666666667" type="curve" smooth="yes"/>
      <point x="187.66666666666669" y="569.3666666666667"/>
      <point x="66.39999999999999" y="467.79999999999995"/>
      <point x="66.39999999999999" y="316.73333333333335" type="curve" smooth="yes"/>
      <point x="66.39999999999999" y="225.7"/>
      <point x="122.03333333333335" y="157.16666666666666"/>
      <point x="213.76666666666668" y="157.16666666666666" type="curve" smooth="yes"/>
      <point x="301.3" y="157.16666666666666"/>
      <point x="378.66666666666663" y="209.96666666666667"/>
      <point x="378.66666666666663" y="302.7666666666667" type="curve" smooth="yes"/>
      <point x="378.66666666666663" y="369.3666666666667"/>
      <point x="333.90000000000003" y="410.3666666666667"/>
      <point x="267.2333333333333" y="410.3666666666667" type="curve" smooth="yes"/>
      <point x="197.66666666666666" y="410.3666666666667"/>
      <point x="137.03333333333333" y="370.73333333333335"/>
      <point x="99.39999999999999" y="251.36666666666667" type="curve"/>
      <point x="127.7" y="230.33333333333334" type="line"/>
      <point x="151.8" y="313.93333333333334"/>
      <point x="190.83333333333334" y="347.70000000000005"/>
      <point x="228.23333333333335" y="347.70000000000005" type="curve" smooth="yes"/>
      <point x="260.90000000000003" y="347.70000000000005"/>
      <point x="278.7" y="327.0"/>
      <point x="278.7" y="294.83333333333337" type="curve" smooth="yes"/>
      <point x="278.7" y="247.93333333333334"/>
      <point x="247.2" y="219.9"/>
      <point x="204.6" y="219.9" type="curve" smooth="yes"/>
      <point x="159.93333333333334" y="219.9"/>
      <point x="128.66666666666666" y="257.8666666666667"/>
      <point x="128.66666666666666" y="320.1666666666667" type="curve" smooth="yes"/>
      <point x="128.66666666666666" y="430.23333333333335"/>
      <point x="209.36666666666667" y="507.0"/>
      <point x="322.7" y="507.0" type="curve" smooth="yes"/>
      <point x="423.8" y="507.0"/>
      <point x="472.33333333333337" y="450.56666666666666"/>
      <point x="452.43333333333334" y="357.8666666666667" type="curve" smooth="yes"/>
      <point x="421.96666666666664" y="214.8" type="line"/>
      <point x="565.0" y="214.8" type="line"/>
      <point x="602.0999999999999" y="388.0333333333333" type="line" smooth="yes"/>
      <point x="618.6333333333333" y="466.1666666666667"/>
      <point x="658.4" y="506.6333333333333"/>
      <point x="716.6333333333334" y="506.6333333333333" type="curve" smooth="yes"/>
      <point x="769.4" y="506.6333333333333"/>
      <point x="801.5333333333333" y="473.3666666666666"/>
      <point x="801.5333333333333" y="407.6666666666667" type="curve" smooth="yes"/>
      <point x="801.5333333333333" y="198.76666666666665"/>
      <point x="673.5666666666667" y="150.8"/>
      <point x="398.90000000000003" y="121.10000000000001" type="curve" smooth="yes"/>
      <point x="169.43333333333334" y="96.30000000000001"/>
      <point x="-31.266666666666666" y="50.166666666666664"/>
      <point x="-31.266666666666666" y="-135.13333333333333" type="curve" smooth="yes"/>
      <point x="-31.266666666666666" y="-243.70000000000002"/>
      <point x="36.4" y="-320.3333333333333"/>
    </contour>
  </outline>
</glyph>
<glyph name="nya-tamil" format="2">
  <advance width="1288.7333333333333"/>
  <unicode hex="0B9E"/>
  <note>
uni0B9E
</note>
  <anchor x="611.1" y="0.0" name="bottom"/>
  <anchor x="1047.9666666666667" y="563.7333333333333" name="imatra"/>
  <anchor x="540.4666666666667" y="-359.0" name="nukta"/>
  <anchor x="750.3000000000001" y="563.7333333333333" name="top"/>
  <anchor x="710.0" y="563.7333333333333" name="vedic"/>
  <outline>
    <contour>
      <point x="540.4666666666667" y="-359.0" type="curve" smooth="yes"/>
      <point x="925.0999999999999" y="-359.0"/>
      <point x="1211.6" y="-131.50000000000003"/>
      <point x="1211.6" y="170.83333333333331" type="curve" smooth="yes"/>
      <point x="1211.6" y="281.1333333333333"/>
      <point x="1158.9" y="342.8333333333333"/>
      <point x="1068.2666666666667" y="342.8333333333333" type="curve" smooth="yes"/>
      <point x="981.6" y="342.8333333333333"/>
      <point x="916.9" y="272.23333333333335"/>
      <point x="897.8000000000001" y="186.26666666666665" type="curve" smooth="yes"/>
      <point x="889.8000000000001" y="150.16666666666666" type="line"/>
      <point x="916.2333333333333" y="150.16666666666666" type="line"/>
      <point x="923.2333333333333" y="186.16666666666669" type="line" smooth="yes"/>
      <point x="931.3333333333333" y="228.29999999999998"/>
      <point x="957.7666666666667" y="254.56666666666666"/>
      <point x="994.6666666666666" y="254.56666666666666" type="curve" smooth="yes"/>
      <point x="1036.1" y="254.56666666666666"/>
      <point x="1058.6999999999998" y="221.3"/>
      <point x="1058.6999999999998" y="158.36666666666667" type="curve" smooth="yes"/>
      <point x="1058.6999999999998" y="-84.23333333333333"/>
      <point x="860.6666666666667" y="-296.90000000000003"/>
      <point x="544.2" y="-296.90000000000003" type="curve" smooth="yes"/>
      <point x="272.70000000000005" y="-296.90000000000003"/>
      <point x="92.60000000000001" y="-121.06666666666668"/>
      <point x="92.60000000000001" y="130.33333333333331" type="curve" smooth="yes"/>
      <point x="92.60000000000001" y="330.7666666666667"/>
      <point x="176.76666666666665" y="483.16666666666663"/>
      <point x="347.2" y="635.8666666666667" type="curve"/>
      <point x="306.2" y="679.0333333333333" type="line"/>
      <point x="125.5" y="518.9666666666667"/>
      <point x="26.966666666666665" y="339.03333333333336"/>
      <point x="26.966666666666665" y="122.6" type="curve" smooth="yes"/>
      <point x="26.966666666666665" y="-151.13333333333333"/>
      <point x="231.20000000000002" y="-359.0"/>
    </contour>
    <component base="e-tamil" xOffset="200.5666666666667"/>
  </outline>
</glyph>
<glyph name="tta-tamil" format="2">
  <advance width="859.6333333333333"/>
  <unicode hex="0B9F"/>
  <note>
uni0B9F
</note>
  <anchor x="374.43333333333334" y="0.0" name="bottom"/>
  <anchor x="374.43333333333334" y="0.0" name="nukta"/>
  <anchor x="520.8000000000001" y="563.7333333333333" name="top"/>
  <anchor x="524.2666666666667" y="563.7333333333333" name="vedic"/>
  <outline>
    <contour>
      <point x="19.1" y="0.0" type="line"/>
      <point x="789.9" y="0.0" type="line"/>
      <point x="802.9" y="61.0" type="line"/>
      <point x="186.4" y="61.0" type="line"/>
      <point x="293.40000000000003" y="563.7333333333333" type="line"/>
      <point x="139.1" y="563.7333333333333" type="line"/>
    </contour>
  </outline>
</glyph>
<glyph name="nna-tamil" format="2">
  <advance width="1713.0666666666668"/>
  <unicode hex="0BA3"/>
  <note>
uni0BA3
</note>
  <anchor x="857.1333333333333" y="0.0" name="bottom"/>
  <anchor x="1627.5333333333335" y="563.7333333333333" name="imatra"/>
  <anchor x="856.7666666666667" y="0.0" name="nukta"/>
  <anchor x="966.5" y="563.7333333333333" name="top"/>
  <anchor x="936.6333333333333" y="563.7333333333333" name="vedic"/>
  <outline>
    <contour>
      <point x="659.1333333333334" y="-4.633333333333334" type="curve" smooth="yes"/>
      <point x="773.6666666666666" y="-4.633333333333334"/>
      <point x="868.9666666666666" y="78.93333333333334"/>
      <point x="868.9666666666666" y="227.23333333333335" type="curve" smooth="yes"/>
      <point x="868.9666666666666" y="439.7666666666667"/>
      <point x="697.1333333333333" y="568.7333333333333"/>
      <point x="454.5" y="568.7333333333333" type="curve" smooth="yes"/>
      <point x="232.9" y="568.7333333333333"/>
      <point x="42.1" y="415.90000000000003"/>
      <point x="42.1" y="210.53333333333333" type="curve" smooth="yes"/>
      <point x="42.1" y="95.66666666666667"/>
      <point x="112.5" y="-5.0"/>
      <point x="237.0" y="-5.0" type="curve" smooth="yes"/>
      <point x="346.1666666666667" y="-5.0"/>
      <point x="435.3" y="64.76666666666667"/>
      <point x="435.3" y="183.83333333333334" type="curve" smooth="yes"/>
      <point x="435.3" y="270.6333333333334"/>
      <point x="373.79999999999995" y="323.0"/>
      <point x="295.3" y="323.0" type="curve" smooth="yes"/>
      <point x="197.16666666666669" y="323.0"/>
      <point x="128.13333333333335" y="250.8"/>
      <point x="86.6" y="121.76666666666667" type="curve"/>
      <point x="121.3" y="99.46666666666667" type="line"/>
      <point x="147.66666666666666" y="192.9"/>
      <point x="191.76666666666665" y="240.7"/>
      <point x="241.1" y="240.7" type="curve" smooth="yes"/>
      <point x="287.40000000000003" y="240.7"/>
      <point x="305.3" y="203.73333333333332"/>
      <point x="305.3" y="164.9" type="curve" smooth="yes"/>
      <point x="305.3" y="112.16666666666667"/>
      <point x="277.66666666666663" y="61.733333333333334"/>
      <point x="213.5666666666667" y="61.733333333333334" type="curve" smooth="yes"/>
      <point x="145.93333333333334" y="61.733333333333334"/>
      <point x="104.46666666666667" y="136.13333333333333"/>
      <point x="104.46666666666667" y="215.26666666666665" type="curve" smooth="yes"/>
      <point x="104.46666666666667" y="382.3333333333333"/>
      <point x="266.6333333333333" y="507.0"/>
      <point x="442.23333333333335" y="507.0" type="curve" smooth="yes"/>
      <point x="628.7666666666667" y="507.0"/>
      <point x="731.3000000000001" y="396.43333333333334"/>
      <point x="730.5666666666667" y="235.0" type="curve" smooth="yes"/>
      <point x="730.2" y="131.93333333333334"/>
      <point x="693.1333333333333" y="64.63333333333333"/>
      <point x="628.6333333333333" y="64.63333333333333" type="curve" smooth="yes"/>
      <point x="589.7666666666667" y="64.63333333333333"/>
      <point x="567.8000000000001" y="107.5"/>
      <point x="567.8000000000001" y="172.63333333333333" type="curve" smooth="yes"/>
      <point x="567.8000000000001" y="347.1666666666667"/>
      <point x="738.9333333333334" y="507.0"/>
      <point x="922.9" y="507.0" type="curve" smooth="yes"/>
      <point x="1098.3000000000002" y="507.0"/>
      <point x="1162.6000000000001" y="398.09999999999997"/>
      <point x="1161.8666666666668" y="238.66666666666669" type="curve" smooth="yes"/>
      <point x="1161.5" y="135.6"/>
      <point x="1123.7" y="64.63333333333333"/>
      <point x="1059.9333333333334" y="64.63333333333333" type="curve" smooth="yes"/>
      <point x="1021.0666666666666" y="64.63333333333333"/>
      <point x="999.1" y="104.60000000000001"/>
      <point x="999.1" y="169.73333333333335" type="curve" smooth="yes"/>
      <point x="999.1" y="371.33333333333337"/>
      <point x="1199.4333333333334" y="503.1"/>
      <point x="1393.5333333333333" y="503.1" type="curve" smooth="yes"/>
      <point x="1743.7" y="503.1" type="line"/>
      <point x="1756.3333333333333" y="563.7333333333333" type="line"/>
      <point x="1400.5333333333333" y="563.7333333333333" type="line" smooth="yes"/>
      <point x="1160.4666666666667" y="563.7333333333333"/>
      <point x="936.1" y="404.03333333333336"/>
      <point x="936.1" y="170.43333333333334" type="curve" smooth="yes"/>
      <point x="936.1" y="75.10000000000001"/>
      <point x="979.3666666666667" y="-4.633333333333334"/>
      <point x="1090.4333333333334" y="-4.633333333333334" type="curve" smooth="yes"/>
      <point x="1205.7" y="-4.633333333333334"/>
      <point x="1300.2666666666667" y="87.03333333333333"/>
      <point x="1300.2666666666667" y="235.33333333333331" type="curve" smooth="yes"/>
      <point x="1300.2666666666667" y="442.56666666666666"/>
      <point x="1166.6666666666667" y="568.7333333333333"/>
      <point x="935.1666666666666" y="568.7333333333333" type="curve" smooth="yes"/>
      <point x="701.3333333333334" y="568.7333333333333"/>
      <point x="504.8" y="379.8666666666667"/>
      <point x="504.8" y="173.33333333333334" type="curve" smooth="yes"/>
      <point x="504.8" y="78.0"/>
      <point x="548.0666666666666" y="-4.633333333333334"/>
    </contour>
    <contour>
      <point x="1353.8" y="0.0" type="line"/>
      <point x="1505.2" y="0.0" type="line"/>
      <point x="1617.9333333333334" y="532.2" type="line"/>
      <point x="1467.1666666666667" y="532.2" type="line"/>
    </contour>
  </outline>
</glyph>
<glyph name="na-tamil" format="2">
  <advance width="773.7666666666667"/>
  <unicode hex="0BA8"/>
  <note>
uni0BA8
</note>
  <anchor x="300.43333333333334" y="0.0" name="bottom"/>
  <anchor x="544.9333333333334" y="563.7333333333333" name="imatra"/>
  <anchor x="275.0" y="-218.1" name="nukta"/>
  <anchor x="427.1333333333334" y="563.7333333333333" name="top"/>
  <anchor x="455.2666666666667" y="563.7333333333333" name="vedic"/>
  <outline>
    <contour>
      <point x="78.06666666666668" y="-272.6333333333333" type="curve"/>
      <point x="93.86666666666666" y="-186.63333333333333"/>
      <point x="128.4" y="-132.73333333333332"/>
      <point x="233.70000000000002" y="-132.73333333333332" type="curve" smooth="yes"/>
      <point x="309.0" y="-132.73333333333332" type="line" smooth="yes"/>
      <point x="512.6666666666666" y="-132.73333333333332"/>
      <point x="702.2666666666667" y="-26.733333333333338"/>
      <point x="702.2666666666667" y="184.0" type="curve" smooth="yes"/>
      <point x="702.2666666666667" y="288.7"/>
      <point x="644.7666666666667" y="344.3"/>
      <point x="564.1999999999999" y="344.3" type="curve" smooth="yes"/>
      <point x="501.8666666666667" y="344.3"/>
      <point x="467.5333333333333" y="314.0333333333333"/>
      <point x="439.53333333333336" y="281.93333333333334" type="curve"/>
      <point x="486.16666666666663" y="503.1" type="line"/>
      <point x="613.7" y="503.1" type="line"/>
      <point x="626.7" y="563.7333333333333" type="line"/>
      <point x="139.83333333333331" y="563.7333333333333" type="line"/>
      <point x="19.833333333333336" y="0.0" type="line"/>
      <point x="87.0" y="0.0" type="line"/>
      <point x="193.36666666666667" y="503.1" type="line"/>
      <point x="332.5" y="503.1" type="line"/>
      <point x="226.13333333333335" y="0.0" type="line"/>
      <point x="379.16666666666663" y="0.0" type="line"/>
      <point x="419.1666666666667" y="188.73333333333335" type="line" smooth="yes"/>
      <point x="427.9" y="229.03333333333333"/>
      <point x="453.2666666666667" y="255.29999999999998"/>
      <point x="487.23333333333335" y="255.29999999999998" type="curve" smooth="yes"/>
      <point x="527.2" y="255.29999999999998"/>
      <point x="548.2666666666667" y="227.86666666666667"/>
      <point x="548.2666666666667" y="173.36666666666665" type="curve" smooth="yes"/>
      <point x="548.2666666666667" y="24.2"/>
      <point x="450.03333333333336" y="-80.1"/>
      <point x="302.2" y="-80.1" type="curve" smooth="yes"/>
      <point x="187.56666666666666" y="-80.1" type="line" smooth="yes"/>
      <point x="67.2" y="-80.1"/>
      <point x="-27.6" y="-105.06666666666666"/>
      <point x="-27.6" y="-193.20000000000002" type="curve" smooth="yes"/>
      <point x="-27.6" y="-245.16666666666669"/>
      <point x="13.733333333333334" y="-272.6333333333333"/>
    </contour>
  </outline>
</glyph>
<glyph name="nnna-tamil" format="2">
  <advance width="1299.7333333333333"/>
  <unicode hex="0BA9"/>
  <note>
uni0BA9
</note>
  <anchor x="573.7666666666668" y="0.0" name="bottom"/>
  <anchor x="1203.5666666666666" y="563.7333333333333" name="imatra"/>
  <anchor x="574.5" y="0.0" name="nukta"/>
  <anchor x="733.1333333333333" y="563.7333333333333" name="top"/>
  <anchor x="729.5666666666666" y="563.7333333333333" name="vedic"/>
  <outline>
    <contour>
      <point x="237.0" y="-5.0" type="curve" smooth="yes"/>
      <point x="346.1666666666667" y="-5.0"/>
      <point x="435.3" y="64.76666666666667"/>
      <point x="435.3" y="183.83333333333334" type="curve" smooth="yes"/>
      <point x="435.3" y="270.6333333333334"/>
      <point x="373.79999999999995" y="323.0"/>
      <point x="295.3" y="323.0" type="curve" smooth="yes"/>
      <point x="197.16666666666669" y="323.0"/>
      <point x="128.13333333333335" y="250.8"/>
      <point x="86.6" y="121.76666666666667" type="curve"/>
      <point x="121.3" y="99.46666666666667" type="line"/>
      <point x="147.66666666666666" y="192.9"/>
      <point x="191.76666666666665" y="240.7"/>
      <point x="241.1" y="240.7" type="curve" smooth="yes"/>
      <point x="287.40000000000003" y="240.7"/>
      <point x="305.3" y="203.73333333333332"/>
      <point x="305.3" y="164.9" type="curve" smooth="yes"/>
      <point x="305.3" y="112.16666666666667"/>
      <point x="277.66666666666663" y="61.733333333333334"/>
      <point x="213.5666666666667" y="61.733333333333334" type="curve" smooth="yes"/>
      <point x="145.93333333333334" y="61.733333333333334"/>
      <point x="104.46666666666667" y="136.13333333333333"/>
      <point x="104.46666666666667" y="215.26666666666665" type="curve" smooth="yes"/>
      <point x="104.46666666666667" y="382.3333333333333"/>
      <point x="262.8333333333333" y="507.0"/>
      <point x="440.96666666666664" y="507.0" type="curve" smooth="yes"/>
      <point x="627.5000000000001" y="507.0"/>
      <point x="731.3" y="396.43333333333334"/>
      <point x="730.5666666666666" y="235.0" type="curve" smooth="yes"/>
      <point x="730.1999999999999" y="131.93333333333334"/>
      <point x="693.1333333333333" y="64.63333333333333"/>
      <point x="628.6333333333333" y="64.63333333333333" type="curve" smooth="yes"/>
      <point x="589.7666666666667" y="64.63333333333333"/>
      <point x="567.8" y="104.60000000000001"/>
      <point x="567.8" y="169.73333333333335" type="curve" smooth="yes"/>
      <point x="567.8" y="371.33333333333337"/>
      <point x="759.9" y="503.1"/>
      <point x="973.0" y="503.1" type="curve" smooth="yes"/>
      <point x="1330.3666666666666" y="503.1" type="line"/>
      <point x="1343.0" y="563.7333333333333" type="line"/>
      <point x="980.0" y="563.7333333333333" type="line" smooth="yes"/>
      <point x="720.9333333333333" y="563.7333333333333"/>
      <point x="504.8" y="404.03333333333336"/>
      <point x="504.8" y="170.43333333333334" type="curve" smooth="yes"/>
      <point x="504.8" y="75.10000000000001"/>
      <point x="548.0666666666667" y="-4.633333333333334"/>
      <point x="659.1333333333333" y="-4.633333333333334" type="curve" smooth="yes"/>
      <point x="773.6666666666666" y="-4.633333333333334"/>
      <point x="868.9666666666667" y="80.2"/>
      <point x="868.9666666666667" y="228.5" type="curve" smooth="yes"/>
      <point x="868.9666666666667" y="441.03333333333336"/>
      <point x="695.8666666666667" y="568.7333333333333"/>
      <point x="453.23333333333335" y="568.7333333333333" type="curve" smooth="yes"/>
      <point x="229.1" y="568.7333333333333"/>
      <point x="42.1" y="415.90000000000003"/>
      <point x="42.1" y="210.53333333333333" type="curve" smooth="yes"/>
      <point x="42.1" y="95.66666666666667"/>
      <point x="112.5" y="-5.0"/>
    </contour>
    <contour>
      <point x="940.4666666666667" y="0.0" type="line"/>
      <point x="1091.8666666666666" y="0.0" type="line"/>
      <point x="1204.6000000000001" y="532.2" type="line"/>
      <point x="1053.8333333333335" y="532.2" type="line"/>
    </contour>
  </outline>
</glyph>
<glyph name="pa-tamil" format="2">
  <advance width="865.2333333333333"/>
  <unicode hex="0BAA"/>
  <note>
uni0BAA
</note>
  <anchor x="375.03333333333336" y="0.0" name="bottom"/>
  <anchor x="838.1333333333333" y="563.7333333333333" name="imatra"/>
  <anchor x="375.03333333333336" y="0.0" name="nukta"/>
  <anchor x="492.2333333333333" y="563.7333333333333" name="top"/>
  <anchor x="492.93333333333334" y="563.7333333333333" name="vedic"/>
  <outline>
    <contour>
      <point x="19.1" y="0.0" type="line"/>
      <point x="726.7666666666667" y="0.0" type="line"/>
      <point x="846.1333333333333" y="563.7333333333333" type="line"/>
      <point x="692.8333333333334" y="563.7333333333333" type="line"/>
      <point x="585.8333333333334" y="61.0" type="line"/>
      <point x="183.86666666666667" y="61.0" type="line"/>
      <point x="290.8666666666667" y="563.7333333333333" type="line"/>
      <point x="139.1" y="563.7333333333333" type="line"/>
    </contour>
  </outline>
</glyph>
<glyph name="ma-tamil" format="2">
  <advance width="870.5666666666667"/>
  <unicode hex="0BAE"/>
  <note>
uni0BAE
</note>
  <anchor x="374.3666666666667" y="0.0" name="bottom"/>
  <anchor x="867.6" y="563.7333333333333" name="imatra"/>
  <anchor x="374.7333333333333" y="0.0" name="nukta"/>
  <anchor x="520.7333333333333" y="563.7333333333333" name="top"/>
  <anchor x="511.1" y="563.7333333333333" name="vedic"/>
  <outline>
    <contour>
      <point x="19.1" y="0.0" type="line"/>
      <point x="605.7" y="0.0" type="line" smooth="yes"/>
      <point x="755.2" y="0.0"/>
      <point x="816.4666666666667" y="157.3"/>
      <point x="816.4666666666667" y="331.9" type="curve" smooth="yes"/>
      <point x="816.4666666666667" y="479.76666666666665"/>
      <point x="754.2333333333333" y="569.3666666666667"/>
      <point x="630.0666666666667" y="569.3666666666667" type="curve" smooth="yes"/>
      <point x="522.0333333333333" y="569.3666666666667"/>
      <point x="452.0333333333333" y="504.0"/>
      <point x="430.23333333333335" y="399.73333333333335" type="curve" smooth="yes"/>
      <point x="358.66666666666663" y="61.0" type="line"/>
      <point x="186.4" y="61.0" type="line"/>
      <point x="293.40000000000003" y="563.7333333333333" type="line"/>
      <point x="139.1" y="563.7333333333333" type="line"/>
    </contour>
    <contour>
      <point x="511.7" y="61.0" type="line"/>
      <point x="584.9000000000001" y="408.1666666666667" type="line" smooth="yes"/>
      <point x="598.0666666666667" y="470.0"/>
      <point x="621.9333333333333" y="496.43333333333334"/>
      <point x="662.9666666666667" y="496.43333333333334" type="curve" smooth="yes"/>
      <point x="716.9666666666666" y="496.43333333333334"/>
      <point x="749.2" y="439.8666666666666"/>
      <point x="749.2" y="325.1" type="curve" smooth="yes"/>
      <point x="749.2" y="202.5"/>
      <point x="709.9333333333333" y="61.0"/>
      <point x="613.6999999999999" y="61.0" type="curve" smooth="yes"/>
    </contour>
  </outline>
</glyph>
<glyph name="ya-tamil" format="2">
  <advance width="958.4666666666667"/>
  <unicode hex="0BAF"/>
  <note>
uni0BAF
</note>
  <anchor x="468.09999999999997" y="0.0" name="bottom"/>
  <anchor x="933.3000000000001" y="563.7333333333333" name="imatra"/>
  <anchor x="467.73333333333335" y="0.0" name="nukta"/>
  <anchor x="545.3000000000001" y="563.7333333333333" name="top"/>
  <anchor x="539.9333333333334" y="563.7333333333333" name="vedic"/>
  <outline>
    <contour>
      <point x="184.23333333333335" y="-9.266666666666667" type="curve" smooth="yes"/>
      <point x="262.20000000000005" y="-9.266666666666667"/>
      <point x="302.8333333333333" y="30.033333333333335"/>
      <point x="326.5" y="59.43333333333333" type="curve"/>
      <point x="314.23333333333335" y="0.0" type="line"/>
      <point x="820.0" y="0.0" type="line"/>
      <point x="939.3666666666667" y="563.7333333333333" type="line"/>
      <point x="786.3333333333334" y="563.7333333333333" type="line"/>
      <point x="679.3333333333334" y="61.0" type="line"/>
      <point x="465.06666666666666" y="61.0" type="line"/>
      <point x="571.8000000000001" y="563.7333333333333" type="line"/>
      <point x="421.5" y="563.7333333333333" type="line"/>
      <point x="332.1333333333333" y="142.8" type="line" smooth="yes"/>
      <point x="321.76666666666665" y="94.06666666666668"/>
      <point x="290.06666666666666" y="63.833333333333336"/>
      <point x="250.4" y="63.833333333333336" type="curve" smooth="yes"/>
      <point x="211.16666666666666" y="63.833333333333336"/>
      <point x="191.03333333333333" y="98.53333333333333"/>
      <point x="204.3" y="159.23333333333335" type="curve" smooth="yes"/>
      <point x="290.4" y="563.7333333333333" type="line"/>
      <point x="137.1" y="563.7333333333333" type="line"/>
      <point x="55.266666666666666" y="175.4" type="line" smooth="yes"/>
      <point x="33.26666666666667" y="70.13333333333333"/>
      <point x="88.23333333333333" y="-9.266666666666667"/>
    </contour>
  </outline>
</glyph>
<glyph name="ra-tamil" format="2">
  <advance width="614.5333333333333"/>
  <unicode hex="0BB0"/>
  <note>
uni0BB0
</note>
  <anchor x="246.73333333333335" y="0.0" name="bottom"/>
  <anchor x="572.9333333333333" y="563.7333333333333" name="imatra"/>
  <anchor x="198.73333333333332" y="-227.26666666666668" name="nukta"/>
  <anchor x="379.93333333333334" y="563.7333333333333" name="top"/>
  <anchor x="399.79999999999995" y="563.7333333333333" name="vedic"/>
  <outline>
    <contour>
      <point x="47.266666666666666" y="-258.0" type="line"/>
      <point x="415.40000000000003" y="35.03333333333333" type="line"/>
      <point x="514.6666666666667" y="503.1" type="line"/>
      <point x="645.1666666666666" y="503.1" type="line"/>
      <point x="658.1666666666666" y="563.7333333333333" type="line"/>
      <point x="139.1" y="563.7333333333333" type="line"/>
      <point x="19.1" y="0.0" type="line"/>
      <point x="86.63333333333333" y="0.0" type="line"/>
      <point x="193.63333333333333" y="503.1" type="line"/>
      <point x="359.1" y="503.1" type="line"/>
      <point x="248.46666666666667" y="-16.266666666666666" type="line"/>
      <point x="8.066666666666665" y="-207.56666666666666" type="line"/>
    </contour>
  </outline>
</glyph>
<glyph name="rra-tamil" format="2">
  <advance width="839.1666666666666"/>
  <unicode hex="0BB1"/>
  <note>
uni0BB1
</note>
  <anchor x="348.20000000000005" y="0.0" name="bottom"/>
  <anchor x="331.90000000000003" y="-186.83333333333334" name="nukta"/>
  <anchor x="468.6666666666667" y="563.7333333333333" name="top"/>
  <anchor x="491.5" y="563.7333333333333" name="vedic"/>
  <outline>
    <contour>
      <point x="72.8" y="-268.0" type="curve"/>
      <point x="88.6" y="-182.0"/>
      <point x="123.13333333333333" y="-128.1"/>
      <point x="228.43333333333334" y="-128.1" type="curve" smooth="yes"/>
      <point x="336.9666666666667" y="-128.1" type="line" smooth="yes"/>
      <point x="638.6333333333333" y="-128.1"/>
      <point x="800.7333333333333" y="47.6"/>
      <point x="800.7333333333333" y="326.96666666666664" type="curve" smooth="yes"/>
      <point x="800.7333333333333" y="484.93333333333334"/>
      <point x="714.8666666666667" y="568.7333333333333"/>
      <point x="592.5" y="568.7333333333333" type="curve" smooth="yes"/>
      <point x="489.5" y="568.7333333333333"/>
      <point x="433.73333333333335" y="512.1666666666666"/>
      <point x="402.6333333333333" y="458.3666666666667" type="curve"/>
      <point x="391.1666666666667" y="519.0666666666667"/>
      <point x="349.2666666666667" y="568.1"/>
      <point x="269.90000000000003" y="568.1" type="curve" smooth="yes"/>
      <point x="179.06666666666666" y="568.1"/>
      <point x="119.10000000000001" y="507.59999999999997"/>
      <point x="97.66666666666667" y="404.7" type="curve" smooth="yes"/>
      <point x="11.633333333333335" y="0.0" type="line"/>
      <point x="78.43333333333332" y="0.0" type="line"/>
      <point x="162.83333333333334" y="397.1666666666667" type="line" smooth="yes"/>
      <point x="177.26666666666668" y="463.7"/>
      <point x="204.6" y="502.46666666666664"/>
      <point x="254.0" y="502.46666666666664" type="curve" smooth="yes"/>
      <point x="308.40000000000003" y="502.46666666666664"/>
      <point x="326.0" y="456.03333333333336"/>
      <point x="311.8333333333333" y="388.4666666666667" type="curve" smooth="yes"/>
      <point x="229.26666666666665" y="0.0" type="line"/>
      <point x="383.7666666666667" y="0.0" type="line"/>
      <point x="465.8" y="388.96666666666664" type="line" smooth="yes"/>
      <point x="482.23333333333335" y="467.4"/>
      <point x="519.5333333333333" y="503.1"/>
      <point x="567.5999999999999" y="503.1" type="curve" smooth="yes"/>
      <point x="625.6333333333333" y="503.1"/>
      <point x="650.8000000000001" y="449.8666666666667"/>
      <point x="650.8000000000001" y="358.6333333333333" type="curve" smooth="yes"/>
      <point x="650.8000000000001" y="122.26666666666667"/>
      <point x="562.2333333333332" y="-74.36666666666667"/>
      <point x="328.0" y="-74.36666666666667" type="curve" smooth="yes"/>
      <point x="182.93333333333334" y="-74.36666666666667" type="line" smooth="yes"/>
      <point x="61.93333333333333" y="-74.36666666666667"/>
      <point x="-32.86666666666667" y="-100.06666666666666"/>
      <point x="-32.86666666666667" y="-188.20000000000002" type="curve" smooth="yes"/>
      <point x="-32.86666666666667" y="-240.16666666666669"/>
      <point x="8.466666666666669" y="-268.0"/>
    </contour>
  </outline>
</glyph>
<glyph name="la-tamil" format="2">
  <advance width="1035.1333333333332"/>
  <unicode hex="0BB2"/>
  <note>
uni0BB2
</note>
  <anchor x="459.8" y="0.0" name="bottom"/>
  <anchor x="459.8" y="0.0" name="nukta"/>
  <anchor x="587.1" y="563.7333333333333" name="top"/>
  <anchor x="578.3666666666667" y="563.7333333333333" name="vedic"/>
  <outline>
    <contour>
      <point x="238.26666666666668" y="-5.0" type="curve" smooth="yes"/>
      <point x="347.43333333333334" y="-5.0"/>
      <point x="436.56666666666666" y="64.76666666666667"/>
      <point x="436.56666666666666" y="183.83333333333334" type="curve" smooth="yes"/>
      <point x="436.56666666666666" y="270.6333333333334"/>
      <point x="374.33333333333337" y="323.0"/>
      <point x="295.83333333333337" y="323.0" type="curve" smooth="yes"/>
      <point x="197.7" y="323.0"/>
      <point x="129.4" y="250.8"/>
      <point x="87.86666666666667" y="121.76666666666667" type="curve"/>
      <point x="122.56666666666666" y="99.46666666666667" type="line"/>
      <point x="148.93333333333334" y="192.9"/>
      <point x="193.03333333333333" y="240.7"/>
      <point x="242.36666666666667" y="240.7" type="curve" smooth="yes"/>
      <point x="288.6666666666667" y="240.7"/>
      <point x="306.56666666666666" y="203.73333333333332"/>
      <point x="306.56666666666666" y="164.9" type="curve" smooth="yes"/>
      <point x="306.56666666666666" y="112.16666666666667"/>
      <point x="278.93333333333334" y="61.733333333333334"/>
      <point x="214.83333333333334" y="61.733333333333334" type="curve" smooth="yes"/>
      <point x="147.20000000000002" y="61.733333333333334"/>
      <point x="105.73333333333333" y="136.13333333333333"/>
      <point x="105.73333333333333" y="215.26666666666665" type="curve" smooth="yes"/>
      <point x="105.73333333333333" y="385.5"/>
      <point x="229.46666666666667" y="505.9"/>
      <point x="396.6333333333333" y="505.9" type="curve" smooth="yes"/>
      <point x="531.8333333333333" y="505.9"/>
      <point x="581.2666666666667" y="419.43333333333334"/>
      <point x="551.3666666666667" y="277.06666666666666" type="curve" smooth="yes"/>
      <point x="532.9666666666667" y="191.9333333333333" type="line" smooth="yes"/>
      <point x="507.96666666666664" y="73.7"/>
      <point x="567.6999999999999" y="-3.9000000000000004"/>
      <point x="697.5" y="-3.9000000000000004" type="curve" smooth="yes"/>
      <point x="875.3666666666667" y="-3.9000000000000004"/>
      <point x="996.6333333333333" y="156.4"/>
      <point x="996.6333333333333" y="361.4" type="curve" smooth="yes"/>
      <point x="996.6333333333333" y="442.3666666666667"/>
      <point x="976.4" y="507.09999999999997"/>
      <point x="944.5333333333333" y="568.7333333333333" type="curve"/>
      <point x="885.8666666666667" y="540.0333333333333" type="line"/>
      <point x="913.7333333333333" y="482.8666666666667"/>
      <point x="931.9" y="423.1"/>
      <point x="931.9" y="351.5" type="curve" smooth="yes"/>
      <point x="931.9" y="194.36666666666667"/>
      <point x="836.3" y="61.5"/>
      <point x="735.2666666666667" y="61.5" type="curve" smooth="yes"/>
      <point x="675.6333333333334" y="61.5"/>
      <point x="666.5666666666667" y="114.26666666666667"/>
      <point x="681.8333333333334" y="180.23333333333332" type="curve" smooth="yes"/>
      <point x="705.7666666666667" y="285.9666666666667" type="line" smooth="yes"/>
      <point x="746.6666666666666" y="467.90000000000003"/>
      <point x="621.4666666666667" y="568.7333333333333"/>
      <point x="430.0" y="568.7333333333333" type="curve" smooth="yes"/>
      <point x="207.23333333333335" y="568.7333333333333"/>
      <point x="43.36666666666667" y="417.96666666666664"/>
      <point x="43.36666666666667" y="210.53333333333333" type="curve" smooth="yes"/>
      <point x="43.36666666666667" y="95.66666666666667"/>
      <point x="113.76666666666667" y="-5.0"/>
    </contour>
  </outline>
</glyph>
<glyph name="lla-tamil" format="2">
  <advance width="1208.0666666666666"/>
  <unicode hex="0BB3"/>
  <note>
uni0BB3
</note>
  <anchor x="589.1666666666666" y="0.0" name="bottom"/>
  <anchor x="1123.8333333333335" y="563.7333333333333" name="imatra"/>
  <anchor x="590.2666666666667" y="0.0" name="nukta"/>
  <anchor x="718.4333333333333" y="563.7333333333333" name="top"/>
  <anchor x="684.2666666666668" y="563.7333333333333" name="vedic"/>
  <outline>
    <contour>
      <point x="239.0" y="-5.0" type="curve" smooth="yes"/>
      <point x="348.16666666666663" y="-5.0"/>
      <point x="437.3" y="64.76666666666667"/>
      <point x="437.3" y="183.83333333333334" type="curve" smooth="yes"/>
      <point x="437.3" y="270.6333333333334"/>
      <point x="375.8" y="323.0"/>
      <point x="297.29999999999995" y="323.0" type="curve" smooth="yes"/>
      <point x="199.16666666666669" y="323.0"/>
      <point x="130.13333333333335" y="250.8"/>
      <point x="88.60000000000001" y="121.76666666666667" type="curve"/>
      <point x="123.3" y="99.46666666666667" type="line"/>
      <point x="149.66666666666666" y="192.9"/>
      <point x="193.76666666666668" y="240.7"/>
      <point x="243.10000000000002" y="240.7" type="curve" smooth="yes"/>
      <point x="289.40000000000003" y="240.7"/>
      <point x="307.3" y="203.73333333333332"/>
      <point x="307.3" y="164.9" type="curve" smooth="yes"/>
      <point x="307.3" y="112.16666666666667"/>
      <point x="279.6666666666667" y="61.733333333333334"/>
      <point x="215.56666666666666" y="61.733333333333334" type="curve" smooth="yes"/>
      <point x="147.93333333333334" y="61.733333333333334"/>
      <point x="106.46666666666667" y="136.13333333333333"/>
      <point x="106.46666666666667" y="215.26666666666665" type="curve" smooth="yes"/>
      <point x="106.46666666666667" y="381.06666666666666"/>
      <point x="224.33333333333334" y="505.53333333333336"/>
      <point x="390.40000000000003" y="505.53333333333336" type="curve" smooth="yes"/>
      <point x="525.1666666666666" y="505.53333333333336"/>
      <point x="619.9" y="428.2"/>
      <point x="593.5333333333333" y="292.8333333333333" type="curve"/>
      <point x="656.5333333333333" y="304.7333333333333" type="line"/>
      <point x="675.5666666666667" y="463.6666666666667"/>
      <point x="565.0333333333333" y="568.7333333333333"/>
      <point x="391.3333333333333" y="568.7333333333333" type="curve" smooth="yes"/>
      <point x="190.03333333333333" y="568.7333333333333"/>
      <point x="44.099999999999994" y="414.6333333333333"/>
      <point x="44.099999999999994" y="210.53333333333333" type="curve" smooth="yes"/>
      <point x="44.099999999999994" y="95.66666666666667"/>
      <point x="114.5" y="-5.0"/>
    </contour>
    <contour>
      <point x="531.1666666666666" y="0.0" type="line"/>
      <point x="682.5666666666667" y="0.0" type="line"/>
      <point x="789.9333333333334" y="503.1" type="line"/>
      <point x="956.1666666666666" y="503.1" type="line"/>
      <point x="848.8000000000001" y="0.0" type="line"/>
      <point x="1000.1999999999999" y="0.0" type="line"/>
      <point x="1107.5666666666666" y="503.1" type="line"/>
      <point x="1238.7" y="503.1" type="line"/>
      <point x="1251.3333333333335" y="563.7333333333333" type="line"/>
      <point x="684.8000000000001" y="563.7333333333333" type="line"/>
      <point x="638.6333333333333" y="342.5333333333333" type="line"/>
      <point x="607.2666666666667" y="354.96666666666664" type="line"/>
    </contour>
  </outline>
</glyph>
<glyph name="va-tamil" format="2">
  <advance width="1096.8666666666668"/>
  <unicode hex="0BB5"/>
  <note>
uni0BB5
</note>
  <anchor x="512.1333333333333" y="0.0" name="bottom"/>
  <anchor x="946.1333333333334" y="563.7333333333333" name="imatra"/>
  <anchor x="509.93333333333334" y="0.0" name="nukta"/>
  <anchor x="610.4" y="563.7333333333333" name="top"/>
  <anchor x="599.5333333333334" y="563.7333333333333" name="vedic"/>
  <outline>
    <contour>
      <point x="237.63333333333333" y="-5.0" type="curve" smooth="yes"/>
      <point x="346.8" y="-5.0"/>
      <point x="435.93333333333334" y="64.76666666666667"/>
      <point x="435.93333333333334" y="183.83333333333334" type="curve" smooth="yes"/>
      <point x="435.93333333333334" y="270.6333333333334"/>
      <point x="373.7" y="323.0"/>
      <point x="295.20000000000005" y="323.0" type="curve" smooth="yes"/>
      <point x="197.06666666666666" y="323.0"/>
      <point x="128.76666666666668" y="250.8"/>
      <point x="87.23333333333333" y="121.76666666666667" type="curve"/>
      <point x="121.93333333333334" y="99.46666666666667" type="line"/>
      <point x="148.29999999999998" y="192.9"/>
      <point x="192.4" y="240.7"/>
      <point x="241.73333333333335" y="240.7" type="curve" smooth="yes"/>
      <point x="288.03333333333336" y="240.7"/>
      <point x="305.93333333333334" y="203.73333333333332"/>
      <point x="305.93333333333334" y="164.9" type="curve" smooth="yes"/>
      <point x="305.93333333333334" y="112.16666666666667"/>
      <point x="278.3" y="61.733333333333334"/>
      <point x="214.20000000000002" y="61.733333333333334" type="curve" smooth="yes"/>
      <point x="146.56666666666666" y="61.733333333333334"/>
      <point x="105.10000000000001" y="136.13333333333333"/>
      <point x="105.10000000000001" y="215.26666666666665" type="curve" smooth="yes"/>
      <point x="105.10000000000001" y="381.7"/>
      <point x="243.66666666666666" y="505.9"/>
      <point x="400.0" y="505.9" type="curve" smooth="yes"/>
      <point x="514.0" y="505.9"/>
      <point x="591.1666666666667" y="435.46666666666664"/>
      <point x="590.4333333333334" y="310.5333333333333" type="curve" smooth="yes"/>
      <point x="589.7" y="199.76666666666665"/>
      <point x="540.3" y="119.13333333333333"/>
      <point x="475.06666666666666" y="44.0" type="curve"/>
      <point x="487.1666666666667" y="0.0" type="line"/>
      <point x="958.4" y="0.0" type="line"/>
      <point x="1077.7666666666667" y="563.7333333333333" type="line"/>
      <point x="924.7333333333333" y="563.7333333333333" type="line"/>
      <point x="817.7333333333333" y="61.0" type="line"/>
      <point x="594.2333333333333" y="61.0" type="line"/>
      <point x="678.1666666666666" y="130.6"/>
      <point x="737.4" y="213.43333333333334"/>
      <point x="737.4" y="326.26666666666665" type="curve" smooth="yes"/>
      <point x="737.4" y="484.6666666666667"/>
      <point x="599.9666666666666" y="568.7333333333333"/>
      <point x="423.8333333333333" y="568.7333333333333" type="curve" smooth="yes"/>
      <point x="212.53333333333333" y="568.7333333333333"/>
      <point x="42.733333333333334" y="414.16666666666663"/>
      <point x="42.733333333333334" y="210.53333333333333" type="curve" smooth="yes"/>
      <point x="42.733333333333334" y="95.66666666666667"/>
      <point x="113.13333333333333" y="-5.0"/>
    </contour>
  </outline>
</glyph>
<glyph name="ssa-tamil" format="2">
  <advance width="1434.0333333333333"/>
  <unicode hex="0BB7"/>
  <note>
uni0BB7
</note>
  <anchor x="660.9" y="0.0" name="bottom"/>
  <anchor x="559.2" y="0.0" name="nukta"/>
  <anchor x="804.2333333333333" y="563.7333333333333" name="top"/>
  <anchor x="780.4666666666666" y="563.7333333333333" name="vedic"/>
  <outline>
    <contour>
      <point x="237.63333333333333" y="-5.0" type="curve" smooth="yes"/>
      <point x="346.8" y="-5.0"/>
      <point x="435.93333333333334" y="64.76666666666667"/>
      <point x="435.93333333333334" y="183.83333333333334" type="curve" smooth="yes"/>
      <point x="435.93333333333334" y="270.6333333333334"/>
      <point x="373.7" y="323.0"/>
      <point x="295.20000000000005" y="323.0" type="curve" smooth="yes"/>
      <point x="197.06666666666666" y="323.0"/>
      <point x="128.76666666666668" y="250.8"/>
      <point x="87.23333333333333" y="121.76666666666667" type="curve"/>
      <point x="121.93333333333334" y="99.46666666666667" type="line"/>
      <point x="148.29999999999998" y="192.9"/>
      <point x="192.4" y="240.7"/>
      <point x="241.73333333333335" y="240.7" type="curve" smooth="yes"/>
      <point x="288.03333333333336" y="240.7"/>
      <point x="305.93333333333334" y="203.73333333333332"/>
      <point x="305.93333333333334" y="164.9" type="curve" smooth="yes"/>
      <point x="305.93333333333334" y="112.16666666666667"/>
      <point x="278.3" y="61.733333333333334"/>
      <point x="214.20000000000002" y="61.733333333333334" type="curve" smooth="yes"/>
      <point x="146.56666666666666" y="61.733333333333334"/>
      <point x="105.10000000000001" y="136.13333333333333"/>
      <point x="105.10000000000001" y="215.26666666666665" type="curve" smooth="yes"/>
      <point x="105.10000000000001" y="381.7"/>
      <point x="243.66666666666666" y="505.9"/>
      <point x="400.0" y="505.9" type="curve" smooth="yes"/>
      <point x="514.0" y="505.9"/>
      <point x="591.1666666666667" y="435.46666666666664"/>
      <point x="590.4333333333334" y="310.53333333333336" type="curve" smooth="yes"/>
      <point x="589.7" y="199.76666666666665"/>
      <point x="540.3" y="119.13333333333333"/>
      <point x="475.06666666666666" y="44.0" type="curve"/>
      <point x="487.1666666666667" y="0.0" type="line"/>
      <point x="1321.3333333333333" y="0.0" type="line"/>
      <point x="1390.5" y="324.3666666666667" type="line"/>
      <point x="1236.0333333333333" y="266.7666666666667" type="line"/>
      <point x="1191.7666666666667" y="61.0" type="line"/>
      <point x="594.2333333333333" y="61.0" type="line"/>
      <point x="678.1666666666666" y="130.6"/>
      <point x="737.4" y="213.43333333333334"/>
      <point x="737.4" y="326.26666666666665" type="curve" smooth="yes"/>
      <point x="737.4" y="484.6666666666667"/>
      <point x="599.9666666666667" y="568.7333333333333"/>
      <point x="423.8333333333333" y="568.7333333333333" type="curve" smooth="yes"/>
      <point x="212.53333333333333" y="568.7333333333333"/>
      <point x="42.733333333333334" y="414.1666666666667"/>
      <point x="42.733333333333334" y="210.53333333333333" type="curve" smooth="yes"/>
      <point x="42.733333333333334" y="95.66666666666667"/>
      <point x="113.13333333333333" y="-5.0"/>
    </contour>
    <contour>
      <point x="855.2333333333333" y="-302.3666666666667" type="line"/>
      <point x="998.5333333333334" y="-302.3666666666667" type="line"/>
      <point x="1148.8666666666666" y="402.3" type="line" smooth="yes"/>
      <point x="1171.7666666666667" y="508.53333333333336"/>
      <point x="1119.8666666666668" y="569.3666666666667"/>
      <point x="1018.7333333333333" y="569.3666666666667" type="curve" smooth="yes"/>
      <point x="897.5" y="569.3666666666667"/>
      <point x="822.7" y="476.0"/>
      <point x="822.7" y="368.90000000000003" type="curve" smooth="yes"/>
      <point x="822.7" y="274.6333333333333"/>
      <point x="892.5666666666666" y="195.89999999999998"/>
      <point x="1030.7" y="195.89999999999998" type="curve" smooth="yes"/>
      <point x="1153.6666666666665" y="195.89999999999998"/>
      <point x="1252.6" y="230.0"/>
      <point x="1388.8666666666668" y="315.83333333333337" type="curve"/>
      <point x="1391.1333333333334" y="328.73333333333335" type="line"/>
      <point x="1365.3333333333333" y="362.0333333333333" type="line"/>
      <point x="1248.9333333333334" y="291.43333333333334"/>
      <point x="1147.8666666666666" y="250.46666666666667"/>
      <point x="1040.7" y="250.46666666666667" type="curve" smooth="yes"/>
      <point x="926.8333333333334" y="250.46666666666667"/>
      <point x="882.7" y="299.93333333333334"/>
      <point x="882.7" y="376.09999999999997" type="curve" smooth="yes"/>
      <point x="882.7" y="431.33333333333337"/>
      <point x="913.2333333333333" y="481.3"/>
      <point x="962.1" y="481.3" type="curve" smooth="yes"/>
      <point x="999.0666666666667" y="481.3"/>
      <point x="1015.2" y="452.93333333333334"/>
      <point x="1007.5666666666667" y="415.4" type="curve" smooth="yes"/>
    </contour>
  </outline>
</glyph>
<glyph name="ha-tamil" format="2">
  <advance width="1596.3999999999999"/>
  <unicode hex="0BB9"/>
  <note>
uni0BB9
</note>
  <anchor x="788.7333333333332" y="0.0" name="bottom"/>
  <anchor x="758.5666666666666" y="-144.23333333333332" name="nukta"/>
  <anchor x="888.5333333333333" y="563.7333333333333" name="top"/>
  <anchor x="869.4000000000001" y="563.7333333333333" name="vedic"/>
  <outline>
    <contour>
      <point x="120.80000000000001" y="-283.40000000000003" type="curve"/>
      <point x="136.6" y="-197.39999999999998"/>
      <point x="171.13333333333333" y="-143.86666666666667"/>
      <point x="276.43333333333334" y="-143.86666666666667" type="curve" smooth="yes"/>
      <point x="1042.2666666666667" y="-143.86666666666667" type="line" smooth="yes"/>
      <point x="1376.2" y="-143.86666666666667"/>
      <point x="1558.9666666666667" y="44.93333333333333"/>
      <point x="1558.9666666666667" y="326.96666666666664" type="curve" smooth="yes"/>
      <point x="1558.9666666666667" y="484.93333333333334"/>
      <point x="1473.1000000000001" y="568.7333333333333"/>
      <point x="1350.7333333333333" y="568.7333333333333" type="curve" smooth="yes"/>
      <point x="1247.7333333333333" y="568.7333333333333"/>
      <point x="1191.9666666666667" y="512.1666666666666"/>
      <point x="1160.8666666666668" y="458.3666666666667" type="curve"/>
      <point x="1149.4" y="519.0666666666667"/>
      <point x="1107.5" y="568.1"/>
      <point x="1028.1333333333334" y="568.1" type="curve" smooth="yes"/>
      <point x="937.3" y="568.1"/>
      <point x="877.3333333333334" y="507.59999999999997"/>
      <point x="855.9" y="404.7" type="curve" smooth="yes"/>
      <point x="783.5" y="61.0" type="line"/>
      <point x="594.2333333333333" y="61.0" type="line"/>
      <point x="678.1666666666666" y="130.6"/>
      <point x="737.4" y="213.43333333333334"/>
      <point x="737.4" y="326.26666666666665" type="curve" smooth="yes"/>
      <point x="737.4" y="484.6666666666667"/>
      <point x="599.9666666666667" y="568.7333333333333"/>
      <point x="423.8333333333333" y="568.7333333333333" type="curve" smooth="yes"/>
      <point x="212.53333333333333" y="568.7333333333333"/>
      <point x="42.733333333333334" y="414.1666666666667"/>
      <point x="42.733333333333334" y="210.53333333333333" type="curve" smooth="yes"/>
      <point x="42.733333333333334" y="95.66666666666667"/>
      <point x="113.13333333333333" y="-5.0"/>
      <point x="237.63333333333333" y="-5.0" type="curve" smooth="yes"/>
      <point x="346.8" y="-5.0"/>
      <point x="435.93333333333334" y="64.76666666666667"/>
      <point x="435.93333333333334" y="183.83333333333334" type="curve" smooth="yes"/>
      <point x="435.93333333333334" y="270.6333333333334"/>
      <point x="373.7" y="323.0"/>
      <point x="295.20000000000005" y="323.0" type="curve" smooth="yes"/>
      <point x="197.06666666666666" y="323.0"/>
      <point x="128.76666666666668" y="250.8"/>
      <point x="87.23333333333333" y="121.76666666666667" type="curve"/>
      <point x="121.93333333333334" y="99.46666666666667" type="line"/>
      <point x="148.29999999999998" y="192.9"/>
      <point x="192.4" y="240.7"/>
      <point x="241.73333333333335" y="240.7" type="curve" smooth="yes"/>
      <point x="288.03333333333336" y="240.7"/>
      <point x="305.93333333333334" y="203.73333333333332"/>
      <point x="305.93333333333334" y="164.9" type="curve" smooth="yes"/>
      <point x="305.93333333333334" y="112.16666666666667"/>
      <point x="278.3" y="61.733333333333334"/>
      <point x="214.20000000000002" y="61.733333333333334" type="curve" smooth="yes"/>
      <point x="146.56666666666666" y="61.733333333333334"/>
      <point x="105.10000000000001" y="136.13333333333333"/>
      <point x="105.10000000000001" y="215.26666666666665" type="curve" smooth="yes"/>
      <point x="105.10000000000001" y="381.7"/>
      <point x="243.66666666666666" y="505.9"/>
      <point x="400.0" y="505.9" type="curve" smooth="yes"/>
      <point x="514.0" y="505.9"/>
      <point x="591.1666666666667" y="435.46666666666664"/>
      <point x="590.4333333333334" y="310.53333333333336" type="curve" smooth="yes"/>
      <point x="589.7" y="199.76666666666665"/>
      <point x="540.3" y="119.13333333333333"/>
      <point x="475.06666666666666" y="44.0" type="curve"/>
      <point x="487.1666666666667" y="0.0" type="line"/>
      <point x="836.6666666666666" y="0.0" type="line"/>
      <point x="921.0666666666667" y="397.1666666666667" type="line" smooth="yes"/>
      <point x="935.5" y="463.7"/>
      <point x="962.8333333333334" y="502.46666666666664"/>
      <point x="1012.2333333333333" y="502.46666666666664" type="curve" smooth="yes"/>
      <point x="1066.6333333333332" y="502.46666666666664"/>
      <point x="1084.2333333333333" y="456.03333333333336"/>
      <point x="1070.0666666666668" y="388.4666666666667" type="curve" smooth="yes"/>
      <point x="987.5" y="0.0" type="line"/>
      <point x="1142.0" y="0.0" type="line"/>
      <point x="1224.0333333333333" y="388.96666666666664" type="line" smooth="yes"/>
      <point x="1240.4666666666667" y="467.4"/>
      <point x="1277.7666666666667" y="503.1"/>
      <point x="1325.8333333333333" y="503.1" type="curve" smooth="yes"/>
      <point x="1383.8666666666668" y="503.1"/>
      <point x="1409.0333333333335" y="449.8666666666667"/>
      <point x="1409.0333333333335" y="358.6333333333333" type="curve" smooth="yes"/>
      <point x="1409.0333333333335" y="115.16666666666667"/>
      <point x="1296.6333333333334" y="-86.60000000000001"/>
      <point x="1030.1333333333334" y="-86.60000000000001" type="curve" smooth="yes"/>
      <point x="230.93333333333334" y="-86.60000000000001" type="line" smooth="yes"/>
      <point x="109.93333333333334" y="-86.60000000000001"/>
      <point x="15.133333333333333" y="-115.46666666666667"/>
      <point x="15.133333333333333" y="-203.6" type="curve" smooth="yes"/>
      <point x="15.133333333333333" y="-255.56666666666666"/>
      <point x="56.46666666666667" y="-283.40000000000003"/>
    </contour>
  </outline>
</glyph>
<glyph name="aaMatra-tamil" format="2">
  <advance width="616.5333333333333"/>
  <unicode hex="0BBE"/>
  <note>
uni0BBE
</note>
  <anchor x="267.9" y="0.0" name="bottom"/>
  <anchor x="266.9" y="0.0" name="nukta"/>
  <anchor x="380.9" y="563.7333333333333" name="top"/>
  <anchor x="380.9" y="563.7333333333333" name="vedic"/>
  <outline>
    <contour>
      <point x="19.1" y="0.0" type="line"/>
      <point x="86.63333333333333" y="0.0" type="line"/>
      <point x="193.63333333333333" y="503.1" type="line"/>
      <point x="360.4666666666667" y="503.1" type="line"/>
      <point x="253.46666666666667" y="0.0" type="line"/>
      <point x="405.23333333333335" y="0.0" type="line"/>
      <point x="512.2333333333333" y="503.1" type="line"/>
      <point x="647.1666666666666" y="503.1" type="line"/>
      <point x="659.5333333333333" y="563.7333333333333" type="line"/>
      <point x="139.1" y="563.7333333333333" type="line"/>
    </contour>
  </outline>
</glyph>
<glyph name="iMatra-tamil" format="2">
  <advance width="216.06666666666666"/>
  <unicode hex="0BBF"/>
  <note>
uni0BBF
</note>
  <anchor x="-59.33333333333334" y="854.4333333333333" name="top"/>
  <outline>
    <contour>
      <point x="11.433333333333334" y="0.0" type="line"/>
      <point x="78.33333333333333" y="0.0" type="line"/>
      <point x="195.26666666666668" y="550.3000000000001" type="line" smooth="yes"/>
      <point x="232.70000000000002" y="727.8333333333334"/>
      <point x="131.86666666666667" y="854.4333333333333"/>
      <point x="-59.33333333333334" y="854.4333333333333" type="curve" smooth="yes"/>
      <point x="-202.53333333333336" y="854.4333333333333"/>
      <point x="-305.2" y="762.4666666666666"/>
      <point x="-305.2" y="647.0333333333333" type="curve" smooth="yes"/>
      <point x="-305.2" y="566.2666666666667"/>
      <point x="-254.30000000000004" y="513.3333333333334"/>
      <point x="-168.76666666666665" y="513.3333333333334" type="curve" smooth="yes"/>
      <point x="-166.4" y="513.3333333333334" type="line"/>
      <point x="-155.66666666666669" y="563.7333333333333" type="line"/>
      <point x="-157.66666666666669" y="563.7333333333333" type="line" smooth="yes"/>
      <point x="-200.83333333333334" y="563.7333333333333"/>
      <point x="-230.63333333333333" y="584.9333333333333"/>
      <point x="-230.63333333333333" y="628.1666666666666" type="curve" smooth="yes"/>
      <point x="-230.63333333333333" y="693.5666666666666"/>
      <point x="-160.0" y="731.8333333333333"/>
      <point x="-70.43333333333332" y="731.8333333333333" type="curve" smooth="yes"/>
      <point x="64.0" y="731.8333333333333"/>
      <point x="150.43333333333334" y="652.2666666666667"/>
      <point x="122.63333333333333" y="521.9" type="curve" smooth="yes"/>
    </contour>
  </outline>
</glyph>
<glyph name="iiMatra-tamil" format="2">
  <unicode hex="0BC0"/>
  <note>
uni0BC0
</note>
  <anchor x="61.0" y="563.7333333333333" name="_imatra"/>
  <anchor x="119.93333333333334" y="904.7333333333333" name="top"/>
  <outline>
    <contour>
      <point x="28.833333333333336" y="503.8333333333333" type="curve" smooth="yes"/>
      <point x="48.36666666666667" y="503.8333333333333" type="line"/>
      <point x="61.0" y="563.7333333333333" type="line"/>
      <point x="40.66666666666667" y="563.7333333333333" type="line" smooth="yes"/>
      <point x="-20.76666666666667" y="563.7333333333333"/>
      <point x="-60.2" y="609.3333333333333"/>
      <point x="-60.2" y="672.4666666666667" type="curve" smooth="yes"/>
      <point x="-60.2" y="769.4333333333334"/>
      <point x="10.633333333333333" y="843.6333333333333"/>
      <point x="110.46666666666667" y="843.6333333333333" type="curve" smooth="yes"/>
      <point x="163.43333333333334" y="843.6333333333333"/>
      <point x="198.83333333333334" y="812.3666666666666"/>
      <point x="198.83333333333334" y="765.0999999999999" type="curve" smooth="yes"/>
      <point x="198.83333333333334" y="715.8333333333333"/>
      <point x="171.5" y="681.2666666666667"/>
      <point x="127.70000000000002" y="681.2666666666667" type="curve" smooth="yes"/>
      <point x="52.86666666666667" y="681.2666666666667"/>
      <point x="60.266666666666666" y="784.9333333333334"/>
      <point x="116.6" y="867.2666666666667" type="curve"/>
      <point x="66.9" y="871.2666666666667" type="line"/>
      <point x="-27.5" y="747.4666666666667"/>
      <point x="-2.1999999999999997" y="605.1"/>
      <point x="139.63333333333333" y="605.1" type="curve" smooth="yes"/>
      <point x="228.96666666666667" y="605.1"/>
      <point x="303.93333333333334" y="665.9333333333334"/>
      <point x="303.93333333333334" y="758.7333333333333" type="curve" smooth="yes"/>
      <point x="303.93333333333334" y="853.4666666666667"/>
      <point x="225.6" y="904.7333333333333"/>
      <point x="119.93333333333334" y="904.7333333333333" type="curve" smooth="yes"/>
      <point x="-14.366666666666667" y="904.7333333333333"/>
      <point x="-125.1" y="801.0666666666666"/>
      <point x="-125.1" y="665.9333333333333" type="curve" smooth="yes"/>
      <point x="-125.1" y="569.0"/>
      <point x="-62.766666666666666" y="503.8333333333333"/>
    </contour>
  </outline>
</glyph>
<glyph name="uMatra-tamil" format="2">
  <advance width="524.6999999999999"/>
  <unicode hex="0BC1"/>
  <note>
uni0BC1
</note>
  <anchor x="266.5" y="563.7333333333333" name="top"/>
  <outline>
    <contour>
      <point x="317.33333333333337" y="223.26666666666668" type="curve" smooth="yes"/>
      <point x="407.5" y="223.26666666666668"/>
      <point x="496.1333333333333" y="261.3666666666667"/>
      <point x="522.3" y="381.03333333333336" type="curve" smooth="yes"/>
      <point x="561.7666666666667" y="563.7333333333333" type="line"/>
      <point x="-210.63333333333333" y="563.7333333333333" type="line"/>
      <point x="-173.83333333333334" y="503.1" type="line"/>
      <point x="397.26666666666665" y="503.1" type="line"/>
      <point x="370.43333333333334" y="378.66666666666663" type="line" smooth="yes"/>
      <point x="357.90000000000003" y="321.1666666666667"/>
      <point x="327.8666666666667" y="296.90000000000003"/>
      <point x="285.1666666666667" y="296.90000000000003" type="curve" smooth="yes"/>
      <point x="236.29999999999998" y="296.90000000000003"/>
      <point x="214.16666666666666" y="335.90000000000003"/>
      <point x="230.7" y="412.93333333333334" type="curve" smooth="yes"/>
      <point x="256.1666666666667" y="532.1666666666666" type="line"/>
      <point x="191.26666666666665" y="532.1666666666666" type="line"/>
      <point x="167.43333333333334" y="419.09999999999997" type="line" smooth="yes"/>
      <point x="140.53333333333333" y="291.3333333333333"/>
      <point x="204.23333333333335" y="223.26666666666668"/>
    </contour>
  </outline>
</glyph>
<glyph name="uuMatra-tamil" format="2">
  <advance width="863.7666666666667"/>
  <unicode hex="0BC2"/>
  <note>
uni0BC2
</note>
  <anchor x="517.1" y="783.8333333333334" name="top"/>
  <outline>
    <contour>
      <point x="357.1333333333333" y="7.800000000000001" type="curve" smooth="yes"/>
      <point x="613.7333333333333" y="7.800000000000001"/>
      <point x="838.2333333333333" y="188.4"/>
      <point x="838.2333333333333" y="466.8333333333333" type="curve" smooth="yes"/>
      <point x="838.2333333333333" y="676.1"/>
      <point x="702.9666666666667" y="783.8333333333334"/>
      <point x="516.4666666666667" y="783.8333333333334" type="curve" smooth="yes"/>
      <point x="332.40000000000003" y="783.8333333333334"/>
      <point x="226.23333333333332" y="664.3333333333334"/>
      <point x="199.33333333333334" y="539.7333333333333" type="curve" smooth="yes"/>
      <point x="173.13333333333333" y="419.09999999999997" type="line" smooth="yes"/>
      <point x="145.6" y="291.3333333333333"/>
      <point x="209.93333333333334" y="223.26666666666668"/>
      <point x="323.0333333333333" y="223.26666666666668" type="curve" smooth="yes"/>
      <point x="413.2" y="223.26666666666668"/>
      <point x="501.8333333333333" y="261.3666666666667"/>
      <point x="528.0" y="381.03333333333336" type="curve" smooth="yes"/>
      <point x="567.4666666666667" y="563.7333333333333" type="line"/>
      <point x="-209.36666666666667" y="563.7333333333333" type="line"/>
      <point x="-177.0" y="503.1" type="line"/>
      <point x="402.9666666666667" y="503.1" type="line"/>
      <point x="376.1333333333334" y="378.66666666666663" type="line" smooth="yes"/>
      <point x="363.59999999999997" y="321.1666666666667"/>
      <point x="333.5666666666667" y="296.90000000000003"/>
      <point x="290.8666666666667" y="296.90000000000003" type="curve" smooth="yes"/>
      <point x="242.0" y="296.90000000000003"/>
      <point x="219.86666666666667" y="335.90000000000003"/>
      <point x="236.4" y="412.93333333333334" type="curve" smooth="yes"/>
      <point x="262.6" y="536.5666666666667" type="line" smooth="yes"/>
      <point x="282.5" y="629.9000000000001"/>
      <point x="360.83333333333337" y="712.0333333333333"/>
      <point x="481.0" y="712.0333333333333" type="curve" smooth="yes"/>
      <point x="613.9666666666667" y="712.0333333333333"/>
      <point x="684.9" y="622.2666666666667"/>
      <point x="684.9" y="490.56666666666666" type="curve" smooth="yes"/>
      <point x="684.9" y="263.9"/>
      <point x="553.9333333333334" y="76.43333333333334"/>
      <point x="346.93333333333334" y="76.43333333333334" type="curve" smooth="yes"/>
      <point x="226.53333333333336" y="76.43333333333334"/>
      <point x="149.46666666666667" y="117.86666666666667"/>
      <point x="89.16666666666666" y="211.76666666666668" type="curve"/>
      <point x="32.8" y="171.2" type="line"/>
      <point x="98.63333333333333" y="67.76666666666668"/>
      <point x="195.16666666666666" y="7.800000000000001"/>
    </contour>
  </outline>
</glyph>
<glyph name="eMatra-tamil" format="2">
  <advance width="804.5"/>
  <unicode hex="0BC6"/>
  <note>
uni0BC6
</note>
  <outline>
    <contour>
      <point x="278.73333333333335" y="-5.0" type="curve" smooth="yes"/>
      <point x="387.9" y="-5.0"/>
      <point x="480.2" y="64.13333333333333"/>
      <point x="480.2" y="185.73333333333332" type="curve" smooth="yes"/>
      <point x="480.2" y="275.06666666666666"/>
      <point x="416.16666666666663" y="326.8"/>
      <point x="337.0333333333333" y="326.8" type="curve" smooth="yes"/>
      <point x="238.9" y="326.8"/>
      <point x="169.23333333333335" y="254.6"/>
      <point x="127.7" y="125.56666666666666" type="curve"/>
      <point x="162.4" y="103.26666666666667" type="line"/>
      <point x="188.76666666666668" y="196.70000000000002"/>
      <point x="233.5" y="244.5"/>
      <point x="282.8333333333333" y="244.5" type="curve" smooth="yes"/>
      <point x="329.1333333333333" y="244.5"/>
      <point x="350.2" y="208.8"/>
      <point x="350.2" y="166.8" type="curve" smooth="yes"/>
      <point x="350.2" y="109.63333333333334"/>
      <point x="319.4" y="61.733333333333334"/>
      <point x="255.29999999999998" y="61.733333333333334" type="curve" smooth="yes"/>
      <point x="184.0" y="61.733333333333334"/>
      <point x="133.36666666666667" y="146.33333333333331"/>
      <point x="133.36666666666667" y="285.6" type="curve" smooth="yes"/>
      <point x="133.36666666666667" y="517.6333333333333"/>
      <point x="286.53333333333336" y="730.0"/>
      <point x="500.6" y="730.0" type="curve" smooth="yes"/>
      <point x="662.5666666666666" y="730.0"/>
      <point x="732.5" y="627.3333333333334"/>
      <point x="694.3666666666667" y="448.4666666666667" type="curve" smooth="yes"/>
      <point x="599.6" y="0.0" type="line"/>
      <point x="666.7666666666668" y="0.0" type="line"/>
      <point x="769.4333333333334" y="483.79999999999995" type="line" smooth="yes"/>
      <point x="814.5666666666667" y="695.4"/>
      <point x="731.1" y="851.2666666666667"/>
      <point x="519.0666666666667" y="851.2666666666667" type="curve" smooth="yes"/>
      <point x="238.26666666666668" y="851.2666666666667"/>
      <point x="71.36666666666666" y="563.0666666666667"/>
      <point x="71.36666666666666" y="282.3333333333333" type="curve" smooth="yes"/>
      <point x="71.36666666666666" y="107.33333333333333"/>
      <point x="150.56666666666666" y="-5.0"/>
    </contour>
  </outline>
</glyph>
<glyph name="eeMatra-tamil" format="2">
  <advance width="624.5666666666667"/>
  <unicode hex="0BC7"/>
  <note>
uni0BC7
</note>
  <outline>
    <contour>
      <point x="340.43333333333334" y="-5.0" type="curve" smooth="yes"/>
      <point x="464.7333333333333" y="-5.0"/>
      <point x="558.2333333333333" y="69.76666666666667"/>
      <point x="558.2333333333333" y="188.2" type="curve" smooth="yes"/>
      <point x="558.2333333333333" y="274.3666666666666"/>
      <point x="498.90000000000003" y="328.5333333333333"/>
      <point x="417.2333333333333" y="328.5333333333333" type="curve" smooth="yes"/>
      <point x="313.93333333333334" y="328.5333333333333"/>
      <point x="232.63333333333333" y="247.16666666666669"/>
      <point x="193.1" y="93.5" type="curve"/>
      <point x="230.36666666666667" y="70.46666666666665" type="line"/>
      <point x="263.0" y="190.23333333333335"/>
      <point x="307.03333333333336" y="246.23333333333335"/>
      <point x="361.59999999999997" y="246.23333333333335" type="curve" smooth="yes"/>
      <point x="402.8333333333333" y="246.23333333333335"/>
      <point x="428.8666666666667" y="215.7"/>
      <point x="428.8666666666667" y="169.9" type="curve" smooth="yes"/>
      <point x="428.8666666666667" y="98.93333333333332"/>
      <point x="382.3666666666667" y="61.733333333333334"/>
      <point x="323.33333333333337" y="61.733333333333334" type="curve" smooth="yes"/>
      <point x="226.33333333333334" y="61.733333333333334"/>
      <point x="137.6" y="183.4"/>
      <point x="137.6" y="352.6666666666667" type="curve" smooth="yes"/>
      <point x="137.6" y="540.6666666666666"/>
      <point x="284.4666666666667" y="783.9"/>
      <point x="460.40000000000003" y="783.9" type="curve" smooth="yes"/>
      <point x="515.6666666666666" y="783.9"/>
      <point x="544.9666666666667" y="749.6666666666666"/>
      <point x="544.9666666666667" y="703.1666666666666" type="curve" smooth="yes"/>
      <point x="544.9666666666667" y="647.6333333333333"/>
      <point x="512.8" y="599.4"/>
      <point x="458.66666666666663" y="599.4" type="curve" smooth="yes"/>
      <point x="387.66666666666663" y="599.4"/>
      <point x="372.09999999999997" y="692.5333333333333"/>
      <point x="387.93333333333334" y="784.7333333333333" type="curve"/>
      <point x="343.2" y="762.8" type="line"/>
      <point x="322.0" y="628.3333333333333"/>
      <point x="361.66666666666663" y="517.1"/>
      <point x="485.56666666666666" y="517.1" type="curve" smooth="yes"/>
      <point x="589.0666666666666" y="517.1"/>
      <point x="671.2333333333332" y="588.4333333333334"/>
      <point x="671.2333333333332" y="697.9666666666667" type="curve" smooth="yes"/>
      <point x="671.2333333333332" y="800.1666666666667"/>
      <point x="590.4333333333333" y="850.6333333333333"/>
      <point x="496.2" y="850.6333333333333" type="curve" smooth="yes"/>
      <point x="254.53333333333336" y="850.6333333333333"/>
      <point x="73.86666666666666" y="578.4333333333334"/>
      <point x="73.86666666666666" y="343.4" type="curve" smooth="yes"/>
      <point x="73.86666666666666" y="134.73333333333332"/>
      <point x="195.23333333333332" y="-5.0"/>
    </contour>
  </outline>
</glyph>
<glyph name="aiMatra-tamil" format="2">
  <advance width="1261.9666666666667"/>
  <unicode hex="0BC8"/>
  <note>
uni0BC8
</note>
  <outline>
    <contour>
      <point x="955.0333333333333" y="-15.333333333333332" type="line"/>
      <point x="1108.7333333333333" y="48.46666666666667"/>
      <point x="1216.4666666666667" y="147.36666666666667"/>
      <point x="1216.4666666666667" y="309.6666666666667" type="curve" smooth="yes"/>
      <point x="1216.4666666666667" y="486.6666666666667"/>
      <point x="1067.9" y="568.7333333333333"/>
      <point x="891.6666666666667" y="568.7333333333333" type="curve" smooth="yes"/>
      <point x="693.6666666666666" y="568.7333333333333"/>
      <point x="496.56666666666666" y="392.6333333333333"/>
      <point x="496.56666666666666" y="178.03333333333333" type="curve" smooth="yes"/>
      <point x="496.56666666666666" y="82.69999999999999"/>
      <point x="535.4000000000001" y="-4.633333333333334"/>
      <point x="644.5666666666666" y="-4.633333333333334" type="curve" smooth="yes"/>
      <point x="765.4333333333334" y="-4.633333333333334"/>
      <point x="860.7333333333333" y="85.26666666666667"/>
      <point x="860.7333333333333" y="233.5666666666667" type="curve" smooth="yes"/>
      <point x="860.7333333333333" y="435.96666666666664"/>
      <point x="716.1333333333333" y="568.7333333333333"/>
      <point x="463.3666666666667" y="568.7333333333333" type="curve" smooth="yes"/>
      <point x="239.86666666666667" y="568.7333333333333"/>
      <point x="40.833333333333336" y="414.6333333333333"/>
      <point x="40.833333333333336" y="203.56666666666666" type="curve" smooth="yes"/>
      <point x="40.833333333333336" y="88.69999999999999"/>
      <point x="104.26666666666667" y="-5.0"/>
      <point x="228.76666666666665" y="-5.0" type="curve" smooth="yes"/>
      <point x="337.93333333333334" y="-5.0"/>
      <point x="430.23333333333335" y="64.76666666666667"/>
      <point x="430.23333333333335" y="183.83333333333334" type="curve" smooth="yes"/>
      <point x="430.23333333333335" y="270.6333333333334"/>
      <point x="368.7333333333333" y="323.0"/>
      <point x="290.23333333333335" y="323.0" type="curve" smooth="yes"/>
      <point x="192.1" y="323.0"/>
      <point x="123.06666666666668" y="250.8"/>
      <point x="81.53333333333333" y="121.76666666666667" type="curve"/>
      <point x="116.23333333333333" y="99.46666666666667" type="line"/>
      <point x="142.6" y="192.9"/>
      <point x="186.7" y="240.7"/>
      <point x="236.03333333333333" y="240.7" type="curve" smooth="yes"/>
      <point x="282.33333333333337" y="240.7"/>
      <point x="300.23333333333335" y="203.73333333333332"/>
      <point x="300.23333333333335" y="164.9" type="curve" smooth="yes"/>
      <point x="300.23333333333335" y="112.16666666666667"/>
      <point x="269.43333333333334" y="61.733333333333334"/>
      <point x="205.33333333333334" y="61.733333333333334" type="curve" smooth="yes"/>
      <point x="137.70000000000002" y="61.733333333333334"/>
      <point x="103.2" y="129.16666666666669"/>
      <point x="103.2" y="208.3" type="curve" smooth="yes"/>
      <point x="103.2" y="382.9666666666667"/>
      <point x="270.43333333333334" y="507.0"/>
      <point x="451.1" y="507.0" type="curve" smooth="yes"/>
      <point x="647.7666666666668" y="507.0"/>
      <point x="723.0666666666666" y="400.8666666666667"/>
      <point x="722.3333333333334" y="239.43333333333334" type="curve" smooth="yes"/>
      <point x="721.9666666666667" y="133.2"/>
      <point x="681.1" y="64.63333333333333"/>
      <point x="621.0333333333334" y="64.63333333333333" type="curve" smooth="yes"/>
      <point x="580.2666666666667" y="64.63333333333333"/>
      <point x="559.5666666666667" y="112.19999999999999"/>
      <point x="559.5666666666667" y="179.86666666666667" type="curve" smooth="yes"/>
      <point x="559.5666666666667" y="362.4666666666667"/>
      <point x="724.1333333333333" y="507.0"/>
      <point x="880.7666666666667" y="507.0" type="curve" smooth="yes"/>
      <point x="999.8333333333333" y="507.0"/>
      <point x="1079.7" y="444.6666666666667"/>
      <point x="1079.7" y="318.56666666666666" type="curve" smooth="yes"/>
      <point x="1079.7" y="188.39999999999998"/>
      <point x="1033.0666666666666" y="108.96666666666665"/>
      <point x="931.2" y="24.3" type="curve"/>
    </contour>
  </outline>
</glyph>
<glyph name="halant-tamil" format="2">
  <unicode hex="0BCD"/>
  <note>
uni0BCD
</note>
  <anchor x="61.0" y="563.7333333333333" name="_top"/>
  <outline>
    <contour>
      <point x="92.8" y="635.7" type="curve" smooth="yes"/>
      <point x="139.86666666666667" y="635.7"/>
      <point x="178.03333333333333" y="673.1333333333333"/>
      <point x="178.03333333333333" y="717.8333333333333" type="curve" smooth="yes"/>
      <point x="178.03333333333333" y="761.5333333333333"/>
      <point x="139.86666666666667" y="798.9666666666667"/>
      <point x="92.8" y="798.9666666666667" type="curve" smooth="yes"/>
      <point x="45.733333333333334" y="798.9666666666667"/>
      <point x="7.933333333333333" y="761.5333333333333"/>
      <point x="7.933333333333333" y="717.8333333333333" type="curve" smooth="yes"/>
      <point x="7.933333333333333" y="673.1333333333333"/>
      <point x="45.733333333333334" y="635.7"/>
    </contour>
  </outline>
</glyph>
<glyph name="om-tamil" format="2">
  <advance width="987.3000000000001"/>
  <unicode hex="0BD0"/>
  <note>
uni0BD0
</note>
  <outline>
    <contour>
      <point x="230.96666666666667" y="-388.6333333333333" type="curve" smooth="yes"/>
      <point x="530.1" y="-388.6333333333333"/>
      <point x="554.6666666666667" y="-156.13333333333333"/>
      <point x="698.7666666666667" y="-156.13333333333333" type="curve" smooth="yes"/>
      <point x="751.8666666666667" y="-156.13333333333333" type="line"/>
      <point x="765.5" y="-92.33333333333333" type="line"/>
      <point x="686.7" y="-92.33333333333333" type="line" smooth="yes"/>
      <point x="511.26666666666665" y="-92.33333333333333"/>
      <point x="457.40000000000003" y="86.5"/>
      <point x="581.9" y="219.83333333333334" type="curve"/>
      <point x="587.2666666666667" y="216.83333333333331" type="line"/>
      <point x="524.4333333333334" y="95.93333333333334"/>
      <point x="560.5666666666667" y="-4.633333333333334"/>
      <point x="693.0" y="-4.633333333333334" type="curve" smooth="yes"/>
      <point x="831.3000000000001" y="-4.633333333333334"/>
      <point x="929.6" y="99.86666666666667"/>
      <point x="929.6" y="250.13333333333333" type="curve" smooth="yes"/>
      <point x="929.6" y="457.6333333333333"/>
      <point x="737.9666666666667" y="568.7333333333333"/>
      <point x="501.2333333333333" y="568.7333333333333" type="curve" smooth="yes"/>
      <point x="256.93333333333334" y="568.7333333333333"/>
      <point x="43.099999999999994" y="418.2"/>
      <point x="43.099999999999994" y="222.43333333333334" type="curve" smooth="yes"/>
      <point x="43.099999999999994" y="107.56666666666666"/>
      <point x="106.43333333333332" y="13.233333333333334"/>
      <point x="230.93333333333334" y="13.233333333333334" type="curve" smooth="yes"/>
      <point x="336.93333333333334" y="13.233333333333334"/>
      <point x="430.5" y="80.46666666666667"/>
      <point x="430.5" y="199.53333333333333" type="curve" smooth="yes"/>
      <point x="430.5" y="286.3333333333333"/>
      <point x="370.1666666666667" y="336.8"/>
      <point x="291.03333333333336" y="336.8" type="curve" smooth="yes"/>
      <point x="192.9" y="336.8"/>
      <point x="123.43333333333334" y="269.03333333333336"/>
      <point x="81.9" y="140.0" type="curve"/>
      <point x="116.60000000000001" y="117.69999999999999" type="line"/>
      <point x="142.96666666666667" y="211.13333333333335"/>
      <point x="188.23333333333335" y="254.5"/>
      <point x="237.56666666666666" y="254.5" type="curve" smooth="yes"/>
      <point x="283.8666666666667" y="254.5"/>
      <point x="300.5" y="219.4333333333333"/>
      <point x="300.5" y="180.6" type="curve" smooth="yes"/>
      <point x="300.5" y="127.86666666666667"/>
      <point x="271.59999999999997" y="79.96666666666667"/>
      <point x="207.5" y="79.96666666666667" type="curve" smooth="yes"/>
      <point x="139.86666666666665" y="79.96666666666667"/>
      <point x="105.46666666666667" y="148.03333333333336"/>
      <point x="105.46666666666667" y="227.16666666666669" type="curve" smooth="yes"/>
      <point x="105.46666666666667" y="389.5333333333333"/>
      <point x="302.3333333333333" y="511.1666666666667"/>
      <point x="487.1333333333333" y="511.1666666666667" type="curve" smooth="yes"/>
      <point x="659.2666666666667" y="511.1666666666667"/>
      <point x="790.8333333333334" y="417.83333333333337"/>
      <point x="790.8333333333334" y="262.93333333333334" type="curve" smooth="yes"/>
      <point x="790.8333333333334" y="154.96666666666667"/>
      <point x="747.9666666666667" y="63.56666666666666"/>
      <point x="666.1999999999999" y="63.56666666666666" type="curve" smooth="yes"/>
      <point x="587.0999999999999" y="63.56666666666666"/>
      <point x="605.6666666666666" y="184.86666666666665"/>
      <point x="667.7666666666668" y="270.8666666666666" type="curve"/>
      <point x="610.5333333333333" y="311.7333333333333" type="line"/>
      <point x="456.8666666666667" y="190.66666666666666"/>
      <point x="397.26666666666665" y="-22.566666666666663"/>
      <point x="558.5333333333333" y="-113.16666666666666" type="curve"/>
      <point x="557.5333333333333" y="-118.16666666666666" type="line"/>
      <point x="427.90000000000003" y="-157.1"/>
      <point x="407.6333333333334" y="-321.73333333333335"/>
      <point x="202.96666666666667" y="-321.73333333333335" type="curve" smooth="yes"/>
      <point x="87.2" y="-321.73333333333335"/>
      <point x="31.03333333333333" y="-259.1666666666667"/>
      <point x="69.06666666666666" y="-149.46666666666667" type="curve"/>
      <point x="16.700000000000003" y="-139.93333333333334" type="line"/>
      <point x="-37.86666666666667" y="-292.9666666666667"/>
      <point x="54.333333333333336" y="-388.6333333333333"/>
    </contour>
    <contour>
      <point x="102.06666666666666" y="-253.93333333333334" type="line"/>
      <point x="150.60000000000002" y="-253.93333333333334" type="line"/>
      <point x="183.60000000000002" y="-97.66666666666667" type="line"/>
      <point x="134.7" y="-97.66666666666667" type="line"/>
    </contour>
    <contour>
      <point x="119.6" y="-253.93333333333334" type="line"/>
      <point x="316.3333333333333" y="-253.93333333333334" type="line"/>
      <point x="325.6" y="-210.76666666666665" type="line"/>
      <point x="128.6" y="-210.76666666666665" type="line"/>
    </contour>
    <contour>
      <point x="196.06666666666666" y="-253.93333333333334" type="line"/>
      <point x="242.96666666666667" y="-253.93333333333334" type="line"/>
      <point x="263.06666666666666" y="-160.8" type="line" smooth="yes"/>
      <point x="266.06666666666666" y="-147.53333333333333"/>
      <point x="273.23333333333335" y="-136.83333333333334"/>
      <point x="288.56666666666666" y="-136.83333333333334" type="curve" smooth="yes"/>
      <point x="304.9" y="-136.83333333333334"/>
      <point x="311.7" y="-149.0"/>
      <point x="307.43333333333334" y="-168.0666666666667" type="curve" smooth="yes"/>
      <point x="288.96666666666664" y="-253.93333333333334" type="line"/>
      <point x="338.8666666666667" y="-253.93333333333334" type="line"/>
      <point x="354.96666666666664" y="-177.16666666666669" type="line" smooth="yes"/>
      <point x="365.6" y="-126.63333333333333"/>
      <point x="338.59999999999997" y="-95.66666666666667"/>
      <point x="293.83333333333337" y="-95.66666666666667" type="curve" smooth="yes"/>
      <point x="250.0666666666667" y="-95.66666666666667"/>
      <point x="224.16666666666666" y="-122.53333333333333"/>
      <point x="215.79999999999998" y="-162.63333333333333" type="curve" smooth="yes"/>
    </contour>
    <contour>
      <point x="262.06666666666666" y="-76.96666666666667" type="curve" smooth="yes"/>
      <point x="280.33333333333337" y="-76.96666666666667"/>
      <point x="295.6" y="-61.33333333333333"/>
      <point x="295.6" y="-45.06666666666666" type="curve" smooth="yes"/>
      <point x="295.6" y="-27.8"/>
      <point x="280.33333333333337" y="-13.533333333333333"/>
      <point x="262.06666666666666" y="-13.533333333333333" type="curve" smooth="yes"/>
      <point x="242.8" y="-13.533333333333333"/>
      <point x="228.53333333333333" y="-27.8"/>
      <point x="228.53333333333333" y="-45.06666666666666" type="curve" smooth="yes"/>
      <point x="228.53333333333333" y="-61.33333333333333"/>
      <point x="242.8" y="-76.96666666666667"/>
    </contour>
  </outline>
</glyph>
